{
.appVersion = "1286";
DisplayStrings = (
ABCDEFGHIJKLMNOPQRSTUVWXYZabcdefghijklmnopqrstuvwxyz0123456789,

glyphs = (
{
glyphname = A;
lastChange = "2020-03-26 11:01:55 +0000";
layers = (
{
layerId = "CFFEBDE4-599A-46B2-9328-D96E42CD9C81";
paths = (
{
closed = 1;
nodes = (
"638 0 LINE",
"360 717 LINE",
"279 717 LINE",
"0 0 LINE",
"91 0 LINE",
"176 221 LINE",
"459 221 LINE",
"545 0 LINE",
"545 0 LINE"
);
},
{
closed = 1;
nodes = (
"206 301 LINE",
"287 517 LINE SMOOTH",
"293 534 OFFCURVE",
"311 593 OFFCURVE",
"318 624 QCURVE",
"322 612 OFFCURVE",
"335 567 OFFCURVE",
"349 525 OFFCURVE",
"352 517 QCURVE SMOOTH",
"432 301 LINE",
"432 301 LINE"
);
}
);
width = 639;
}
);
leftKerningGroup = A;
note = A;
rightKerningGroup = A;
unicode = 0041;
},
{
glyphname = B;
lastChange = "2020-03-26 11:01:55 +0000";
layers = (
{
layerId = "CFFEBDE4-599A-46B2-9328-D96E42CD9C81";
paths = (
{
closed = 1;
nodes = (
"97 0 LINE",
"348 0 LINE SMOOTH",
"463 0 OFFCURVE",
"596 106 OFFCURVE",
"596 203 QCURVE SMOOTH",
"596 259 OFFCURVE",
"554 329 OFFCURVE",
"481 367 OFFCURVE",
"436 374 QCURVE",
"436 379 LINE",
"502 391 OFFCURVE",
"572 474 OFFCURVE",
"572 537 QCURVE SMOOTH",
"572 635 OFFCURVE",
"435 714 OFFCURVE",
"301 714 QCURVE SMOOTH",
"97 714 LINE",
"97 714 LINE"
);
},
{
closed = 1;
nodes = (
"187 637 LINE",
"305 637 LINE SMOOTH",
"396 637 OFFCURVE",
"479 586 OFFCURVE",
"479 527 QCURVE SMOOTH",
"479 469 OFFCURVE",
"411 410 OFFCURVE",
"319 410 QCURVE SMOOTH",
"187 410 LINE",
"187 410 LINE"
);
},
{
closed = 1;
nodes = (
"324 335 LINE SMOOTH",
"423 335 OFFCURVE",
"500 266 OFFCURVE",
"500 210 QCURVE SMOOTH",
"500 150 OFFCURVE",
"426 76 OFFCURVE",
"331 76 QCURVE SMOOTH",
"187 76 LINE",
"187 335 LINE",
"187 335 LINE"
);
}
);
width = 650;
}
);
note = B;
unicode = 0042;
},
{
glyphname = C;
lastChange = "2020-03-26 11:01:55 +0000";
layers = (
{
layerId = "CFFEBDE4-599A-46B2-9328-D96E42CD9C81";
paths = (
{
closed = 1;
nodes = (
"451 645 OFFCURVE",
"532 621 OFFCURVE",
"565 606 QCURVE",
"601 682 LINE",
"517 724 OFFCURVE",
"404 724 QCURVE SMOOTH",
"294 724 OFFCURVE",
"140 631 OFFCURVE",
"61 466 OFFCURVE",
"61 358 QCURVE SMOOTH",
"61 246 OFFCURVE",
"134 80 OFFCURVE",
"280 -10 OFFCURVE",
"389 -10 QCURVE SMOOTH",
"448 -10 OFFCURVE",
"533 4 OFFCURVE",
"573 19 QCURVE",
"573 97 LINE",
"533 85 OFFCURVE",
"449 69 OFFCURVE",
"402 69 QCURVE SMOOTH",
"279 69 OFFCURVE",
"156 224 OFFCURVE",
"156 357 QCURVE SMOOTH",
"156 491 OFFCURVE",
"288 645 OFFCURVE",
"403 645 QCURVE",
"403 645 LINE"
);
}
);
width = 632;
}
);
leftKerningGroup = C;
note = C;
rightKerningGroup = C;
unicode = 0043;
},
{
glyphname = D;
lastChange = "2020-03-26 11:01:55 +0000";
layers = (
{
layerId = "CFFEBDE4-599A-46B2-9328-D96E42CD9C81";
paths = (
{
closed = 1;
nodes = (
"669 479 OFFCURVE",
"583 634 OFFCURVE",
"425 714 OFFCURVE",
"317 714 QCURVE SMOOTH",
"97 714 LINE",
"97 0 LINE",
"296 0 LINE SMOOTH",
"472 0 OFFCURVE",
"669 183 OFFCURVE",
"669 364 QCURVE",
"669 364 LINE"
);
},
{
closed = 1;
nodes = (
"574 77 OFFCURVE",
"284 77 QCURVE SMOOTH",
"187 77 LINE",
"187 637 LINE",
"304 637 LINE SMOOTH",
"433 637 OFFCURVE",
"574 504 OFFCURVE",
"574 361 QCURVE",
"574 361 LINE"
);
}
);
width = 730;
}
);
note = D;
rightKerningGroup = D;
unicode = 0044;
},
{
glyphname = E;
lastChange = "2020-03-26 11:01:55 +0000";
layers = (
{
layerId = "CFFEBDE4-599A-46B2-9328-D96E42CD9C81";
paths = (
{
closed = 1;
nodes = (
"496 79 LINE",
"187 79 LINE",
"187 334 LINE",
"478 334 LINE",
"478 412 LINE",
"187 412 LINE",
"187 635 LINE",
"496 635 LINE",
"496 714 LINE",
"97 714 LINE",
"97 0 LINE",
"496 0 LINE",
"496 0 LINE"
);
}
);
width = 556;
}
);
note = E;
rightKerningGroup = E;
unicode = 0045;
},
{
glyphname = F;
lastChange = "2020-03-26 11:01:55 +0000";
layers = (
{
layerId = "CFFEBDE4-599A-46B2-9328-D96E42CD9C81";
paths = (
{
closed = 1;
nodes = (
"187 303 LINE",
"477 303 LINE",
"477 382 LINE",
"187 382 LINE",
"187 635 LINE",
"496 635 LINE",
"496 714 LINE",
"97 714 LINE",
"97 0 LINE",
"187 0 LINE",
"187 0 LINE"
);
}
);
width = 519;
}
);
note = F;
unicode = 0046;
},
{
glyphname = G;
lastChange = "2020-03-26 11:01:55 +0000";
layers = (
{
layerId = "CFFEBDE4-599A-46B2-9328-D96E42CD9C81";
paths = (
{
closed = 1;
nodes = (
"407 297 LINE",
"564 297 LINE",
"564 85 LINE",
"537 78 OFFCURVE",
"471 68 OFFCURVE",
"424 68 QCURVE SMOOTH",
"328 68 OFFCURVE",
"210 141 OFFCURVE",
"155 272 OFFCURVE",
"155 357 QCURVE SMOOTH",
"155 491 OFFCURVE",
"298 645 OFFCURVE",
"426 645 QCURVE SMOOTH",
"477 645 OFFCURVE",
"572 621 OFFCURVE",
"610 604 QCURVE",
"644 682 LINE",
"598 702 OFFCURVE",
"491 724 OFFCURVE",
"431 724 QCURVE SMOOTH",
"314 724 OFFCURVE",
"149 633 OFFCURVE",
"61 469 OFFCURVE",
"61 357 QCURVE SMOOTH",
"61 244 OFFCURVE",
"140 79 OFFCURVE",
"292 -10 OFFCURVE",
"403 -10 QCURVE SMOOTH",
"478 -10 OFFCURVE",
"596 8 OFFCURVE",
"654 27 QCURVE",
"654 377 LINE",
"407 377 LINE",
"407 377 LINE"
);
}
);
width = 728;
}
);
leftKerningGroup = C;
note = G;
unicode = 0047;
},
{
glyphname = H;
lastChange = "2020-03-26 11:01:55 +0000";
layers = (
{
layerId = "CFFEBDE4-599A-46B2-9328-D96E42CD9C81";
paths = (
{
closed = 1;
nodes = (
"643 714 LINE",
"553 714 LINE",
"553 412 LINE",
"187 412 LINE",
"187 714 LINE",
"97 714 LINE",
"97 0 LINE",
"187 0 LINE",
"187 333 LINE",
"553 333 LINE",
"553 0 LINE",
"643 0 LINE",
"643 0 LINE"
);
}
);
width = 741;
}
);
note = H;
unicode = 0048;
},
{
glyphname = I;
lastChange = "2020-03-26 11:01:55 +0000";
layers = (
{
layerId = "CFFEBDE4-599A-46B2-9328-D96E42CD9C81";
paths = (
{
closed = 1;
nodes = (
"298 52 LINE",
"214 71 LINE",
"214 642 LINE",
"298 662 LINE",
"298 714 LINE",
"40 714 LINE",
"40 662 LINE",
"124 642 LINE",
"124 71 LINE",
"40 52 LINE",
"40 0 LINE",
"298 0 LINE",
"298 0 LINE"
);
}
);
width = 339;
}
);
note = I;
unicode = 0049;
},
{
glyphname = J;
lastChange = "2020-03-26 11:01:55 +0000";
layers = (
{
layerId = "CFFEBDE4-599A-46B2-9328-D96E42CD9C81";
paths = (
{
closed = 1;
nodes = (
"80 -190 OFFCURVE",
"182 -92 OFFCURVE",
"182 11 QCURVE SMOOTH",
"182 714 LINE",
"92 714 LINE",
"92 4 LINE SMOOTH",
"92 -41 OFFCURVE",
"64 -91 OFFCURVE",
"19 -111 OFFCURVE",
"-6 -111 QCURVE SMOOTH",
"-26 -111 OFFCURVE",
"-62 -105 OFFCURVE",
"-78 -101 QCURVE",
"-78 -177 LINE",
"-64 -183 OFFCURVE",
"-28 -190 OFFCURVE",
"-4 -190 QCURVE",
"-4 -190 LINE"
);
}
);
width = 273;
}
);
note = J;
unicode = 004A;
},
{
glyphname = K;
lastChange = "2020-03-26 11:01:55 +0000";
layers = (
{
layerId = "CFFEBDE4-599A-46B2-9328-D96E42CD9C81";
paths = (
{
closed = 1;
nodes = (
"325 403 LINE",
"608 714 LINE",
"503 714 LINE",
"310 498 LINE SMOOTH",
"279 464 OFFCURVE",
"217 396 OFFCURVE",
"187 362 QCURVE",
"187 714 LINE",
"97 714 LINE",
"97 0 LINE",
"187 0 LINE",
"187 277 LINE",
"260 341 LINE",
"513 0 LINE",
"619 0 LINE",
"619 0 LINE"
);
}
);
width = 600;
}
);
note = K;
rightKerningGroup = K;
unicode = 004B;
},
{
glyphname = L;
lastChange = "2020-03-26 11:01:55 +0000";
layers = (
{
layerId = "CFFEBDE4-599A-46B2-9328-D96E42CD9C81";
paths = (
{
closed = 1;
nodes = (
"499 0 LINE",
"499 80 LINE",
"187 80 LINE",
"187 714 LINE",
"97 714 LINE",
"97 0 LINE",
"97 0 LINE"
);
}
);
width = 524;
}
);
note = L;
rightKerningGroup = L;
unicode = 004C;
},
{
glyphname = M;
lastChange = "2020-03-26 11:01:55 +0000";
layers = (
{
layerId = "CFFEBDE4-599A-46B2-9328-D96E42CD9C81";
paths = (
{
closed = 1;
nodes = (
"486 0 LINE",
"724 625 LINE",
"728 625 LINE",
"726 593 OFFCURVE",
"721 491 OFFCURVE",
"721 439 QCURVE SMOOTH",
"721 0 LINE",
"810 0 LINE",
"810 714 LINE",
"678 714 LINE",
"454 129 LINE",
"450 129 LINE",
"230 714 LINE",
"97 714 LINE",
"97 0 LINE",
"180 0 LINE",
"180 433 LINE SMOOTH",
"180 490 OFFCURVE",
"176 595 OFFCURVE",
"173 626 QCURVE",
"177 626 LINE",
"412 0 LINE",
"412 0 LINE"
);
}
);
width = 907;
}
);
note = M;
unicode = 004D;
},
{
glyphname = N;
lastChange = "2020-03-26 11:01:55 +0000";
layers = (
{
layerId = "CFFEBDE4-599A-46B2-9328-D96E42CD9C81";
paths = (
{
closed = 1;
nodes = (
"663 714 LINE",
"579 714 LINE",
"579 311 LINE SMOOTH",
"579 279 OFFCURVE",
"582 203 OFFCURVE",
"585 139 OFFCURVE",
"586 123 QCURVE",
"582 123 LINE",
"201 714 LINE",
"97 714 LINE",
"97 0 LINE",
"180 0 LINE",
"180 399 LINE SMOOTH",
"180 454 OFFCURVE",
"174 558 OFFCURVE",
"172 593 QCURVE",
"176 593 LINE",
"558 0 LINE",
"663 0 LINE",
"663 0 LINE"
);
}
);
width = 760;
}
);
note = N;
unicode = 004E;
},
{
glyphname = O;
lastChange = "2020-03-26 11:01:55 +0000";
layers = (
{
layerId = "CFFEBDE4-599A-46B2-9328-D96E42CD9C81";
paths = (
{
closed = 1;
nodes = (
"720 469 OFFCURVE",
"645 634 OFFCURVE",
"499 725 OFFCURVE",
"392 725 QCURVE SMOOTH",
"280 725 OFFCURVE",
"133 633 OFFCURVE",
"61 469 OFFCURVE",
"61 359 QCURVE SMOOTH",
"61 248 OFFCURVE",
"133 82 OFFCURVE",
"280 -10 OFFCURVE",
"391 -10 QCURVE SMOOTH",
"499 -10 OFFCURVE",
"645 82 OFFCURVE",
"720 247 OFFCURVE",
"720 358 QCURVE",
"720 358 LINE"
);
},
{
closed = 1;
nodes = (
"156 493 OFFCURVE",
"271 646 OFFCURVE",
"392 646 QCURVE SMOOTH",
"513 646 OFFCURVE",
"625 493 OFFCURVE",
"625 358 QCURVE SMOOTH",
"625 223 OFFCURVE",
"513 68 OFFCURVE",
"391 68 QCURVE SMOOTH",
"270 68 OFFCURVE",
"156 223 OFFCURVE",
"156 358 QCURVE",
"156 358 LINE"
);
}
);
userData = {
assembly = "NPUSHB[ ]	/* 28 values pushed */\0120 3 3 1 97 0 1 1 112 77 0 2 2 0 97 0 0 0 113 0 78 36 37 38 35 4 13 26 \012CALL[ ]	/* CallFunction */";
};
width = 781;
}
);
leftKerningGroup = C;
note = O;
rightKerningGroup = D;
unicode = 004F;
},
{
glyphname = P;
lastChange = "2020-03-26 11:01:55 +0000";
layers = (
{
layerId = "CFFEBDE4-599A-46B2-9328-D96E42CD9C81";
paths = (
{
closed = 1;
nodes = (
"97 714 LINE",
"97 0 LINE",
"187 0 LINE",
"187 278 LINE",
"269 278 LINE SMOOTH",
"376 278 OFFCURVE",
"501 342 OFFCURVE",
"554 445 OFFCURVE",
"554 504 QCURVE SMOOTH",
"554 604 OFFCURVE",
"426 714 OFFCURVE",
"286 714 QCURVE",
"286 714 LINE"
);
},
{
closed = 1;
nodes = (
"373 637 OFFCURVE",
"461 569 OFFCURVE",
"461 500 QCURVE SMOOTH",
"461 421 OFFCURVE",
"361 355 OFFCURVE",
"259 355 QCURVE SMOOTH",
"187 355 LINE",
"187 637 LINE",
"278 637 LINE",
"278 637 LINE"
);
}
);
width = 605;
}
);
note = P;
rightKerningGroup = P;
unicode = 0050;
},
{
glyphname = Q;
lastChange = "2020-03-26 11:01:55 +0000";
layers = (
{
layerId = "CFFEBDE4-599A-46B2-9328-D96E42CD9C81";
paths = (
{
closed = 1;
nodes = (
"720 469 OFFCURVE",
"645 634 OFFCURVE",
"499 725 OFFCURVE",
"392 725 QCURVE SMOOTH",
"280 725 OFFCURVE",
"133 633 OFFCURVE",
"61 469 OFFCURVE",
"61 359 QCURVE SMOOTH",
"61 248 OFFCURVE",
"133 82 OFFCURVE",
"280 -10 OFFCURVE",
"391 -10 QCURVE SMOOTH",
"397 -10 OFFCURVE",
"410 -9 OFFCURVE",
"416 -9 QCURVE",
"554 -170 LINE",
"683 -170 LINE",
"512 8 LINE",
"615 43 OFFCURVE",
"720 227 OFFCURVE",
"720 358 QCURVE",
"720 358 LINE"
);
},
{
closed = 1;
nodes = (
"156 493 OFFCURVE",
"271 646 OFFCURVE",
"392 646 QCURVE SMOOTH",
"513 646 OFFCURVE",
"625 493 OFFCURVE",
"625 358 QCURVE SMOOTH",
"625 223 OFFCURVE",
"513 68 OFFCURVE",
"391 68 QCURVE SMOOTH",
"270 68 OFFCURVE",
"156 223 OFFCURVE",
"156 358 QCURVE",
"156 358 LINE"
);
}
);
width = 781;
}
);
leftKerningGroup = C;
note = Q;
rightKerningGroup = D;
unicode = 0051;
},
{
glyphname = R;
lastChange = "2020-03-26 11:01:55 +0000";
layers = (
{
layerId = "CFFEBDE4-599A-46B2-9328-D96E42CD9C81";
paths = (
{
closed = 1;
nodes = (
"97 714 LINE",
"97 0 LINE",
"187 0 LINE",
"187 295 LINE",
"329 295 LINE",
"502 0 LINE",
"607 0 LINE",
"411 320 LINE",
"447 333 OFFCURVE",
"512 378 OFFCURVE",
"554 454 OFFCURVE",
"554 511 QCURVE SMOOTH",
"554 613 OFFCURVE",
"427 714 OFFCURVE",
"294 714 QCURVE",
"294 714 LINE"
);
},
{
closed = 1;
nodes = (
"377 636 OFFCURVE",
"461 577 OFFCURVE",
"461 507 QCURVE SMOOTH",
"461 440 OFFCURVE",
"381 371 OFFCURVE",
"294 371 QCURVE SMOOTH",
"187 371 LINE",
"187 636 LINE",
"289 636 LINE",
"289 636 LINE"
);
}
);
width = 622;
}
);
note = R;
unicode = 0052;
},
{
glyphname = S;
lastChange = "2020-03-26 11:01:55 +0000";
layers = (
{
layerId = "CFFEBDE4-599A-46B2-9328-D96E42CD9C81";
paths = (
{
closed = 1;
nodes = (
"502 247 OFFCURVE",
"457 321 OFFCURVE",
"370 374 OFFCURVE",
"307 397 QCURVE SMOOTH",
"249 419 OFFCURVE",
"181 457 OFFCURVE",
"151 505 OFFCURVE",
"151 541 QCURVE SMOOTH",
"151 588 OFFCURVE",
"219 645 OFFCURVE",
"286 645 QCURVE SMOOTH",
"333 645 OFFCURVE",
"420 623 OFFCURVE",
"457 607 QCURVE",
"485 684 LINE",
"445 702 OFFCURVE",
"347 724 OFFCURVE",
"288 724 QCURVE SMOOTH",
"221 724 OFFCURVE",
"118 680 OFFCURVE",
"60 599 OFFCURVE",
"60 542 QCURVE SMOOTH",
"60 459 OFFCURVE",
"153 363 OFFCURVE",
"244 330 QCURVE SMOOTH",
"309 307 OFFCURVE",
"382 266 OFFCURVE",
"412 218 OFFCURVE",
"412 183 QCURVE SMOOTH",
"412 130 OFFCURVE",
"331 68 OFFCURVE",
"251 68 QCURVE SMOOTH",
"194 68 OFFCURVE",
"87 94 OFFCURVE",
"51 110 QCURVE",
"51 24 LINE",
"85 8 OFFCURVE",
"187 -10 OFFCURVE",
"247 -10 QCURVE SMOOTH",
"364 -10 OFFCURVE",
"502 96 OFFCURVE",
"502 191 QCURVE",
"502 191 LINE"
);
}
);
width = 549;
}
);
note = S;
unicode = 0053;
},
{
glyphname = T;
lastChange = "2020-03-26 11:01:55 +0000";
layers = (
{
layerId = "CFFEBDE4-599A-46B2-9328-D96E42CD9C81";
paths = (
{
closed = 1;
nodes = (
"323 635 LINE",
"545 635 LINE",
"545 714 LINE",
"10 714 LINE",
"10 635 LINE",
"233 635 LINE",
"233 0 LINE",
"323 0 LINE",
"323 0 LINE"
);
}
);
width = 556;
}
);
leftKerningGroup = T;
note = T;
rightKerningGroup = T;
unicode = 0054;
},
{
glyphname = U;
lastChange = "2020-03-26 11:01:55 +0000";
layers = (
{
layerId = "CFFEBDE4-599A-46B2-9328-D96E42CD9C81";
paths = (
{
closed = 1;
nodes = (
"551 714 LINE",
"551 252 LINE SMOOTH",
"551 171 OFFCURVE",
"464 68 OFFCURVE",
"367 68 QCURVE SMOOTH",
"273 68 OFFCURVE",
"180 164 OFFCURVE",
"180 251 QCURVE SMOOTH",
"180 714 LINE",
"90 714 LINE",
"90 254 LINE SMOOTH",
"90 135 OFFCURVE",
"229 -10 OFFCURVE",
"362 -10 QCURVE SMOOTH",
"457 -10 OFFCURVE",
"580 59 OFFCURVE",
"640 178 OFFCURVE",
"640 252 QCURVE SMOOTH",
"640 714 LINE",
"640 714 LINE"
);
}
);
width = 731;
}
);
leftKerningGroup = U;
note = U;
rightKerningGroup = U;
unicode = 0055;
},
{
glyphname = V;
lastChange = "2020-03-26 11:01:55 +0000";
layers = (
{
layerId = "CFFEBDE4-599A-46B2-9328-D96E42CD9C81";
paths = (
{
closed = 1;
nodes = (
"505 714 LINE",
"345 258 LINE SMOOTH",
"329 213 OFFCURVE",
"307 135 OFFCURVE",
"300 100 QCURVE",
"293 135 OFFCURVE",
"271 212 OFFCURVE",
"255 256 QCURVE SMOOTH",
"94 714 LINE",
"0 714 LINE",
"255 0 LINE",
"345 0 LINE",
"600 714 LINE",
"600 714 LINE"
);
}
);
width = 600;
}
);
leftKerningGroup = V;
note = V;
rightKerningGroup = V;
unicode = 0056;
},
{
glyphname = W;
lastChange = "2020-03-26 11:01:55 +0000";
layers = (
{
layerId = "CFFEBDE4-599A-46B2-9328-D96E42CD9C81";
paths = (
{
closed = 1;
nodes = (
"823 714 LINE",
"713 279 LINE SMOOTH",
"701 232 OFFCURVE",
"683 145 OFFCURVE",
"678 108 QCURVE",
"673 143 OFFCURVE",
"653 234 OFFCURVE",
"639 280 QCURVE SMOOTH",
"508 714 LINE",
"415 714 LINE",
"289 283 LINE SMOOTH",
"276 239 OFFCURVE",
"256 147 OFFCURVE",
"251 108 QCURVE",
"246 146 OFFCURVE",
"229 232 OFFCURVE",
"217 278 QCURVE SMOOTH",
"106 714 LINE",
"12 714 LINE",
"201 0 LINE",
"292 0 LINE",
"427 465 LINE SMOOTH",
"441 511 OFFCURVE",
"460 596 OFFCURVE",
"461 609 QCURVE",
"463 600 OFFCURVE",
"473 555 OFFCURVE",
"489 497 OFFCURVE",
"497 468 QCURVE SMOOTH",
"636 0 LINE",
"727 0 LINE",
"917 714 LINE",
"917 714 LINE"
);
}
);
width = 930;
}
);
leftKerningGroup = V;
note = W;
rightKerningGroup = V;
unicode = 0057;
},
{
glyphname = X;
lastChange = "2020-03-26 11:01:55 +0000";
layers = (
{
layerId = "CFFEBDE4-599A-46B2-9328-D96E42CD9C81";
paths = (
{
closed = 1;
nodes = (
"344 374 LINE",
"565 714 LINE",
"470 714 LINE",
"294 434 LINE",
"119 714 LINE",
"19 714 LINE",
"241 372 LINE",
"4 0 LINE",
"99 0 LINE",
"291 310 LINE",
"480 0 LINE",
"582 0 LINE",
"582 0 LINE"
);
}
);
width = 586;
}
);
note = X;
rightKerningGroup = K;
unicode = 0058;
},
{
glyphname = Y;
lastChange = "2020-03-26 11:01:55 +0000";
layers = (
{
layerId = "CFFEBDE4-599A-46B2-9328-D96E42CD9C81";
paths = (
{
closed = 1;
nodes = (
"98 714 LINE",
"0 714 LINE",
"238 273 LINE",
"238 0 LINE",
"328 0 LINE",
"328 277 LINE",
"566 714 LINE",
"469 714 LINE",
"283 363 LINE",
"283 363 LINE"
);
}
);
width = 566;
}
);
leftKerningGroup = Y;
note = Y;
rightKerningGroup = Y;
unicode = 0059;
},
{
glyphname = Z;
lastChange = "2020-03-26 11:01:55 +0000";
layers = (
{
layerId = "CFFEBDE4-599A-46B2-9328-D96E42CD9C81";
paths = (
{
closed = 1;
nodes = (
"533 80 LINE",
"147 80 LINE",
"523 646 LINE",
"523 714 LINE",
"50 714 LINE",
"50 634 LINE",
"414 634 LINE",
"38 68 LINE",
"38 0 LINE",
"533 0 LINE",
"533 0 LINE"
);
}
);
width = 572;
}
);
leftKerningGroup = Z;
note = Z;
rightKerningGroup = Z;
unicode = 005A;
},
{
glyphname = a;
lastChange = "2020-03-26 11:01:55 +0000";
layers = (
{
layerId = "CFFEBDE4-599A-46B2-9328-D96E42CD9C81";
paths = (
{
closed = 1;
nodes = (
"236 545 OFFCURVE",
"140 518 OFFCURVE",
"105 499 QCURVE",
"132 433 LINE",
"165 449 OFFCURVE",
"241 474 OFFCURVE",
"283 474 QCURVE SMOOTH",
"336 474 OFFCURVE",
"394 422 OFFCURVE",
"394 355 QCURVE SMOOTH",
"394 323 LINE",
"303 320 LINE SMOOTH",
"172 316 OFFCURVE",
"46 229 OFFCURVE",
"46 149 QCURVE SMOOTH",
"46 67 OFFCURVE",
"142 -10 OFFCURVE",
"215 -10 QCURVE SMOOTH",
"283 -10 OFFCURVE",
"360 32 OFFCURVE",
"395 76 QCURVE",
"399 76 LINE",
"416 0 LINE",
"480 0 LINE",
"480 365 LINE SMOOTH",
"480 459 OFFCURVE",
"386 545 OFFCURVE",
"288 545 QCURVE",
"288 545 LINE"
);
},
{
closed = 1;
nodes = (
"393 214 LINE SMOOTH",
"393 136 OFFCURVE",
"303 61 OFFCURVE",
"235 61 QCURVE SMOOTH",
"192 61 OFFCURVE",
"137 103 OFFCURVE",
"137 148 QCURVE SMOOTH",
"137 199 OFFCURVE",
"214 255 OFFCURVE",
"314 259 QCURVE SMOOTH",
"393 262 LINE",
"393 262 LINE"
);
}
);
width = 561;
}
);
leftKerningGroup = a;
note = a;
rightKerningGroup = a;
unicode = 0061;
},
{
glyphname = b;
lastChange = "2020-03-26 11:01:55 +0000";
layers = (
{
layerId = "CFFEBDE4-599A-46B2-9328-D96E42CD9C81";
paths = (
{
closed = 1;
nodes = (
"85 760 LINE",
"85 0 LINE",
"148 0 LINE",
"166 68 LINE",
"173 68 LINE",
"196 36 OFFCURVE",
"276 -10 OFFCURVE",
"339 -10 QCURVE SMOOTH",
"438 -10 OFFCURVE",
"560 130 OFFCURVE",
"560 268 QCURVE SMOOTH",
"560 406 OFFCURVE",
"439 545 OFFCURVE",
"339 545 QCURVE SMOOTH",
"276 545 OFFCURVE",
"196 499 OFFCURVE",
"173 465 QCURVE",
"168 465 LINE",
"170 482 OFFCURVE",
"173 541 OFFCURVE",
"173 575 QCURVE SMOOTH",
"173 760 LINE",
"173 760 LINE"
);
},
{
closed = 1;
nodes = (
"469 472 OFFCURVE",
"469 269 QCURVE SMOOTH",
"469 169 OFFCURVE",
"398 63 OFFCURVE",
"326 63 QCURVE SMOOTH",
"238 63 OFFCURVE",
"173 168 OFFCURVE",
"173 267 QCURVE SMOOTH",
"173 271 LINE SMOOTH",
"173 374 OFFCURVE",
"239 472 OFFCURVE",
"324 472 QCURVE",
"324 472 LINE"
);
}
);
width = 615;
}
);
leftKerningGroup = b;
note = b;
rightKerningGroup = b;
unicode = 0062;
},
{
glyphname = c;
lastChange = "2020-03-26 11:01:55 +0000";
layers = (
{
layerId = "CFFEBDE4-599A-46B2-9328-D96E42CD9C81";
paths = (
{
closed = 1;
nodes = (
"346 -10 OFFCURVE",
"411 5 OFFCURVE",
"438 19 QCURVE",
"438 97 LINE",
"410 84 OFFCURVE",
"343 66 OFFCURVE",
"299 66 QCURVE SMOOTH",
"223 66 OFFCURVE",
"146 169 OFFCURVE",
"146 266 QCURVE SMOOTH",
"146 469 OFFCURVE",
"304 469 QCURVE SMOOTH",
"332 469 OFFCURVE",
"396 453 OFFCURVE",
"420 444 QCURVE",
"447 517 LINE",
"423 529 OFFCURVE",
"347 546 OFFCURVE",
"306 546 QCURVE SMOOTH",
"234 546 OFFCURVE",
"121 488 OFFCURVE",
"55 364 OFFCURVE",
"55 265 QCURVE SMOOTH",
"55 170 OFFCURVE",
"118 48 OFFCURVE",
"229 -10 OFFCURVE",
"300 -10 QCURVE",
"300 -10 LINE"
);
}
);
width = 480;
}
);
leftKerningGroup = c;
note = c;
unicode = 0063;
},
{
glyphname = d;
lastChange = "2020-03-26 11:01:55 +0000";
layers = (
{
layerId = "CFFEBDE4-599A-46B2-9328-D96E42CD9C81";
paths = (
{
closed = 1;
nodes = (
"338 -10 OFFCURVE",
"418 38 OFFCURVE",
"442 72 QCURVE",
"446 72 LINE",
"459 0 LINE",
"530 0 LINE",
"530 760 LINE",
"442 760 LINE",
"442 546 LINE SMOOTH",
"442 531 OFFCURVE",
"447 480 OFFCURVE",
"448 467 QCURVE",
"442 467 LINE",
"417 500 OFFCURVE",
"338 546 OFFCURVE",
"276 546 QCURVE SMOOTH",
"176 546 OFFCURVE",
"55 405 OFFCURVE",
"55 267 QCURVE SMOOTH",
"55 129 OFFCURVE",
"175 -10 OFFCURVE",
"275 -10 QCURVE",
"275 -10 LINE"
);
},
{
closed = 1;
nodes = (
"217 63 OFFCURVE",
"146 169 OFFCURVE",
"146 265 QCURVE SMOOTH",
"146 360 OFFCURVE",
"217 473 OFFCURVE",
"288 473 QCURVE SMOOTH",
"377 473 OFFCURVE",
"443 366 OFFCURVE",
"443 266 QCURVE SMOOTH",
"443 250 LINE SMOOTH",
"443 156 OFFCURVE",
"374 63 OFFCURVE",
"289 63 QCURVE",
"289 63 LINE"
);
}
);
width = 615;
}
);
leftKerningGroup = c;
note = d;
unicode = 0064;
},
{
glyphname = e;
lastChange = "2020-03-26 11:01:55 +0000";
layers = (
{
layerId = "CFFEBDE4-599A-46B2-9328-D96E42CD9C81";
paths = (
{
closed = 1;
nodes = (
"221 546 OFFCURVE",
"114 478 OFFCURVE",
"55 352 OFFCURVE",
"55 264 QCURVE SMOOTH",
"55 175 OFFCURVE",
"120 52 OFFCURVE",
"237 -10 OFFCURVE",
"313 -10 QCURVE SMOOTH",
"368 -10 OFFCURVE",
"448 7 OFFCURVE",
"489 25 QCURVE",
"489 102 LINE",
"447 84 OFFCURVE",
"368 65 OFFCURVE",
"317 65 QCURVE SMOOTH",
"237 65 OFFCURVE",
"148 160 OFFCURVE",
"146 251 QCURVE",
"513 251 LINE",
"513 304 LINE SMOOTH",
"513 377 OFFCURVE",
"460 486 OFFCURVE",
"361 546 OFFCURVE",
"292 546 QCURVE",
"292 546 LINE"
);
},
{
closed = 1;
nodes = (
"358 474 OFFCURVE",
"420 389 OFFCURVE",
"421 321 QCURVE",
"148 321 LINE",
"155 393 OFFCURVE",
"228 474 OFFCURVE",
"291 474 QCURVE",
"291 474 LINE"
);
}
);
width = 564;
}
);
leftKerningGroup = c;
note = e;
rightKerningGroup = b;
unicode = 0065;
},
{
glyphname = f;
lastChange = "2020-03-26 11:01:55 +0000";
layers = (
{
layerId = "CFFEBDE4-599A-46B2-9328-D96E42CD9C81";
paths = (
{
closed = 1;
nodes = (
"332 536 LINE",
"197 536 LINE",
"197 571 LINE SMOOTH",
"197 634 OFFCURVE",
"240 693 OFFCURVE",
"284 693 QCURVE SMOOTH",
"306 693 OFFCURVE",
"348 683 OFFCURVE",
"364 678 QCURVE",
"387 747 LINE",
"368 754 OFFCURVE",
"315 765 OFFCURVE",
"283 765 QCURVE SMOOTH",
"201 765 OFFCURVE",
"109 674 OFFCURVE",
"109 570 QCURVE SMOOTH",
"109 539 LINE",
"15 509 LINE",
"15 468 LINE",
"109 468 LINE",
"109 0 LINE",
"197 0 LINE",
"197 468 LINE",
"332 468 LINE",
"332 468 LINE"
);
}
);
width = 344;
}
);
leftKerningGroup = f;
note = f;
rightKerningGroup = f;
unicode = 0066;
},
{
glyphname = g;
lastChange = "2020-03-26 11:01:55 +0000";
layers = (
{
layerId = "CFFEBDE4-599A-46B2-9328-D96E42CD9C81";
paths = (
{
closed = 1;
nodes = (
"172 546 OFFCURVE",
"55 395 OFFCURVE",
"55 267 QCURVE SMOOTH",
"55 136 OFFCURVE",
"172 -10 OFFCURVE",
"276 -10 QCURVE SMOOTH",
"388 -10 OFFCURVE",
"442 71 QCURVE",
"446 71 LINE",
"445 62 OFFCURVE",
"443 17 OFFCURVE",
"443 5 QCURVE SMOOTH",
"443 -16 LINE SMOOTH",
"443 -86 OFFCURVE",
"364 -167 OFFCURVE",
"295 -167 QCURVE SMOOTH",
"176 -167 OFFCURVE",
"97 -125 QCURVE",
"97 -206 LINE",
"172 -240 OFFCURVE",
"290 -240 QCURVE SMOOTH",
"413 -240 OFFCURVE",
"530 -124 OFFCURVE",
"530 -9 QCURVE SMOOTH",
"530 536 LINE",
"460 536 LINE",
"448 465 LINE",
"443 465 LINE",
"413 506 OFFCURVE",
"328 546 OFFCURVE",
"275 546 QCURVE",
"275 546 LINE"
);
},
{
closed = 1;
nodes = (
"368 472 OFFCURVE",
"444 377 OFFCURVE",
"444 267 QCURVE SMOOTH",
"444 246 LINE SMOOTH",
"444 149 OFFCURVE",
"370 62 OFFCURVE",
"289 62 QCURVE SMOOTH",
"219 62 OFFCURVE",
"146 167 OFFCURVE",
"146 266 QCURVE SMOOTH",
"146 365 OFFCURVE",
"220 472 OFFCURVE",
"287 472 QCURVE",
"287 472 LINE"
);
}
);
width = 615;
}
);
leftKerningGroup = g;
note = g;
unicode = 0067;
},
{
glyphname = h;
lastChange = "2020-03-26 11:01:55 +0000";
layers = (
{
layerId = "CFFEBDE4-599A-46B2-9328-D96E42CD9C81";
paths = (
{
closed = 1;
nodes = (
"85 760 LINE",
"85 0 LINE",
"173 0 LINE",
"173 277 LINE SMOOTH",
"173 371 OFFCURVE",
"240 472 OFFCURVE",
"330 472 QCURVE SMOOTH",
"450 472 OFFCURVE",
"450 343 QCURVE SMOOTH",
"450 0 LINE",
"537 0 LINE",
"537 349 LINE SMOOTH",
"537 452 OFFCURVE",
"439 545 OFFCURVE",
"341 545 QCURVE SMOOTH",
"289 545 OFFCURVE",
"200 503 OFFCURVE",
"174 462 QCURVE",
"168 462 LINE",
"173 497 OFFCURVE",
"173 537 QCURVE SMOOTH",
"173 760 LINE",
"173 760 LINE"
);
}
);
width = 618;
}
);
leftKerningGroup = b;
note = h;
rightKerningGroup = a;
unicode = 0068;
},
{
glyphname = i;
lastChange = "2020-03-26 11:01:55 +0000";
layers = (
{
layerId = "CFFEBDE4-599A-46B2-9328-D96E42CD9C81";
paths = (
{
closed = 1;
nodes = (
"108 737 OFFCURVE",
"78 710 OFFCURVE",
"78 681 QCURVE SMOOTH",
"78 653 OFFCURVE",
"108 625 OFFCURVE",
"130 625 QCURVE SMOOTH",
"150 625 OFFCURVE",
"181 653 OFFCURVE",
"181 681 QCURVE SMOOTH",
"181 710 OFFCURVE",
"150 737 OFFCURVE",
"130 737 QCURVE",
"130 737 LINE"
);
},
{
closed = 1;
nodes = (
"85 536 LINE",
"85 0 LINE",
"173 0 LINE",
"173 536 LINE",
"173 536 LINE"
);
}
);
width = 258;
}
);
note = i;
unicode = 0069;
},
{
glyphname = j;
lastChange = "2020-03-26 11:01:55 +0000";
layers = (
{
layerId = "CFFEBDE4-599A-46B2-9328-D96E42CD9C81";
paths = (
{
closed = 1;
nodes = (
"78 653 OFFCURVE",
"108 625 OFFCURVE",
"130 625 QCURVE SMOOTH",
"150 625 OFFCURVE",
"181 653 OFFCURVE",
"181 681 QCURVE SMOOTH",
"181 710 OFFCURVE",
"150 737 OFFCURVE",
"130 737 QCURVE SMOOTH",
"108 737 OFFCURVE",
"78 710 OFFCURVE",
"78 681 QCURVE",
"78 681 LINE"
);
},
{
closed = 1;
nodes = (
"101 -240 OFFCURVE",
"173 -155 OFFCURVE",
"173 -80 QCURVE SMOOTH",
"173 536 LINE",
"85 536 LINE",
"85 -83 LINE SMOOTH",
"85 -132 OFFCURVE",
"43 -167 OFFCURVE",
"11 -167 QCURVE SMOOTH",
"-8 -167 OFFCURVE",
"-40 -161 OFFCURVE",
"-55 -157 QCURVE",
"-55 -228 LINE",
"-41 -233 OFFCURVE",
"-3 -240 OFFCURVE",
"22 -240 QCURVE",
"22 -240 LINE"
);
}
);
width = 258;
}
);
note = j;
unicode = 006A;
},
{
glyphname = k;
lastChange = "2020-03-26 11:01:55 +0000";
layers = (
{
layerId = "CFFEBDE4-599A-46B2-9328-D96E42CD9C81";
paths = (
{
closed = 1;
nodes = (
"85 760 LINE",
"85 0 LINE",
"172 0 LINE",
"172 197 LINE",
"233 250 LINE",
"419 0 LINE",
"525 0 LINE",
"293 307 LINE",
"510 536 LINE",
"407 536 LINE",
"236 355 LINE SMOOTH",
"227 345 OFFCURVE",
"202 314 OFFCURVE",
"178 284 OFFCURVE",
"172 276 QCURVE",
"168 276 LINE",
"169 295 OFFCURVE",
"172 347 OFFCURVE",
"172 363 QCURVE SMOOTH",
"172 760 LINE",
"172 760 LINE"
);
}
);
width = 534;
}
);
leftKerningGroup = b;
note = k;
unicode = 006B;
},
{
glyphname = l;
lastChange = "2020-03-26 11:01:55 +0000";
layers = (
{
layerId = "CFFEBDE4-599A-46B2-9328-D96E42CD9C81";
paths = (
{
closed = 1;
nodes = (
"173 760 LINE",
"85 760 LINE",
"85 0 LINE",
"173 0 LINE",
"173 0 LINE"
);
}
);
width = 258;
}
);
leftKerningGroup = b;
note = l;
unicode = 006C;
},
{
glyphname = m;
lastChange = "2020-03-26 11:01:55 +0000";
layers = (
{
layerId = "CFFEBDE4-599A-46B2-9328-D96E42CD9C81";
paths = (
{
closed = 1;
nodes = (
"621 546 OFFCURVE",
"528 502 OFFCURVE",
"501 456 QCURVE",
"496 456 LINE",
"458 546 OFFCURVE",
"332 546 QCURVE SMOOTH",
"284 546 OFFCURVE",
"199 505 OFFCURVE",
"174 463 QCURVE",
"169 463 LINE",
"156 536 LINE",
"85 536 LINE",
"85 0 LINE",
"173 0 LINE",
"173 278 LINE SMOOTH",
"173 372 OFFCURVE",
"235 472 OFFCURVE",
"316 472 QCURVE SMOOTH",
"426 472 OFFCURVE",
"426 345 QCURVE SMOOTH",
"426 0 LINE",
"513 0 LINE",
"513 296 LINE SMOOTH",
"513 382 OFFCURVE",
"580 472 OFFCURVE",
"658 472 QCURVE SMOOTH",
"767 472 OFFCURVE",
"767 345 QCURVE SMOOTH",
"767 0 LINE",
"854 0 LINE",
"854 349 LINE SMOOTH",
"854 453 OFFCURVE",
"764 546 OFFCURVE",
"673 546 QCURVE",
"673 546 LINE"
);
}
);
width = 935;
}
);
leftKerningGroup = m;
note = m;
rightKerningGroup = a;
unicode = 006D;
},
{
glyphname = n;
lastChange = "2020-03-26 11:01:55 +0000";
layers = (
{
layerId = "CFFEBDE4-599A-46B2-9328-D96E42CD9C81";
paths = (
{
closed = 1;
nodes = (
"292 546 OFFCURVE",
"200 505 OFFCURVE",
"174 463 QCURVE",
"169 463 LINE",
"156 536 LINE",
"85 536 LINE",
"85 0 LINE",
"173 0 LINE",
"173 278 LINE SMOOTH",
"173 372 OFFCURVE",
"241 472 OFFCURVE",
"330 472 QCURVE SMOOTH",
"450 472 OFFCURVE",
"450 343 QCURVE SMOOTH",
"450 0 LINE",
"537 0 LINE",
"537 349 LINE SMOOTH",
"537 453 OFFCURVE",
"439 546 OFFCURVE",
"343 546 QCURVE",
"343 546 LINE"
);
}
);
width = 618;
}
);
leftKerningGroup = m;
note = n;
rightKerningGroup = a;
unicode = 006E;
},
{
glyphname = o;
lastChange = "2020-03-26 11:01:55 +0000";
layers = (
{
layerId = "CFFEBDE4-599A-46B2-9328-D96E42CD9C81";
paths = (
{
closed = 1;
nodes = (
"551 358 OFFCURVE",
"488 481 OFFCURVE",
"377 546 OFFCURVE",
"304 546 QCURVE SMOOTH",
"189 546 OFFCURVE",
"55 402 OFFCURVE",
"55 269 QCURVE SMOOTH",
"55 180 OFFCURVE",
"119 55 OFFCURVE",
"230 -10 OFFCURVE",
"301 -10 QCURVE SMOOTH",
"416 -10 OFFCURVE",
"551 136 OFFCURVE",
"551 269 QCURVE",
"551 269 LINE"
);
},
{
closed = 1;
nodes = (
"146 364 OFFCURVE",
"220 472 OFFCURVE",
"302 472 QCURVE SMOOTH",
"384 472 OFFCURVE",
"460 364 OFFCURVE",
"460 269 QCURVE SMOOTH",
"460 174 OFFCURVE",
"384 63 OFFCURVE",
"303 63 QCURVE SMOOTH",
"221 63 OFFCURVE",
"146 174 OFFCURVE",
"146 269 QCURVE",
"146 269 LINE"
);
}
);
width = 605;
}
);
leftKerningGroup = c;
note = o;
rightKerningGroup = b;
unicode = 006F;
},
{
glyphname = p;
lastChange = "2020-03-26 11:01:55 +0000";
layers = (
{
layerId = "CFFEBDE4-599A-46B2-9328-D96E42CD9C81";
paths = (
{
closed = 1;
nodes = (
"275 546 OFFCURVE",
"197 498 OFFCURVE",
"173 463 QCURVE",
"169 463 LINE",
"157 536 LINE",
"85 536 LINE",
"85 -240 LINE",
"173 -240 LINE",
"173 -20 LINE SMOOTH",
"173 -1 OFFCURVE",
"169 51 OFFCURVE",
"167 68 QCURVE",
"173 68 LINE",
"196 37 OFFCURVE",
"277 -10 OFFCURVE",
"339 -10 QCURVE SMOOTH",
"439 -10 OFFCURVE",
"560 132 OFFCURVE",
"560 269 QCURVE SMOOTH",
"560 408 OFFCURVE",
"439 546 OFFCURVE",
"340 546 QCURVE",
"340 546 LINE"
);
},
{
closed = 1;
nodes = (
"398 472 OFFCURVE",
"469 362 OFFCURVE",
"469 270 QCURVE SMOOTH",
"469 210 OFFCURVE",
"438 117 OFFCURVE",
"375 63 OFFCURVE",
"326 63 QCURVE SMOOTH",
"238 63 OFFCURVE",
"173 170 OFFCURVE",
"173 269 QCURVE SMOOTH",
"173 286 LINE SMOOTH",
"175 380 OFFCURVE",
"242 472 OFFCURVE",
"324 472 QCURVE",
"324 472 LINE"
);
}
);
width = 615;
}
);
leftKerningGroup = m;
note = p;
rightKerningGroup = b;
unicode = 0070;
},
{
glyphname = q;
lastChange = "2020-03-26 11:01:55 +0000";
layers = (
{
layerId = "CFFEBDE4-599A-46B2-9328-D96E42CD9C81";
paths = (
{
closed = 1;
nodes = (
"530 -240 LINE",
"530 536 LINE",
"460 536 LINE",
"447 463 LINE",
"443 463 LINE",
"419 498 OFFCURVE",
"339 546 OFFCURVE",
"276 546 QCURVE SMOOTH",
"178 546 OFFCURVE",
"55 405 OFFCURVE",
"55 267 QCURVE SMOOTH",
"55 129 OFFCURVE",
"176 -10 OFFCURVE",
"273 -10 QCURVE SMOOTH",
"337 -10 OFFCURVE",
"418 38 OFFCURVE",
"441 72 QCURVE",
"447 72 LINE",
"444 55 OFFCURVE",
"442 7 OFFCURVE",
"442 -11 QCURVE SMOOTH",
"442 -240 LINE",
"442 -240 LINE"
);
},
{
closed = 1;
nodes = (
"217 63 OFFCURVE",
"146 170 OFFCURVE",
"146 265 QCURVE SMOOTH",
"146 360 OFFCURVE",
"216 473 OFFCURVE",
"288 473 QCURVE SMOOTH",
"375 473 OFFCURVE",
"443 368 OFFCURVE",
"443 266 QCURVE SMOOTH",
"443 248 LINE SMOOTH",
"442 154 OFFCURVE",
"373 63 OFFCURVE",
"290 63 QCURVE",
"290 63 LINE"
);
}
);
width = 615;
}
);
leftKerningGroup = c;
note = q;
unicode = 0071;
},
{
glyphname = r;
lastChange = "2020-03-26 11:01:55 +0000";
layers = (
{
layerId = "CFFEBDE4-599A-46B2-9328-D96E42CD9C81";
paths = (
{
closed = 1;
nodes = (
"279 546 OFFCURVE",
"197 482 OFFCURVE",
"171 438 QCURVE",
"167 438 LINE",
"157 536 LINE",
"85 536 LINE",
"85 0 LINE",
"173 0 LINE",
"173 286 LINE SMOOTH",
"173 340 OFFCURVE",
"216 421 OFFCURVE",
"288 466 OFFCURVE",
"329 466 QCURVE SMOOTH",
"343 466 OFFCURVE",
"374 462 OFFCURVE",
"387 459 QCURVE",
"398 540 LINE",
"385 543 OFFCURVE",
"350 546 OFFCURVE",
"335 546 QCURVE",
"335 546 LINE"
);
}
);
width = 413;
}
);
leftKerningGroup = m;
note = r;
rightKerningGroup = r;
unicode = 0072;
},
{
glyphname = s;
lastChange = "2020-03-26 11:01:55 +0000";
layers = (
{
layerId = "CFFEBDE4-599A-46B2-9328-D96E42CD9C81";
paths = (
{
closed = 1;
nodes = (
"434 191 OFFCURVE",
"396 248 OFFCURVE",
"324 288 OFFCURVE",
"273 307 QCURVE SMOOTH",
"222 327 OFFCURVE",
"161 356 OFFCURVE",
"135 387 OFFCURVE",
"135 409 QCURVE SMOOTH",
"135 439 OFFCURVE",
"192 474 OFFCURVE",
"246 474 QCURVE SMOOTH",
"285 474 OFFCURVE",
"359 454 OFFCURVE",
"393 440 QCURVE",
"423 510 LINE",
"386 527 OFFCURVE",
"301 546 OFFCURVE",
"252 546 QCURVE SMOOTH",
"162 546 OFFCURVE",
"51 472 OFFCURVE",
"51 404 QCURVE SMOOTH",
"51 360 OFFCURVE",
"91 304 OFFCURVE",
"165 264 OFFCURVE",
"217 244 QCURVE SMOOTH",
"270 224 OFFCURVE",
"327 192 OFFCURVE",
"349 160 OFFCURVE",
"349 140 QCURVE SMOOTH",
"349 104 OFFCURVE",
"289 61 OFFCURVE",
"222 61 QCURVE SMOOTH",
"175 61 OFFCURVE",
"84 88 OFFCURVE",
"52 104 QCURVE",
"52 24 LINE",
"83 8 OFFCURVE",
"164 -10 OFFCURVE",
"220 -10 QCURVE SMOOTH",
"318 -10 OFFCURVE",
"434 70 OFFCURVE",
"434 148 QCURVE",
"434 148 LINE"
);
}
);
width = 479;
}
);
leftKerningGroup = s;
note = s;
unicode = 0073;
},
{
glyphname = t;
lastChange = "2020-03-26 11:01:55 +0000";
layers = (
{
layerId = "CFFEBDE4-599A-46B2-9328-D96E42CD9C81";
paths = (
{
closed = 1;
nodes = (
"227 62 OFFCURVE",
"180 109 OFFCURVE",
"180 158 QCURVE SMOOTH",
"180 468 LINE",
"335 468 LINE",
"335 536 LINE",
"180 536 LINE",
"180 659 LINE",
"128 659 LINE",
"93 545 LINE",
"16 510 LINE",
"16 468 LINE",
"92 468 LINE",
"92 156 LINE SMOOTH",
"92 91 OFFCURVE",
"136 19 OFFCURVE",
"207 -10 OFFCURVE",
"249 -10 QCURVE SMOOTH",
"273 -10 OFFCURVE",
"325 -1 OFFCURVE",
"339 6 QCURVE",
"339 73 LINE",
"326 69 OFFCURVE",
"284 62 OFFCURVE",
"264 62 QCURVE",
"264 62 LINE"
);
}
);
width = 361;
}
);
leftKerningGroup = t;
note = t;
rightKerningGroup = t;
unicode = 0074;
},
{
glyphname = u;
lastChange = "2020-03-26 11:01:55 +0000";
layers = (
{
layerId = "CFFEBDE4-599A-46B2-9328-D96E42CD9C81";
paths = (
{
closed = 1;
nodes = (
"445 536 LINE",
"445 257 LINE SMOOTH",
"445 163 OFFCURVE",
"376 63 OFFCURVE",
"287 63 QCURVE SMOOTH",
"168 63 OFFCURVE",
"168 191 QCURVE SMOOTH",
"168 536 LINE",
"79 536 LINE",
"79 185 LINE SMOOTH",
"79 83 OFFCURVE",
"177 -10 OFFCURVE",
"274 -10 QCURVE SMOOTH",
"326 -10 OFFCURVE",
"418 29 OFFCURVE",
"444 71 QCURVE",
"448 71 LINE",
"461 0 LINE",
"533 0 LINE",
"533 536 LINE",
"533 536 LINE"
);
}
);
width = 618;
}
);
leftKerningGroup = m;
note = u;
unicode = 0075;
},
{
glyphname = v;
lastChange = "2020-03-26 11:01:55 +0000";
layers = (
{
layerId = "CFFEBDE4-599A-46B2-9328-D96E42CD9C81";
paths = (
{
closed = 1;
nodes = (
"304 0 LINE",
"508 536 LINE",
"414 536 LINE",
"300 220 LINE SMOOTH",
"293 199 OFFCURVE",
"274 145 OFFCURVE",
"259 95 OFFCURVE",
"255 78 QCURVE",
"251 78 LINE",
"248 95 OFFCURVE",
"234 144 OFFCURVE",
"216 198 OFFCURVE",
"208 220 QCURVE SMOOTH",
"94 536 LINE",
"0 536 LINE",
"203 0 LINE",
"203 0 LINE"
);
}
);
width = 508;
}
);
leftKerningGroup = v;
note = v;
rightKerningGroup = v;
unicode = 0076;
},
{
glyphname = w;
lastChange = "2020-03-26 11:01:55 +0000";
layers = (
{
layerId = "CFFEBDE4-599A-46B2-9328-D96E42CD9C81";
paths = (
{
closed = 1;
nodes = (
"626 1 LINE",
"775 537 LINE",
"685 537 LINE",
"610 251 LINE SMOOTH",
"598 205 OFFCURVE",
"577 117 OFFCURVE",
"574 92 QCURVE",
"570 92 LINE",
"566 121 OFFCURVE",
"545 201 OFFCURVE",
"534 235 QCURVE SMOOTH",
"442 537 LINE",
"346 537 LINE",
"251 235 LINE SMOOTH",
"244 213 OFFCURVE",
"230 158 OFFCURVE",
"219 108 OFFCURVE",
"215 91 QCURVE",
"211 91 LINE",
"207 120 OFFCURVE",
"187 208 OFFCURVE",
"176 251 QCURVE SMOOTH",
"102 537 LINE",
"11 537 LINE",
"158 1 LINE",
"258 1 LINE",
"354 302 LINE SMOOTH",
"368 344 OFFCURVE",
"386 423 OFFCURVE",
"390 445 QCURVE",
"394 445 LINE",
"399 423 OFFCURVE",
"418 344 OFFCURVE",
"431 303 QCURVE SMOOTH",
"523 1 LINE",
"523 1 LINE"
);
}
);
width = 786;
}
);
leftKerningGroup = v;
note = w;
rightKerningGroup = v;
unicode = 0077;
},
{
glyphname = x;
lastChange = "2020-03-26 11:01:55 +0000";
layers = (
{
layerId = "CFFEBDE4-599A-46B2-9328-D96E42CD9C81";
paths = (
{
closed = 1;
nodes = (
"18 0 LINE",
"117 0 LINE",
"265 214 LINE",
"411 0 LINE",
"511 0 LINE",
"316 274 LINE",
"501 536 LINE",
"402 536 LINE",
"265 334 LINE",
"127 536 LINE",
"27 536 LINE",
"212 274 LINE",
"212 274 LINE"
);
}
);
width = 529;
}
);
leftKerningGroup = v;
note = x;
rightKerningGroup = x;
unicode = 0078;
},
{
glyphname = y;
lastChange = "2020-03-26 11:01:55 +0000";
layers = (
{
layerId = "CFFEBDE4-599A-46B2-9328-D96E42CD9C81";
paths = (
{
closed = 1;
nodes = (
"217 -2 LINE",
"189 -73 LINE SMOOTH",
"173 -116 OFFCURVE",
"116 -168 OFFCURVE",
"70 -168 QCURVE SMOOTH",
"53 -168 OFFCURVE",
"22 -164 OFFCURVE",
"11 -162 QCURVE",
"11 -232 LINE",
"24 -235 OFFCURVE",
"60 -240 OFFCURVE",
"84 -240 QCURVE SMOOTH",
"162 -240 OFFCURVE",
"251 -150 OFFCURVE",
"279 -74 QCURVE SMOOTH",
"510 536 LINE",
"415 536 LINE",
"306 232 LINE SMOOTH",
"292 191 OFFCURVE",
"266 110 OFFCURVE",
"260 85 QCURVE",
"256 85 LINE",
"250 118 OFFCURVE",
"226 191 OFFCURVE",
"211 231 QCURVE SMOOTH",
"95 536 LINE",
"1 536 LINE",
"1 536 LINE"
);
}
);
width = 600;
}
);
leftKerningGroup = v;
note = y;
rightKerningGroup = v;
unicode = 0079;
},
{
glyphname = z;
lastChange = "2020-03-26 11:01:55 +0000";
layers = (
{
layerId = "CFFEBDE4-599A-46B2-9328-D96E42CD9C81";
paths = (
{
closed = 1;
nodes = (
"431 68 LINE",
"140 68 LINE",
"424 470 LINE",
"424 536 LINE",
"56 536 LINE",
"56 468 LINE",
"327 468 LINE",
"39 58 LINE",
"39 0 LINE",
"431 0 LINE",
"431 0 LINE"
);
}
);
width = 470;
}
);
leftKerningGroup = z;
note = z;
unicode = 007A;
},
{
glyphname = zero;
lastChange = "2020-03-26 11:01:55 +0000";
layers = (
{
layerId = "CFFEBDE4-599A-46B2-9328-D96E42CD9C81";
paths = (
{
closed = 1;
nodes = (
"523 532 OFFCURVE",
"405 725 OFFCURVE",
"285 725 QCURVE SMOOTH",
"200 725 OFFCURVE",
"96 638 OFFCURVE",
"49 474 OFFCURVE",
"49 358 QCURVE SMOOTH",
"49 185 OFFCURVE",
"164 -10 OFFCURVE",
"285 -10 QCURVE SMOOTH",
"371 -10 OFFCURVE",
"475 78 OFFCURVE",
"523 243 OFFCURVE",
"523 358 QCURVE",
"523 358 LINE"
);
},
{
closed = 1;
nodes = (
"137 504 OFFCURVE",
"204 650 OFFCURVE",
"285 650 QCURVE SMOOTH",
"365 650 OFFCURVE",
"434 504 OFFCURVE",
"434 358 QCURVE SMOOTH",
"434 210 OFFCURVE",
"365 65 OFFCURVE",
"285 65 QCURVE SMOOTH",
"204 65 OFFCURVE",
"137 211 OFFCURVE",
"137 358 QCURVE",
"137 358 LINE"
);
}
);
width = 572;
}
);
note = zero;
unicode = 0030;
},
{
glyphname = one;
lastChange = "2020-03-26 11:01:55 +0000";
layers = (
{
layerId = "CFFEBDE4-599A-46B2-9328-D96E42CD9C81";
paths = (
{
closed = 1;
nodes = (
"355 714 LINE",
"282 714 LINE",
"89 564 LINE",
"135 505 LINE",
"211 567 LINE SMOOTH",
"231 584 OFFCURVE",
"257 606 OFFCURVE",
"273 622 QCURVE",
"271 594 OFFCURVE",
"269 542 OFFCURVE",
"269 499 QCURVE SMOOTH",
"269 0 LINE",
"355 0 LINE",
"355 0 LINE"
);
}
);
width = 572;
}
);
note = one;
unicode = 0031;
},
{
glyphname = two;
lastChange = "2020-03-26 11:01:55 +0000";
layers = (
{
layerId = "CFFEBDE4-599A-46B2-9328-D96E42CD9C81";
paths = (
{
closed = 1;
nodes = (
"520 80 LINE",
"159 80 LINE",
"159 84 LINE",
"308 231 LINE SMOOTH",
"363 285 OFFCURVE",
"445 380 OFFCURVE",
"491 478 OFFCURVE",
"491 534 QCURVE SMOOTH",
"491 623 OFFCURVE",
"375 724 OFFCURVE",
"275 724 QCURVE SMOOTH",
"207 724 OFFCURVE",
"98 675 OFFCURVE",
"56 640 QCURVE",
"103 581 LINE",
"144 613 OFFCURVE",
"223 649 OFFCURVE",
"275 649 QCURVE SMOOTH",
"331 649 OFFCURVE",
"401 588 OFFCURVE",
"401 529 QCURVE SMOOTH",
"401 481 OFFCURVE",
"363 400 OFFCURVE",
"289 316 OFFCURVE",
"235 262 QCURVE SMOOTH",
"48 73 LINE",
"48 0 LINE",
"520 0 LINE",
"520 0 LINE"
);
}
);
width = 572;
}
);
note = two;
unicode = 0032;
},
{
glyphname = three;
lastChange = "2020-03-26 11:01:55 +0000";
layers = (
{
layerId = "CFFEBDE4-599A-46B2-9328-D96E42CD9C81";
paths = (
{
closed = 1;
nodes = (
"493 624 OFFCURVE",
"384 724 OFFCURVE",
"272 724 QCURVE SMOOTH",
"200 724 OFFCURVE",
"87 680 OFFCURVE",
"49 650 QCURVE",
"93 590 LINE",
"133 616 OFFCURVE",
"215 650 OFFCURVE",
"273 650 QCURVE SMOOTH",
"333 650 OFFCURVE",
"403 593 OFFCURVE",
"403 541 QCURVE SMOOTH",
"403 480 OFFCURVE",
"312 406 OFFCURVE",
"224 406 QCURVE SMOOTH",
"154 406 LINE",
"154 331 LINE",
"223 331 LINE SMOOTH",
"318 331 OFFCURVE",
"423 272 OFFCURVE",
"423 205 QCURVE SMOOTH",
"423 139 OFFCURVE",
"338 64 OFFCURVE",
"242 64 QCURVE SMOOTH",
"194 64 OFFCURVE",
"90 89 OFFCURVE",
"45 111 QCURVE",
"45 29 LINE",
"89 7 OFFCURVE",
"185 -10 OFFCURVE",
"241 -10 QCURVE SMOOTH",
"336 -10 OFFCURVE",
"457 44 OFFCURVE",
"515 141 OFFCURVE",
"515 203 QCURVE SMOOTH",
"515 274 OFFCURVE",
"431 362 OFFCURVE",
"345 372 QCURVE",
"345 376 LINE",
"413 390 OFFCURVE",
"493 475 OFFCURVE",
"493 547 QCURVE",
"493 547 LINE"
);
}
);
width = 572;
}
);
note = three;
unicode = 0033;
},
{
glyphname = four;
lastChange = "2020-03-26 11:01:55 +0000";
layers = (
{
layerId = "CFFEBDE4-599A-46B2-9328-D96E42CD9C81";
paths = (
{
closed = 1;
nodes = (
"552 241 LINE",
"448 241 LINE",
"448 718 LINE",
"357 718 LINE",
"21 237 LINE",
"21 162 LINE",
"363 162 LINE",
"363 0 LINE",
"448 0 LINE",
"448 162 LINE",
"552 162 LINE",
"552 162 LINE"
);
},
{
closed = 1;
nodes = (
"107 241 LINE",
"321 546 LINE SMOOTH",
"332 561 OFFCURVE",
"356 605 OFFCURVE",
"364 624 QCURVE",
"368 624 LINE",
"367 591 OFFCURVE",
"363 518 OFFCURVE",
"363 466 QCURVE SMOOTH",
"363 241 LINE",
"363 241 LINE"
);
}
);
width = 572;
}
);
note = four;
unicode = 0034;
},
{
glyphname = five;
lastChange = "2020-03-26 11:01:55 +0000";
layers = (
{
layerId = "CFFEBDE4-599A-46B2-9328-D96E42CD9C81";
paths = (
{
closed = 1;
nodes = (
"240 438 OFFCURVE",
"182 430 OFFCURVE",
"165 427 QCURVE",
"182 634 LINE",
"465 634 LINE",
"465 714 LINE",
"107 714 LINE",
"80 377 LINE",
"124 349 LINE",
"146 354 OFFCURVE",
"218 364 OFFCURVE",
"246 364 QCURVE SMOOTH",
"339 364 OFFCURVE",
"425 289 OFFCURVE",
"425 219 QCURVE SMOOTH",
"425 140 OFFCURVE",
"328 65 OFFCURVE",
"249 65 QCURVE SMOOTH",
"202 65 OFFCURVE",
"99 90 OFFCURVE",
"63 112 QCURVE",
"63 29 LINE",
"96 10 OFFCURVE",
"193 -10 OFFCURVE",
"248 -10 QCURVE SMOOTH",
"374 -10 OFFCURVE",
"515 117 OFFCURVE",
"515 228 QCURVE SMOOTH",
"515 328 OFFCURVE",
"385 438 OFFCURVE",
"275 438 QCURVE",
"275 438 LINE"
);
}
);
width = 572;
}
);
note = five;
unicode = 0035;
},
{
glyphname = six;
lastChange = "2020-03-26 11:01:55 +0000";
layers = (
{
layerId = "CFFEBDE4-599A-46B2-9328-D96E42CD9C81";
paths = (
{
closed = 1;
nodes = (
"55 198 OFFCURVE",
"120 58 OFFCURVE",
"230 -10 OFFCURVE",
"298 -10 QCURVE SMOOTH",
"402 -10 OFFCURVE",
"525 118 OFFCURVE",
"525 230 QCURVE SMOOTH",
"525 334 OFFCURVE",
"411 447 OFFCURVE",
"318 447 QCURVE SMOOTH",
"254 447 OFFCURVE",
"172 398 OFFCURVE",
"149 363 QCURVE",
"143 363 LINE",
"146 422 OFFCURVE",
"170 526 OFFCURVE",
"223 606 OFFCURVE",
"315 652 OFFCURVE",
"384 652 QCURVE SMOOTH",
"407 652 OFFCURVE",
"452 646 OFFCURVE",
"470 640 QCURVE",
"470 715 LINE",
"454 720 OFFCURVE",
"403 724 OFFCURVE",
"382 724 QCURVE SMOOTH",
"281 724 OFFCURVE",
"153 652 OFFCURVE",
"82 531 OFFCURVE",
"55 382 OFFCURVE",
"55 305 QCURVE",
"55 305 LINE"
);
},
{
closed = 1;
nodes = (
"246 64 OFFCURVE",
"178 119 OFFCURVE",
"144 204 OFFCURVE",
"144 247 QCURVE SMOOTH",
"144 279 OFFCURVE",
"183 339 OFFCURVE",
"253 378 OFFCURVE",
"300 378 QCURVE SMOOTH",
"369 378 OFFCURVE",
"438 298 OFFCURVE",
"438 230 QCURVE SMOOTH",
"438 145 OFFCURVE",
"360 64 OFFCURVE",
"297 64 QCURVE",
"297 64 LINE"
);
}
);
width = 572;
}
);
note = six;
unicode = 0036;
},
{
glyphname = seven;
lastChange = "2020-03-26 11:01:55 +0000";
layers = (
{
layerId = "CFFEBDE4-599A-46B2-9328-D96E42CD9C81";
paths = (
{
closed = 1;
nodes = (
"233 0 LINE",
"523 646 LINE",
"523 714 LINE",
"44 714 LINE",
"44 634 LINE",
"429 634 LINE",
"136 0 LINE",
"136 0 LINE"
);
}
);
width = 572;
}
);
note = seven;
unicode = 0037;
},
{
glyphname = eight;
lastChange = "2020-03-26 11:01:55 +0000";
layers = (
{
layerId = "CFFEBDE4-599A-46B2-9328-D96E42CD9C81";
paths = (
{
closed = 1;
nodes = (
"224 724 OFFCURVE",
"128 684 OFFCURVE",
"72 609 OFFCURVE",
"72 554 QCURVE SMOOTH",
"72 488 OFFCURVE",
"145 403 OFFCURVE",
"197 373 QCURVE",
"158 355 OFFCURVE",
"90 303 OFFCURVE",
"49 231 OFFCURVE",
"49 182 QCURVE SMOOTH",
"49 91 OFFCURVE",
"173 -10 OFFCURVE",
"288 -10 QCURVE SMOOTH",
"395 -10 OFFCURVE",
"522 95 OFFCURVE",
"522 185 QCURVE SMOOTH",
"522 234 OFFCURVE",
"479 304 OFFCURVE",
"407 357 OFFCURVE",
"363 378 QCURVE",
"400 397 OFFCURVE",
"462 446 OFFCURVE",
"499 510 OFFCURVE",
"499 553 QCURVE SMOOTH",
"499 636 OFFCURVE",
"379 724 OFFCURVE",
"285 724 QCURVE",
"285 724 LINE"
);
},
{
closed = 1;
nodes = (
"342 653 OFFCURVE",
"412 600 OFFCURVE",
"412 550 QCURVE SMOOTH",
"412 496 OFFCURVE",
"341 434 OFFCURVE",
"289 412 QCURVE",
"253 428 OFFCURVE",
"193 463 OFFCURVE",
"158 513 OFFCURVE",
"158 550 QCURVE SMOOTH",
"158 600 OFFCURVE",
"229 653 OFFCURVE",
"284 653 QCURVE",
"284 653 LINE"
);
},
{
closed = 1;
nodes = (
"135 236 OFFCURVE",
"204 309 OFFCURVE",
"270 337 QCURVE",
"286 331 LINE SMOOTH",
"354 305 OFFCURVE",
"436 236 OFFCURVE",
"436 184 QCURVE SMOOTH",
"436 129 OFFCURVE",
"359 60 OFFCURVE",
"286 60 QCURVE SMOOTH",
"209 60 OFFCURVE",
"135 129 OFFCURVE",
"135 181 QCURVE",
"135 181 LINE"
);
}
);
width = 572;
}
);
note = eight;
unicode = 0038;
},
{
glyphname = nine;
lastChange = "2020-03-26 11:01:55 +0000";
layers = (
{
layerId = "CFFEBDE4-599A-46B2-9328-D96E42CD9C81";
paths = (
{
closed = 1;
nodes = (
"520 516 OFFCURVE",
"456 655 OFFCURVE",
"346 724 OFFCURVE",
"278 724 QCURVE SMOOTH",
"209 724 OFFCURVE",
"107 666 OFFCURVE",
"50 558 OFFCURVE",
"50 483 QCURVE SMOOTH",
"50 380 OFFCURVE",
"163 267 OFFCURVE",
"255 267 QCURVE SMOOTH",
"320 267 OFFCURVE",
"403 316 OFFCURVE",
"425 350 QCURVE",
"431 350 LINE",
"429 292 OFFCURVE",
"405 187 OFFCURVE",
"351 108 OFFCURVE",
"260 62 OFFCURVE",
"190 62 QCURVE SMOOTH",
"141 62 OFFCURVE",
"102 75 QCURVE",
"102 0 LINE",
"119 -5 OFFCURVE",
"172 -10 OFFCURVE",
"192 -10 QCURVE SMOOTH",
"293 -10 OFFCURVE",
"422 62 OFFCURVE",
"493 183 OFFCURVE",
"520 332 OFFCURVE",
"520 409 QCURVE",
"520 409 LINE"
);
},
{
closed = 1;
nodes = (
"329 650 OFFCURVE",
"397 594 OFFCURVE",
"431 510 OFFCURVE",
"431 467 QCURVE SMOOTH",
"431 435 OFFCURVE",
"392 375 OFFCURVE",
"322 336 OFFCURVE",
"274 336 QCURVE SMOOTH",
"204 336 OFFCURVE",
"137 415 OFFCURVE",
"137 484 QCURVE SMOOTH",
"137 568 OFFCURVE",
"216 650 OFFCURVE",
"278 650 QCURVE",
"278 650 LINE"
);
}
);
width = 572;
}
);
note = nine;
unicode = 0039;
},
{
glyphname = period;
lastChange = "2020-03-26 11:01:55 +0000";
layers = (
{
layerId = "CFFEBDE4-599A-46B2-9328-D96E42CD9C81";
paths = (
{
closed = 1;
nodes = (
"72 18 OFFCURVE",
"108 -14 OFFCURVE",
"133 -14 QCURVE SMOOTH",
"159 -14 OFFCURVE",
"196 18 OFFCURVE",
"196 54 QCURVE SMOOTH",
"196 91 OFFCURVE",
"159 121 OFFCURVE",
"133 121 QCURVE SMOOTH",
"108 121 OFFCURVE",
"72 91 OFFCURVE",
"72 54 QCURVE",
"72 54 LINE"
);
}
);
width = 268;
}
);
leftKerningGroup = comma;
note = period;
rightKerningGroup = comma;
unicode = 002E;
},
{
glyphname = comma;
lastChange = "2020-03-26 11:01:55 +0000";
layers = (
{
layerId = "CFFEBDE4-599A-46B2-9328-D96E42CD9C81";
paths = (
{
closed = 1;
nodes = (
"91 116 LINE",
"84 64 OFFCURVE",
"55 -72 OFFCURVE",
"41 -129 QCURVE",
"106 -129 LINE",
"130 -75 OFFCURVE",
"179 52 OFFCURVE",
"192 105 QCURVE",
"185 116 LINE",
"185 116 LINE"
);
}
);
width = 268;
}
);
leftKerningGroup = comma;
note = comma;
rightKerningGroup = comma;
unicode = 002C;
},
{
glyphname = hyphen;
lastChange = "2020-03-26 11:01:55 +0000";
layers = (
{
layerId = "CFFEBDE4-599A-46B2-9328-D96E42CD9C81";
paths = (
{
closed = 1;
nodes = (
"282 229 LINE",
"282 307 LINE",
"40 307 LINE",
"40 229 LINE",
"40 229 LINE"
);
}
);
width = 322;
}
);
leftKerningGroup = hyphen;
note = hyphen;
rightKerningGroup = hyphen;
unicode = 002D;
},
{
glyphname = .notdef;
lastChange = "2020-03-26 11:01:55 +0000";
layers = (
{
associatedMasterId = "CFFEBDE4-599A-46B2-9328-D96E42CD9C81";
layerId = "0A718E2F-231D-484E-9433-16A5230D2CE8";
name = Bold;
paths = (
{
closed = 1;
nodes = (
"496 0 LINE",
"496 714 LINE",
"85 714 LINE",
"85 0 LINE"
);
},
{
closed = 1;
nodes = (
"136 663 LINE",
"445 663 LINE",
"445 51 LINE",
"136 51 LINE"
);
}
);
width = 582;
},
{
associatedMasterId = "CFFEBDE4-599A-46B2-9328-D96E42CD9C81";
layerId = "98E204A9-1C79-49C7-AB3E-40A925F56409";
name = "Bold Condensed";
paths = (
{
closed = 1;
nodes = (
"496 0 LINE",
"496 714 LINE",
"85 714 LINE",
"85 0 LINE"
);
},
{
closed = 1;
nodes = (
"136 663 LINE",
"445 663 LINE",
"445 51 LINE",
"136 51 LINE"
);
}
);
width = 582;
},
{
associatedMasterId = "CFFEBDE4-599A-46B2-9328-D96E42CD9C81";
layerId = "9FF96064-8718-4A86-A5C8-73C592101F67";
name = Regular;
paths = (
{
closed = 1;
nodes = (
"505 0 LINE",
"505 714 LINE",
"94 714 LINE",
"94 0 LINE"
);
},
{
closed = 1;
nodes = (
"145 663 LINE",
"454 663 LINE",
"454 51 LINE",
"145 51 LINE"
);
}
);
width = 600;
},
{
associatedMasterId = "CFFEBDE4-599A-46B2-9328-D96E42CD9C81";
layerId = "134B12F2-BF5D-48E3-8003-C7502B438C7E";
name = SemiBold;
paths = (
{
closed = 1;
nodes = (
"505 0 LINE",
"505 714 LINE",
"94 714 LINE",
"94 0 LINE"
);
},
{
closed = 1;
nodes = (
"145 663 LINE",
"454 663 LINE",
"454 51 LINE",
"145 51 LINE"
);
}
);
width = 600;
},
{
associatedMasterId = "CFFEBDE4-599A-46B2-9328-D96E42CD9C81";
layerId = "36F3C8CB-53EE-4548-BFDE-2C03212BACAA";
name = Condensed;
paths = (
{
closed = 1;
nodes = (
"496 0 LINE",
"496 714 LINE",
"85 714 LINE",
"85 0 LINE"
);
},
{
closed = 1;
nodes = (
"136 663 LINE",
"445 663 LINE",
"445 51 LINE",
"136 51 LINE"
);
}
);
width = 595;
},
{
associatedMasterId = "CFFEBDE4-599A-46B2-9328-D96E42CD9C81";
layerId = "43B45EC1-5522-4B1A-B0C7-88628E50A583";
name = "SemiBold Condensed";
paths = (
{
closed = 1;
nodes = (
"496 0 LINE",
"496 714 LINE",
"85 714 LINE",
"85 0 LINE"
);
},
{
closed = 1;
nodes = (
"136 663 LINE",
"445 663 LINE",
"445 51 LINE",
"136 51 LINE"
);
}
);
width = 587;
},
{
layerId = "CFFEBDE4-599A-46B2-9328-D96E42CD9C81";
paths = (
{
closed = 1;
nodes = (
"505 0 LINE",
"505 714 LINE",
"94 714 LINE",
"94 0 LINE",
"94 0 LINE"
);
},
{
closed = 1;
nodes = (
"145 663 LINE",
"454 663 LINE",
"454 51 LINE",
"145 51 LINE",
"145 51 LINE"
);
}
);
userData = {
assembly = "NPUSHB[ ]	/* 39 values pushed */\0120 0 0 3 2 0 3 103 0 2 1 1 2 87 0 2 2 1 95 4 1 1 2 1 79 0 0 7 6 5 4 0 3 0 3 17 5 6 23 \012CALL[ ]	/* CallFunction */";
};
width = 600;
},
{
associatedMasterId = "CFFEBDE4-599A-46B2-9328-D96E42CD9C81";
layerId = "029FEF0C-5FA4-4A3E-AC23-838A1147A554";
name = "Light Condensed";
paths = (
{
closed = 1;
nodes = (
"496 0 LINE",
"496 714 LINE",
"85 714 LINE",
"85 0 LINE"
);
},
{
closed = 1;
nodes = (
"136 663 LINE",
"445 663 LINE",
"445 51 LINE",
"136 51 LINE"
);
}
);
width = 600;
},
{
associatedMasterId = "CFFEBDE4-599A-46B2-9328-D96E42CD9C81";
layerId = "6CD3EE05-C8AD-47E9-A0AE-B645441B0163";
name = Regular;
paths = (
{
closed = 1;
nodes = (
"496 0 LINE",
"496 714 LINE",
"85 714 LINE",
"85 0 LINE"
);
},
{
closed = 1;
nodes = (
"136 663 LINE",
"445 663 LINE",
"445 51 LINE",
"136 51 LINE"
);
}
);
width = 582;
},
{
associatedMasterId = "CFFEBDE4-599A-46B2-9328-D96E42CD9C81";
layerId = "4BA813F0-6E24-42D1-9A84-D42DCF76A6FD";
name = Regular;
paths = (
{
closed = 1;
nodes = (
"496 0 LINE",
"496 714 LINE",
"85 714 LINE",
"85 0 LINE"
);
},
{
closed = 1;
nodes = (
"136 663 LINE",
"445 663 LINE",
"445 51 LINE",
"136 51 LINE"
);
}
);
width = 582;
},
{
associatedMasterId = "CFFEBDE4-599A-46B2-9328-D96E42CD9C81";
layerId = "11C7202F-BDE1-4540-9196-841830120CA8";
name = Regular;
paths = (
{
closed = 1;
nodes = (
"505 0 LINE",
"505 714 LINE",
"94 714 LINE",
"94 0 LINE"
);
},
{
closed = 1;
nodes = (
"145 663 LINE",
"454 663 LINE",
"454 51 LINE",
"145 51 LINE"
);
}
);
width = 600;
},
{
associatedMasterId = "CFFEBDE4-599A-46B2-9328-D96E42CD9C81";
layerId = "5D16F8A9-2BA9-47A0-99C6-C9F3EBB274A0";
name = Regular;
paths = (
{
closed = 1;
nodes = (
"505 0 LINE",
"505 714 LINE",
"94 714 LINE",
"94 0 LINE"
);
},
{
closed = 1;
nodes = (
"145 663 LINE",
"454 663 LINE",
"454 51 LINE",
"145 51 LINE"
);
}
);
width = 600;
},
{
associatedMasterId = "CFFEBDE4-599A-46B2-9328-D96E42CD9C81";
layerId = "444C4D7B-BB42-46E5-A210-3251DB2C5DF7";
name = Regular;
paths = (
{
closed = 1;
nodes = (
"496 0 LINE",
"496 714 LINE",
"85 714 LINE",
"85 0 LINE"
);
},
{
closed = 1;
nodes = (
"136 663 LINE",
"445 663 LINE",
"445 51 LINE",
"136 51 LINE"
);
}
);
width = 595;
},
{
associatedMasterId = "CFFEBDE4-599A-46B2-9328-D96E42CD9C81";
layerId = "D00C89AE-1924-40D7-BCB8-50F6B6FF00C9";
name = Regular;
paths = (
{
closed = 1;
nodes = (
"496 0 LINE",
"496 714 LINE",
"85 714 LINE",
"85 0 LINE"
);
},
{
closed = 1;
nodes = (
"136 663 LINE",
"445 663 LINE",
"445 51 LINE",
"136 51 LINE"
);
}
);
width = 587;
},
{
associatedMasterId = "CFFEBDE4-599A-46B2-9328-D96E42CD9C81";
layerId = "0C04772A-F31D-4E86-90EF-3402D1EA39CA";
name = Regular;
paths = (
{
closed = 1;
nodes = (
"505 0 LINE",
"505 714 LINE",
"94 714 LINE",
"94 0 LINE"
);
},
{
closed = 1;
nodes = (
"145 663 LINE",
"454 663 LINE",
"454 51 LINE",
"145 51 LINE"
);
}
);
width = 600;
},
{
associatedMasterId = "CFFEBDE4-599A-46B2-9328-D96E42CD9C81";
layerId = "E44A1C33-4DA7-464B-9CD1-E803182C2B8E";
name = Regular;
paths = (
{
closed = 1;
nodes = (
"496 0 LINE",
"496 714 LINE",
"85 714 LINE",
"85 0 LINE"
);
},
{
closed = 1;
nodes = (
"136 663 LINE",
"445 663 LINE",
"445 51 LINE",
"136 51 LINE"
);
}
);
width = 600;
},
{
associatedMasterId = "CFFEBDE4-599A-46B2-9328-D96E42CD9C81";
layerId = "6CD769E4-BA55-4180-AEEB-BBFB0FE71E60";
name = SemiBold;
paths = (
{
closed = 1;
nodes = (
"496 0 LINE",
"496 714 LINE",
"85 714 LINE",
"85 0 LINE"
);
},
{
closed = 1;
nodes = (
"136 663 LINE",
"445 663 LINE",
"445 51 LINE",
"136 51 LINE"
);
}
);
width = 582;
},
{
associatedMasterId = "CFFEBDE4-599A-46B2-9328-D96E42CD9C81";
layerId = "B72AC865-DCE2-4021-9F6A-E52C2F7C36C3";
name = SemiBold;
paths = (
{
closed = 1;
nodes = (
"496 0 LINE",
"496 714 LINE",
"85 714 LINE",
"85 0 LINE"
);
},
{
closed = 1;
nodes = (
"136 663 LINE",
"445 663 LINE",
"445 51 LINE",
"136 51 LINE"
);
}
);
width = 582;
},
{
associatedMasterId = "CFFEBDE4-599A-46B2-9328-D96E42CD9C81";
layerId = "73144C29-A3E1-435F-A101-12EB16795B90";
name = SemiBold;
paths = (
{
closed = 1;
nodes = (
"505 0 LINE",
"505 714 LINE",
"94 714 LINE",
"94 0 LINE"
);
},
{
closed = 1;
nodes = (
"145 663 LINE",
"454 663 LINE",
"454 51 LINE",
"145 51 LINE"
);
}
);
width = 600;
},
{
associatedMasterId = "CFFEBDE4-599A-46B2-9328-D96E42CD9C81";
layerId = "18CF4588-85AB-4745-818C-09CE36B775D2";
name = SemiBold;
paths = (
{
closed = 1;
nodes = (
"505 0 LINE",
"505 714 LINE",
"94 714 LINE",
"94 0 LINE"
);
},
{
closed = 1;
nodes = (
"145 663 LINE",
"454 663 LINE",
"454 51 LINE",
"145 51 LINE"
);
}
);
width = 600;
},
{
associatedMasterId = "CFFEBDE4-599A-46B2-9328-D96E42CD9C81";
layerId = "686EB0C4-EABE-4AD7-86BC-00ECD1BF7E9E";
name = SemiBold;
paths = (
{
closed = 1;
nodes = (
"496 0 LINE",
"496 714 LINE",
"85 714 LINE",
"85 0 LINE"
);
},
{
closed = 1;
nodes = (
"136 663 LINE",
"445 663 LINE",
"445 51 LINE",
"136 51 LINE"
);
}
);
width = 595;
},
{
associatedMasterId = "CFFEBDE4-599A-46B2-9328-D96E42CD9C81";
layerId = "E5BC6AAC-6572-4494-8CA4-C3D39E7EACEC";
name = SemiBold;
paths = (
{
closed = 1;
nodes = (
"496 0 LINE",
"496 714 LINE",
"85 714 LINE",
"85 0 LINE"
);
},
{
closed = 1;
nodes = (
"136 663 LINE",
"445 663 LINE",
"445 51 LINE",
"136 51 LINE"
);
}
);
width = 587;
},
{
associatedMasterId = "CFFEBDE4-599A-46B2-9328-D96E42CD9C81";
layerId = "206B8059-80C9-426C-870D-7DCC5D63B771";
name = SemiBold;
paths = (
{
closed = 1;
nodes = (
"505 0 LINE",
"505 714 LINE",
"94 714 LINE",
"94 0 LINE"
);
},
{
closed = 1;
nodes = (
"145 663 LINE",
"454 663 LINE",
"454 51 LINE",
"145 51 LINE"
);
}
);
width = 600;
},
{
associatedMasterId = "CFFEBDE4-599A-46B2-9328-D96E42CD9C81";
layerId = "8CA70734-D081-4BD8-AD2F-7C5E13D31257";
name = SemiBold;
paths = (
{
closed = 1;
nodes = (
"496 0 LINE",
"496 714 LINE",
"85 714 LINE",
"85 0 LINE"
);
},
{
closed = 1;
nodes = (
"136 663 LINE",
"445 663 LINE",
"445 51 LINE",
"136 51 LINE"
);
}
);
width = 600;
},
{
associatedMasterId = "CFFEBDE4-599A-46B2-9328-D96E42CD9C81";
layerId = "6D228CAF-D3D7-4333-A99C-26716E667E2A";
name = Bold;
paths = (
{
closed = 1;
nodes = (
"496 0 LINE",
"496 714 LINE",
"85 714 LINE",
"85 0 LINE"
);
},
{
closed = 1;
nodes = (
"136 663 LINE",
"445 663 LINE",
"445 51 LINE",
"136 51 LINE"
);
}
);
width = 582;
},
{
associatedMasterId = "CFFEBDE4-599A-46B2-9328-D96E42CD9C81";
layerId = "0F275DA8-301B-4F20-BD77-158CA365DF6E";
name = Bold;
paths = (
{
closed = 1;
nodes = (
"496 0 LINE",
"496 714 LINE",
"85 714 LINE",
"85 0 LINE"
);
},
{
closed = 1;
nodes = (
"136 663 LINE",
"445 663 LINE",
"445 51 LINE",
"136 51 LINE"
);
}
);
width = 582;
},
{
associatedMasterId = "CFFEBDE4-599A-46B2-9328-D96E42CD9C81";
layerId = "D46BE755-DD9E-4EEB-B458-600115B36096";
name = Bold;
paths = (
{
closed = 1;
nodes = (
"505 0 LINE",
"505 714 LINE",
"94 714 LINE",
"94 0 LINE"
);
},
{
closed = 1;
nodes = (
"145 663 LINE",
"454 663 LINE",
"454 51 LINE",
"145 51 LINE"
);
}
);
width = 600;
},
{
associatedMasterId = "CFFEBDE4-599A-46B2-9328-D96E42CD9C81";
layerId = "7FE48EA0-3A2C-4D49-ABA4-E32E78AB57C1";
name = Bold;
paths = (
{
closed = 1;
nodes = (
"505 0 LINE",
"505 714 LINE",
"94 714 LINE",
"94 0 LINE"
);
},
{
closed = 1;
nodes = (
"145 663 LINE",
"454 663 LINE",
"454 51 LINE",
"145 51 LINE"
);
}
);
width = 600;
},
{
associatedMasterId = "CFFEBDE4-599A-46B2-9328-D96E42CD9C81";
layerId = "0C5F2DE2-4894-433A-AF78-14A7760305F4";
name = Bold;
paths = (
{
closed = 1;
nodes = (
"496 0 LINE",
"496 714 LINE",
"85 714 LINE",
"85 0 LINE"
);
},
{
closed = 1;
nodes = (
"136 663 LINE",
"445 663 LINE",
"445 51 LINE",
"136 51 LINE"
);
}
);
width = 595;
},
{
associatedMasterId = "CFFEBDE4-599A-46B2-9328-D96E42CD9C81";
layerId = "218C21A7-D612-4AB3-84F9-0D3A7F75CFA6";
name = Bold;
paths = (
{
closed = 1;
nodes = (
"496 0 LINE",
"496 714 LINE",
"85 714 LINE",
"85 0 LINE"
);
},
{
closed = 1;
nodes = (
"136 663 LINE",
"445 663 LINE",
"445 51 LINE",
"136 51 LINE"
);
}
);
width = 587;
},
{
associatedMasterId = "CFFEBDE4-599A-46B2-9328-D96E42CD9C81";
layerId = "3FB868F8-5CDC-4A46-BA32-95627737ABE0";
name = Bold;
paths = (
{
closed = 1;
nodes = (
"505 0 LINE",
"505 714 LINE",
"94 714 LINE",
"94 0 LINE"
);
},
{
closed = 1;
nodes = (
"145 663 LINE",
"454 663 LINE",
"454 51 LINE",
"145 51 LINE"
);
}
);
width = 600;
},
{
associatedMasterId = "CFFEBDE4-599A-46B2-9328-D96E42CD9C81";
layerId = "5BFF9FCA-B510-42EF-B974-4F4703A3DF37";
name = Bold;
paths = (
{
closed = 1;
nodes = (
"496 0 LINE",
"496 714 LINE",
"85 714 LINE",
"85 0 LINE"
);
},
{
closed = 1;
nodes = (
"136 663 LINE",
"445 663 LINE",
"445 51 LINE",
"136 51 LINE"
);
}
);
width = 600;
},
{
associatedMasterId = "CFFEBDE4-599A-46B2-9328-D96E42CD9C81";
layerId = "10F16149-C491-4EC1-A76D-4B0D82B949A8";
name = "Light Condensed";
paths = (
{
closed = 1;
nodes = (
"496 0 LINE",
"496 714 LINE",
"85 714 LINE",
"85 0 LINE"
);
},
{
closed = 1;
nodes = (
"136 663 LINE",
"445 663 LINE",
"445 51 LINE",
"136 51 LINE"
);
}
);
width = 582;
},
{
associatedMasterId = "CFFEBDE4-599A-46B2-9328-D96E42CD9C81";
layerId = "72186310-A4A1-43C8-93EC-DE7F7E0C04DC";
name = "Light Condensed";
paths = (
{
closed = 1;
nodes = (
"496 0 LINE",
"496 714 LINE",
"85 714 LINE",
"85 0 LINE"
);
},
{
closed = 1;
nodes = (
"136 663 LINE",
"445 663 LINE",
"445 51 LINE",
"136 51 LINE"
);
}
);
width = 582;
},
{
associatedMasterId = "CFFEBDE4-599A-46B2-9328-D96E42CD9C81";
layerId = "3AA2D878-A039-41E2-8382-305C1EBDDC14";
name = "Light Condensed";
paths = (
{
closed = 1;
nodes = (
"505 0 LINE",
"505 714 LINE",
"94 714 LINE",
"94 0 LINE"
);
},
{
closed = 1;
nodes = (
"145 663 LINE",
"454 663 LINE",
"454 51 LINE",
"145 51 LINE"
);
}
);
width = 600;
},
{
associatedMasterId = "CFFEBDE4-599A-46B2-9328-D96E42CD9C81";
layerId = "910244F3-C233-4E50-A821-AC6322E08668";
name = "Light Condensed";
paths = (
{
closed = 1;
nodes = (
"505 0 LINE",
"505 714 LINE",
"94 714 LINE",
"94 0 LINE"
);
},
{
closed = 1;
nodes = (
"145 663 LINE",
"454 663 LINE",
"454 51 LINE",
"145 51 LINE"
);
}
);
width = 600;
},
{
associatedMasterId = "CFFEBDE4-599A-46B2-9328-D96E42CD9C81";
layerId = "3D21177B-E83B-427F-9FBC-21300ED8A213";
name = "Light Condensed";
paths = (
{
closed = 1;
nodes = (
"496 0 LINE",
"496 714 LINE",
"85 714 LINE",
"85 0 LINE"
);
},
{
closed = 1;
nodes = (
"136 663 LINE",
"445 663 LINE",
"445 51 LINE",
"136 51 LINE"
);
}
);
width = 595;
},
{
associatedMasterId = "CFFEBDE4-599A-46B2-9328-D96E42CD9C81";
layerId = "4355EC66-3F59-4296-9F4C-72EC0B481B5D";
name = "Light Condensed";
paths = (
{
closed = 1;
nodes = (
"496 0 LINE",
"496 714 LINE",
"85 714 LINE",
"85 0 LINE"
);
},
{
closed = 1;
nodes = (
"136 663 LINE",
"445 663 LINE",
"445 51 LINE",
"136 51 LINE"
);
}
);
width = 587;
},
{
associatedMasterId = "CFFEBDE4-599A-46B2-9328-D96E42CD9C81";
layerId = "BD31AAF9-E65B-4A30-ACC0-7018B0C27C60";
name = "Light Condensed";
paths = (
{
closed = 1;
nodes = (
"505 0 LINE",
"505 714 LINE",
"94 714 LINE",
"94 0 LINE"
);
},
{
closed = 1;
nodes = (
"145 663 LINE",
"454 663 LINE",
"454 51 LINE",
"145 51 LINE"
);
}
);
width = 600;
},
{
associatedMasterId = "CFFEBDE4-599A-46B2-9328-D96E42CD9C81";
layerId = "D77228BB-6669-4F59-82EB-EFDED494D297";
name = "Light Condensed";
paths = (
{
closed = 1;
nodes = (
"496 0 LINE",
"496 714 LINE",
"85 714 LINE",
"85 0 LINE"
);
},
{
closed = 1;
nodes = (
"136 663 LINE",
"445 663 LINE",
"445 51 LINE",
"136 51 LINE"
);
}
);
width = 600;
},
{
associatedMasterId = "CFFEBDE4-599A-46B2-9328-D96E42CD9C81";
layerId = "81F4823B-D69E-4E11-86B2-52E1D1CABD54";
name = Condensed;
paths = (
{
closed = 1;
nodes = (
"496 0 LINE",
"496 714 LINE",
"85 714 LINE",
"85 0 LINE"
);
},
{
closed = 1;
nodes = (
"136 663 LINE",
"445 663 LINE",
"445 51 LINE",
"136 51 LINE"
);
}
);
width = 582;
},
{
associatedMasterId = "CFFEBDE4-599A-46B2-9328-D96E42CD9C81";
layerId = "1ACF29D9-9C6C-45FA-8C10-238DD2AA8ADF";
name = Condensed;
paths = (
{
closed = 1;
nodes = (
"496 0 LINE",
"496 714 LINE",
"85 714 LINE",
"85 0 LINE"
);
},
{
closed = 1;
nodes = (
"136 663 LINE",
"445 663 LINE",
"445 51 LINE",
"136 51 LINE"
);
}
);
width = 582;
},
{
associatedMasterId = "CFFEBDE4-599A-46B2-9328-D96E42CD9C81";
layerId = "A823C984-E080-4BD5-A1B6-02506CC81AD1";
name = Condensed;
paths = (
{
closed = 1;
nodes = (
"505 0 LINE",
"505 714 LINE",
"94 714 LINE",
"94 0 LINE"
);
},
{
closed = 1;
nodes = (
"145 663 LINE",
"454 663 LINE",
"454 51 LINE",
"145 51 LINE"
);
}
);
width = 600;
},
{
associatedMasterId = "CFFEBDE4-599A-46B2-9328-D96E42CD9C81";
layerId = "7C505BEE-2611-4A04-ABA0-64C0BA48336F";
name = Condensed;
paths = (
{
closed = 1;
nodes = (
"505 0 LINE",
"505 714 LINE",
"94 714 LINE",
"94 0 LINE"
);
},
{
closed = 1;
nodes = (
"145 663 LINE",
"454 663 LINE",
"454 51 LINE",
"145 51 LINE"
);
}
);
width = 600;
},
{
associatedMasterId = "CFFEBDE4-599A-46B2-9328-D96E42CD9C81";
layerId = "CFFC113C-B55C-44E0-A174-84F7BF124894";
name = Condensed;
paths = (
{
closed = 1;
nodes = (
"496 0 LINE",
"496 714 LINE",
"85 714 LINE",
"85 0 LINE"
);
},
{
closed = 1;
nodes = (
"136 663 LINE",
"445 663 LINE",
"445 51 LINE",
"136 51 LINE"
);
}
);
width = 595;
},
{
associatedMasterId = "CFFEBDE4-599A-46B2-9328-D96E42CD9C81";
layerId = "43D1030E-7459-4003-8CF9-EC0A1464FBD9";
name = Condensed;
paths = (
{
closed = 1;
nodes = (
"496 0 LINE",
"496 714 LINE",
"85 714 LINE",
"85 0 LINE"
);
},
{
closed = 1;
nodes = (
"136 663 LINE",
"445 663 LINE",
"445 51 LINE",
"136 51 LINE"
);
}
);
width = 587;
},
{
associatedMasterId = "CFFEBDE4-599A-46B2-9328-D96E42CD9C81";
layerId = "E193C3F6-581C-4255-BA06-39B2C55FEA85";
name = Condensed;
paths = (
{
closed = 1;
nodes = (
"505 0 LINE",
"505 714 LINE",
"94 714 LINE",
"94 0 LINE"
);
},
{
closed = 1;
nodes = (
"145 663 LINE",
"454 663 LINE",
"454 51 LINE",
"145 51 LINE"
);
}
);
width = 600;
},
{
associatedMasterId = "CFFEBDE4-599A-46B2-9328-D96E42CD9C81";
layerId = "BC1F2A7D-5C4C-489A-B80D-F8A78AA87396";
name = Condensed;
paths = (
{
closed = 1;
nodes = (
"496 0 LINE",
"496 714 LINE",
"85 714 LINE",
"85 0 LINE"
);
},
{
closed = 1;
nodes = (
"136 663 LINE",
"445 663 LINE",
"445 51 LINE",
"136 51 LINE"
);
}
);
width = 600;
},
{
associatedMasterId = "CFFEBDE4-599A-46B2-9328-D96E42CD9C81";
layerId = "4A97D365-134C-40CE-A1F4-ACEEDAC52A69";
name = Bold;
paths = (
{
closed = 1;
nodes = (
"496 0 LINE",
"496 714 LINE",
"85 714 LINE",
"85 0 LINE"
);
},
{
closed = 1;
nodes = (
"136 663 LINE",
"445 663 LINE",
"445 51 LINE",
"136 51 LINE"
);
}
);
width = 582;
},
{
associatedMasterId = "CFFEBDE4-599A-46B2-9328-D96E42CD9C81";
layerId = "E30ED5CA-5FDA-483A-B078-9F166668F082";
name = "Bold Condensed";
paths = (
{
closed = 1;
nodes = (
"496 0 LINE",
"496 714 LINE",
"85 714 LINE",
"85 0 LINE"
);
},
{
closed = 1;
nodes = (
"136 663 LINE",
"445 663 LINE",
"445 51 LINE",
"136 51 LINE"
);
}
);
width = 582;
},
{
associatedMasterId = "CFFEBDE4-599A-46B2-9328-D96E42CD9C81";
layerId = "5E9EB60B-4C02-4C45-9028-66D331043723";
name = Regular;
paths = (
{
closed = 1;
nodes = (
"505 0 LINE",
"505 714 LINE",
"94 714 LINE",
"94 0 LINE"
);
},
{
closed = 1;
nodes = (
"145 663 LINE",
"454 663 LINE",
"454 51 LINE",
"145 51 LINE"
);
}
);
width = 600;
},
{
associatedMasterId = "CFFEBDE4-599A-46B2-9328-D96E42CD9C81";
layerId = "CF4745A3-289E-483C-9D08-2C2CDA3793CE";
name = SemiBold;
paths = (
{
closed = 1;
nodes = (
"505 0 LINE",
"505 714 LINE",
"94 714 LINE",
"94 0 LINE"
);
},
{
closed = 1;
nodes = (
"145 663 LINE",
"454 663 LINE",
"454 51 LINE",
"145 51 LINE"
);
}
);
width = 600;
},
{
associatedMasterId = "CFFEBDE4-599A-46B2-9328-D96E42CD9C81";
layerId = "0007F7B2-5B0D-4ECF-8993-9E445AE70882";
name = Condensed;
paths = (
{
closed = 1;
nodes = (
"496 0 LINE",
"496 714 LINE",
"85 714 LINE",
"85 0 LINE"
);
},
{
closed = 1;
nodes = (
"136 663 LINE",
"445 663 LINE",
"445 51 LINE",
"136 51 LINE"
);
}
);
width = 595;
},
{
associatedMasterId = "CFFEBDE4-599A-46B2-9328-D96E42CD9C81";
layerId = "A6240D38-CEDA-4780-B12F-EAC7EDB843D9";
name = "SemiBold Condensed";
paths = (
{
closed = 1;
nodes = (
"496 0 LINE",
"496 714 LINE",
"85 714 LINE",
"85 0 LINE"
);
},
{
closed = 1;
nodes = (
"136 663 LINE",
"445 663 LINE",
"445 51 LINE",
"136 51 LINE"
);
}
);
width = 587;
},
{
associatedMasterId = "CFFEBDE4-599A-46B2-9328-D96E42CD9C81";
layerId = "79A278C6-3EFA-4DDB-B984-DD1D15CE97C9";
name = "Light Condensed";
paths = (
{
closed = 1;
nodes = (
"496 0 LINE",
"496 714 LINE",
"85 714 LINE",
"85 0 LINE"
);
},
{
closed = 1;
nodes = (
"136 663 LINE",
"445 663 LINE",
"445 51 LINE",
"136 51 LINE"
);
}
);
width = 600;
},
{
associatedMasterId = "CFFEBDE4-599A-46B2-9328-D96E42CD9C81";
layerId = "0F2AC913-770D-4B71-A4B9-DFCE7D340767";
name = "SemiBold Condensed";
paths = (
{
closed = 1;
nodes = (
"496 0 LINE",
"496 714 LINE",
"85 714 LINE",
"85 0 LINE"
);
},
{
closed = 1;
nodes = (
"136 663 LINE",
"445 663 LINE",
"445 51 LINE",
"136 51 LINE"
);
}
);
width = 582;
},
{
associatedMasterId = "CFFEBDE4-599A-46B2-9328-D96E42CD9C81";
layerId = "5818F93F-12B0-43EF-AE07-DE875336F2D3";
name = "SemiBold Condensed";
paths = (
{
closed = 1;
nodes = (
"496 0 LINE",
"496 714 LINE",
"85 714 LINE",
"85 0 LINE"
);
},
{
closed = 1;
nodes = (
"136 663 LINE",
"445 663 LINE",
"445 51 LINE",
"136 51 LINE"
);
}
);
width = 582;
},
{
associatedMasterId = "CFFEBDE4-599A-46B2-9328-D96E42CD9C81";
layerId = "69A75AA9-C824-4690-AF06-368352D8C4A0";
name = "SemiBold Condensed";
paths = (
{
closed = 1;
nodes = (
"505 0 LINE",
"505 714 LINE",
"94 714 LINE",
"94 0 LINE"
);
},
{
closed = 1;
nodes = (
"145 663 LINE",
"454 663 LINE",
"454 51 LINE",
"145 51 LINE"
);
}
);
width = 600;
},
{
associatedMasterId = "CFFEBDE4-599A-46B2-9328-D96E42CD9C81";
layerId = "0659F8A8-1CA7-437A-8862-AFE6849E1BC8";
name = "SemiBold Condensed";
paths = (
{
closed = 1;
nodes = (
"505 0 LINE",
"505 714 LINE",
"94 714 LINE",
"94 0 LINE"
);
},
{
closed = 1;
nodes = (
"145 663 LINE",
"454 663 LINE",
"454 51 LINE",
"145 51 LINE"
);
}
);
width = 600;
},
{
associatedMasterId = "CFFEBDE4-599A-46B2-9328-D96E42CD9C81";
layerId = "9849390B-0D5D-419F-BBF7-4CB8DF1108F4";
name = "SemiBold Condensed";
paths = (
{
closed = 1;
nodes = (
"496 0 LINE",
"496 714 LINE",
"85 714 LINE",
"85 0 LINE"
);
},
{
closed = 1;
nodes = (
"136 663 LINE",
"445 663 LINE",
"445 51 LINE",
"136 51 LINE"
);
}
);
width = 595;
},
{
associatedMasterId = "CFFEBDE4-599A-46B2-9328-D96E42CD9C81";
layerId = "435372D3-A5C6-4F91-8D68-18D24F2DC602";
name = "SemiBold Condensed";
paths = (
{
closed = 1;
nodes = (
"496 0 LINE",
"496 714 LINE",
"85 714 LINE",
"85 0 LINE"
);
},
{
closed = 1;
nodes = (
"136 663 LINE",
"445 663 LINE",
"445 51 LINE",
"136 51 LINE"
);
}
);
width = 587;
},
{
associatedMasterId = "CFFEBDE4-599A-46B2-9328-D96E42CD9C81";
layerId = "4D9C3FAB-40EB-4CCF-A752-6D6FE9920038";
name = "SemiBold Condensed";
paths = (
{
closed = 1;
nodes = (
"505 0 LINE",
"505 714 LINE",
"94 714 LINE",
"94 0 LINE"
);
},
{
closed = 1;
nodes = (
"145 663 LINE",
"454 663 LINE",
"454 51 LINE",
"145 51 LINE"
);
}
);
width = 600;
},
{
associatedMasterId = "CFFEBDE4-599A-46B2-9328-D96E42CD9C81";
layerId = "AFC07936-CFE6-40C4-A927-1C79F0D571B9";
name = "SemiBold Condensed";
paths = (
{
closed = 1;
nodes = (
"496 0 LINE",
"496 714 LINE",
"85 714 LINE",
"85 0 LINE"
);
},
{
closed = 1;
nodes = (
"136 663 LINE",
"445 663 LINE",
"445 51 LINE",
"136 51 LINE"
);
}
);
width = 600;
},
{
associatedMasterId = "CFFEBDE4-599A-46B2-9328-D96E42CD9C81";
layerId = "3DB921F2-2B03-4BC4-8509-8FCD7A6F784E";
name = "Bold Condensed";
paths = (
{
closed = 1;
nodes = (
"496 0 LINE",
"496 714 LINE",
"85 714 LINE",
"85 0 LINE"
);
},
{
closed = 1;
nodes = (
"136 663 LINE",
"445 663 LINE",
"445 51 LINE",
"136 51 LINE"
);
}
);
width = 582;
},
{
associatedMasterId = "CFFEBDE4-599A-46B2-9328-D96E42CD9C81";
layerId = "2F2377A1-11C3-41B6-919D-D55F8AA75D07";
name = "Bold Condensed";
paths = (
{
closed = 1;
nodes = (
"496 0 LINE",
"496 714 LINE",
"85 714 LINE",
"85 0 LINE"
);
},
{
closed = 1;
nodes = (
"136 663 LINE",
"445 663 LINE",
"445 51 LINE",
"136 51 LINE"
);
}
);
width = 582;
},
{
associatedMasterId = "CFFEBDE4-599A-46B2-9328-D96E42CD9C81";
layerId = "18EFA2A5-94BA-44A1-8C61-68BF4E401414";
name = "Bold Condensed";
paths = (
{
closed = 1;
nodes = (
"505 0 LINE",
"505 714 LINE",
"94 714 LINE",
"94 0 LINE"
);
},
{
closed = 1;
nodes = (
"145 663 LINE",
"454 663 LINE",
"454 51 LINE",
"145 51 LINE"
);
}
);
width = 600;
},
{
associatedMasterId = "CFFEBDE4-599A-46B2-9328-D96E42CD9C81";
layerId = "9E2FF5C0-3F8B-4CDD-8C0B-518BB51B0C53";
name = "Bold Condensed";
paths = (
{
closed = 1;
nodes = (
"505 0 LINE",
"505 714 LINE",
"94 714 LINE",
"94 0 LINE"
);
},
{
closed = 1;
nodes = (
"145 663 LINE",
"454 663 LINE",
"454 51 LINE",
"145 51 LINE"
);
}
);
width = 600;
},
{
associatedMasterId = "CFFEBDE4-599A-46B2-9328-D96E42CD9C81";
layerId = "49C7FBBB-5D49-485A-90F5-A2972E78A97C";
name = "Bold Condensed";
paths = (
{
closed = 1;
nodes = (
"496 0 LINE",
"496 714 LINE",
"85 714 LINE",
"85 0 LINE"
);
},
{
closed = 1;
nodes = (
"136 663 LINE",
"445 663 LINE",
"445 51 LINE",
"136 51 LINE"
);
}
);
width = 595;
},
{
associatedMasterId = "CFFEBDE4-599A-46B2-9328-D96E42CD9C81";
layerId = "42E87011-FEDB-43C8-99A4-706BFF7CA79F";
name = "Bold Condensed";
paths = (
{
closed = 1;
nodes = (
"496 0 LINE",
"496 714 LINE",
"85 714 LINE",
"85 0 LINE"
);
},
{
closed = 1;
nodes = (
"136 663 LINE",
"445 663 LINE",
"445 51 LINE",
"136 51 LINE"
);
}
);
width = 587;
},
{
associatedMasterId = "CFFEBDE4-599A-46B2-9328-D96E42CD9C81";
layerId = "AD6F6DAA-2D58-4E1D-98AF-ACAAF76D7B9E";
name = "Bold Condensed";
paths = (
{
closed = 1;
nodes = (
"505 0 LINE",
"505 714 LINE",
"94 714 LINE",
"94 0 LINE"
);
},
{
closed = 1;
nodes = (
"145 663 LINE",
"454 663 LINE",
"454 51 LINE",
"145 51 LINE"
);
}
);
width = 600;
},
{
associatedMasterId = "CFFEBDE4-599A-46B2-9328-D96E42CD9C81";
layerId = "001EDBC9-3154-4441-98CE-7D8995D9200E";
name = "Bold Condensed";
paths = (
{
closed = 1;
nodes = (
"496 0 LINE",
"496 714 LINE",
"85 714 LINE",
"85 0 LINE"
);
},
{
closed = 1;
nodes = (
"136 663 LINE",
"445 663 LINE",
"445 51 LINE",
"136 51 LINE"
);
}
);
width = 600;
}
);
note = .notdef;
},
{
glyphname = u1B170;
lastChange = "2020-03-26 16:42:47 +0000";
layers = (
{
layerId = "CFFEBDE4-599A-46B2-9328-D96E42CD9C81";
paths = (
{
closed = 1;
nodes = (
"270 932 LINE",
"278 838 OFFCURVE",
"282 762 OFFCURVE",
"282 649 CURVE SMOOTH",
"282 191 OFFCURVE",
"206 -24 OFFCURVE",
"-1 -238 CURVE",
"60 -293 LINE",
"281 -62 OFFCURVE",
"368 180 OFFCURVE",
"368 653 CURVE SMOOTH",
"368 770 OFFCURVE",
"362 851 OFFCURVE",
"354 939 CURVE"
);
}
);
vertOrigin = 90;
vertWidth = 1312;
width = 428;
}
);
unicode = 1B170;
},
{
glyphname = u1B171;
lastChange = "2020-03-26 16:43:58 +0000";
layers = (
{
background = {
paths = (
{
closed = 1;
nodes = (
"377 1074 LINE",
"382 990 OFFCURVE",
"384 912 OFFCURVE",
"384 839 CURVE SMOOTH",
"384 168 OFFCURVE",
"275 -69 OFFCURVE",
"37 -268 CURVE",
"97 -325 LINE",
"349 -109 OFFCURVE",
"470 157 OFFCURVE",
"470 843 CURVE SMOOTH",
"470 917 OFFCURVE",
"466 1001 OFFCURVE",
"461 1079 CURVE"
);
}
);
};
guideLines = (
{
angle = 90;
locked = 1;
position = "{310, 490}";
}
);
layerId = "CFFEBDE4-599A-46B2-9328-D96E42CD9C81";
paths = (
{
closed = 1;
nodes = (
"273 368 OFFCURVE",
"190 172 OFFCURVE",
"9 -28 CURVE",
"70 -82 LINE",
"269 134 OFFCURVE",
"359 362 OFFCURVE",
"359 654 CURVE SMOOTH",
"359 756 OFFCURVE",
"353 846 OFFCURVE",
"340 939 CURVE",
"256 932 LINE",
"269 837 OFFCURVE",
"273 765 OFFCURVE",
"273 652 CURVE SMOOTH"
);
},
{
closed = 1;
nodes = (
"388 184 LINE",
"320 10 OFFCURVE",
"227 -124 OFFCURVE",
"102 -236 CURVE",
"158 -293 LINE",
"288 -177 OFFCURVE",
"383 -34 OFFCURVE",
"465 149 CURVE"
);
}
);
vertOrigin = 90;
vertWidth = 1312;
width = 478;
}
);
unicode = 1B171;
},
{
glyphname = u1B172;
lastChange = "2020-03-26 16:44:33 +0000";
layers = (
{
background = {
components = (
{
name = u1B170;
}
);
};
guideLines = (
{
angle = 90;
locked = 1;
position = "{250, 490}";
}
);
layerId = "CFFEBDE4-599A-46B2-9328-D96E42CD9C81";
paths = (
{
closed = 1;
nodes = (
"415 939 LINE",
"388 789 OFFCURVE",
"344 647 OFFCURVE",
"297 522 CURVE",
"285 489 LINE",
"221 339 OFFCURVE",
"143 206 OFFCURVE",
"59 91 CURVE",
"125 43 LINE",
"211 156 OFFCURVE",
"284 281 OFFCURVE",
"344 421 CURVE",
"353 446 LINE",
"415 591 OFFCURVE",
"463 749 OFFCURVE",
"498 924 CURVE"
);
},
{
closed = 1;
nodes = (
"325 451 OFFCURVE",
"395 311 OFFCURVE",
"395 115 CURVE SMOOTH",
"395 1 OFFCURVE",
"359 -108 OFFCURVE",
"278 -255 CURVE",
"348 -293 LINE",
"438 -144 OFFCURVE",
"480 -20 OFFCURVE",
"480 125 CURVE SMOOTH",
"480 320 OFFCURVE",
"402 496 OFFCURVE",
"92 747 CURVE",
"41 683 LINE"
);
}
);
vertOrigin = 90;
vertWidth = 1312;
width = 555;
}
);
unicode = 1B172;
},
{
glyphname = u1B173;
lastChange = "2020-03-26 16:45:15 +0000";
layers = (
{
guideLines = (
{
angle = 90;
locked = 1;
position = "{240, 490}";
}
);
layerId = "CFFEBDE4-599A-46B2-9328-D96E42CD9C81";
paths = (
{
closed = 1;
nodes = (
"258 393 LINE",
"320 254 OFFCURVE",
"347 155 OFFCURVE",
"347 -4 CURVE SMOOTH",
"347 -111 OFFCURVE",
"341 -175 OFFCURVE",
"319 -280 CURVE",
"400 -293 LINE",
"421 -194 OFFCURVE",
"433 -111 OFFCURVE",
"433 -11 CURVE SMOOTH",
"433 182 OFFCURVE",
"392 322 OFFCURVE",
"274 525 CURVE"
);
},
{
closed = 1;
nodes = (
"230 833 OFFCURVE",
"234 751 OFFCURVE",
"234 652 CURVE SMOOTH",
"234 402 OFFCURVE",
"161 232 OFFCURVE",
"0 40 CURVE",
"61 -13 LINE",
"246 189 OFFCURVE",
"320 383 OFFCURVE",
"320 652 CURVE SMOOTH",
"320 765 OFFCURVE",
"310 855 OFFCURVE",
"298 939 CURVE",
"216 931 LINE"
);
}
);
vertOrigin = 90;
vertWidth = 1312;
width = 483;
}
);
unicode = 1B173;
},
{
glyphname = u1B174;
lastChange = "2020-03-26 16:46:13 +0000";
layers = (
{
guideLines = (
{
angle = 90;
locked = 1;
position = "{320, 490}";
}
);
layerId = "CFFEBDE4-599A-46B2-9328-D96E42CD9C81";
paths = (
{
closed = 1;
nodes = (
"121 442 OFFCURVE",
"157 281 OFFCURVE",
"157 112 CURVE SMOOTH",
"157 -21 OFFCURVE",
"130 -140 OFFCURVE",
"78 -264 CURVE",
"155 -293 LINE",
"216 -155 OFFCURVE",
"241 -34 OFFCURVE",
"241 112 CURVE SMOOTH",
"241 300 OFFCURVE",
"208 455 OFFCURVE",
"122 661 CURVE",
"45 627 LINE"
);
},
{
closed = 1;
nodes = (
"437 279 OFFCURVE",
"392 415 OFFCURVE",
"392 579 CURVE SMOOTH",
"392 692 OFFCURVE",
"403 794 OFFCURVE",
"434 923 CURVE",
"352 939 LINE",
"322 812 OFFCURVE",
"308 710 OFFCURVE",
"308 594 CURVE SMOOTH",
"308 405 OFFCURVE",
"357 241 OFFCURVE",
"465 90 CURVE",
"531 139 LINE"
);
}
);
vertOrigin = 90;
vertWidth = 1312;
width = 575;
}
);
unicode = 1B174;
},
{
glyphname = u1B175;
lastChange = "2020-03-26 16:46:41 +0000";
layers = (
{
layerId = "CFFEBDE4-599A-46B2-9328-D96E42CD9C81";
paths = (
{
closed = 1;
nodes = (
"544 -125 LINE",
"493 41 OFFCURVE",
"429 195 OFFCURVE",
"350 341 CURVE",
"326 375 LINE",
"258 498 OFFCURVE",
"176 616 OFFCURVE",
"86 731 CURVE",
"20 679 LINE",
"118 554 OFFCURVE",
"206 417 OFFCURVE",
"280 273 CURVE",
"304 235 LINE",
"368 106 OFFCURVE",
"423 -18 OFFCURVE",
"465 -152 CURVE"
);
},
{
closed = 1;
nodes = (
"427 939 LINE",
"358 525 OFFCURVE",
"251 149 OFFCURVE",
"46 -259 CURVE",
"120 -293 LINE",
"330 111 OFFCURVE",
"441 491 OFFCURVE",
"512 927 CURVE"
);
}
);
vertOrigin = 90;
vertWidth = 1312;
width = 573;
}
);
unicode = 1B175;
},
{
glyphname = u1B176;
lastChange = "2020-03-26 16:47:11 +0000";
layers = (
{
guideLines = (
{
angle = 90;
locked = 1;
position = "{213, 490}";
}
);
layerId = "CFFEBDE4-599A-46B2-9328-D96E42CD9C81";
paths = (
{
closed = 1;
nodes = (
"222 727 OFFCURVE",
"255 578 OFFCURVE",
"255 367 CURVE SMOOTH",
"255 116 OFFCURVE",
"183 -65 OFFCURVE",
"31 -243 CURVE",
"94 -293 LINE",
"272 -103 OFFCURVE",
"341 110 OFFCURVE",
"341 368 CURVE SMOOTH",
"341 585 OFFCURVE",
"301 759 OFFCURVE",
"221 939 CURVE",
"142 910 LINE"
);
},
{
closed = 1;
nodes = (
"90 286 OFFCURVE",
"113 303 OFFCURVE",
"113 342 CURVE SMOOTH",
"113 381 OFFCURVE",
"90 398 OFFCURVE",
"62 398 CURVE SMOOTH",
"33 398 OFFCURVE",
"10 381 OFFCURVE",
"10 342 CURVE SMOOTH",
"10 303 OFFCURVE",
"33 286 OFFCURVE",
"62 286 CURVE SMOOTH"
);
}
);
vertOrigin = 90;
vertWidth = 1312;
width = 398;
}
);
unicode = 1B176;
},
{
glyphname = u1B177;
lastChange = "2020-03-26 16:47:31 +0000";
layers = (
{
background = {
paths = (
{
closed = 1;
nodes = (
"342 -133 OFFCURVE",
"271 48 OFFCURVE",
"209 277 CURVE SMOOTH",
"119 609 OFFCURVE",
"178 828 OFFCURVE",
"343 1040 CURVE",
"270 1079 LINE",
"91 848 OFFCURVE",
"32 602 OFFCURVE",
"128 246 CURVE SMOOTH",
"193 6 OFFCURVE",
"269 -183 OFFCURVE",
"368 -350 CURVE",
"445 -318 LINE"
);
}
);
};
guideLines = (
{
angle = 90;
locked = 1;
position = "{310, 490}";
}
);
layerId = "CFFEBDE4-599A-46B2-9328-D96E42CD9C81";
paths = (
{
closed = 1;
nodes = (
"187 939 LINE",
"102 760 OFFCURVE",
"60 576 OFFCURVE",
"60 378 CURVE SMOOTH",
"60 103 OFFCURVE",
"137 -97 OFFCURVE",
"284 -293 CURVE",
"351 -249 LINE",
"217 -50 OFFCURVE",
"146 131 OFFCURVE",
"146 377 CURVE SMOOTH",
"146 580 OFFCURVE",
"188 749 OFFCURVE",
"266 909 CURVE"
);
},
{
closed = 1;
nodes = (
"308 428 OFFCURVE",
"285 411 OFFCURVE",
"285 372 CURVE SMOOTH",
"285 333 OFFCURVE",
"308 316 OFFCURVE",
"336 316 CURVE SMOOTH",
"365 316 OFFCURVE",
"388 333 OFFCURVE",
"388 372 CURVE SMOOTH",
"388 411 OFFCURVE",
"365 428 OFFCURVE",
"336 428 CURVE SMOOTH"
);
}
);
vertOrigin = 90;
vertWidth = 1312;
width = 398;
}
);
unicode = 1B177;
},
{
glyphname = u1B178;
lastChange = "2020-03-26 16:48:11 +0000";
layers = (
{
guideLines = (
{
angle = 90;
locked = 1;
position = "{375, 490}";
}
);
layerId = "CFFEBDE4-599A-46B2-9328-D96E42CD9C81";
paths = (
{
closed = 1;
nodes = (
"140 341 LINE",
"133 176 OFFCURVE",
"98 85 OFFCURVE",
"0 -11 CURVE",
"58 -68 LINE",
"186 54 OFFCURVE",
"215 165 OFFCURVE",
"222 338 CURVE"
);
},
{
closed = 1;
nodes = (
"501 140 OFFCURVE",
"482 47 OFFCURVE",
"482 -57 CURVE SMOOTH",
"482 -135 OFFCURVE",
"495 -206 OFFCURVE",
"523 -283 CURVE",
"600 -258 LINE",
"579 -194 OFFCURVE",
"566 -116 OFFCURVE",
"566 -50 CURVE SMOOTH",
"566 45 OFFCURVE",
"582 122 OFFCURVE",
"629 232 CURVE",
"551 259 LINE"
);
},
{
closed = 1;
nodes = (
"329 932 LINE",
"345 768 OFFCURVE",
"350 633 OFFCURVE",
"350 453 CURVE SMOOTH",
"350 122 OFFCURVE",
"275 -78 OFFCURVE",
"116 -238 CURVE",
"177 -293 LINE",
"350 -116 OFFCURVE",
"436 111 OFFCURVE",
"436 457 CURVE SMOOTH",
"436 642 OFFCURVE",
"426 803 OFFCURVE",
"412 939 CURVE"
);
}
);
vertOrigin = 90;
vertWidth = 1312;
width = 639;
}
);
unicode = 1B178;
},
{
glyphname = u1B179;
lastChange = "2020-03-26 17:46:47 +0000";
layers = (
{
background = {
paths = (
{
closed = 1;
nodes = (
"391 968 OFFCURVE",
"397 873 OFFCURVE",
"397 737 CURVE SMOOTH",
"397 266 OFFCURVE",
"293 -24 OFFCURVE",
"47 -268 CURVE",
"107 -325 LINE",
"372 -67 OFFCURVE",
"483 250 OFFCURVE",
"483 738 CURVE SMOOTH",
"483 863 OFFCURVE",
"476 978 OFFCURVE",
"459 1079 CURVE",
"374 1069 LINE"
);
}
);
};
guideLines = (
{
angle = 90;
locked = 1;
position = "{295, 490}";
}
);
layerId = "CFFEBDE4-599A-46B2-9328-D96E42CD9C81";
paths = (
{
closed = 1;
nodes = (
"425 939 LINE",
"296 747 OFFCURVE",
"168 611 OFFCURVE",
"0 459 CURVE",
"54 396 LINE",
"228 546 OFFCURVE",
"362 687 OFFCURVE",
"498 895 CURVE"
);
},
{
closed = 1;
nodes = (
"407 714 OFFCURVE",
"431 666 OFFCURVE",
"431 603 CURVE SMOOTH",
"431 474 OFFCURVE",
"342 368 OFFCURVE",
"61 139 CURVE",
"114 74 LINE",
"424 311 OFFCURVE",
"517 449 OFFCURVE",
"517 603 CURVE SMOOTH",
"517 693 OFFCURVE",
"477 765 OFFCURVE",
"403 844 CURVE",
"354 773 LINE"
);
},
{
closed = 1;
nodes = (
"316 302 LINE",
"334 172 OFFCURVE",
"342 83 OFFCURVE",
"342 -51 CURVE SMOOTH",
"342 -139 OFFCURVE",
"339 -201 OFFCURVE",
"329 -284 CURVE",
"413 -293 LINE",
"424 -204 OFFCURVE",
"428 -126 OFFCURVE",
"428 -39 CURVE SMOOTH",
"428 68 OFFCURVE",
"417 190 OFFCURVE",
"382 347 CURVE"
);
}
);
vertOrigin = 90;
vertWidth = 1312;
width = 557;
}
);
unicode = 1B179;
},
{
glyphname = u1B17A;
lastChange = "2020-03-26 16:49:55 +0000";
layers = (
{
guideLines = (
{
angle = 90;
locked = 1;
position = "{325, 490}";
}
);
layerId = "CFFEBDE4-599A-46B2-9328-D96E42CD9C81";
paths = (
{
closed = 1;
nodes = (
"277 338 LINE",
"294 235 OFFCURVE",
"301 146 OFFCURVE",
"301 48 CURVE SMOOTH",
"301 -75 OFFCURVE",
"296 -171 OFFCURVE",
"276 -280 CURVE",
"359 -293 LINE",
"380 -176 OFFCURVE",
"387 -76 OFFCURVE",
"387 41 CURVE SMOOTH",
"387 148 OFFCURVE",
"377 245 OFFCURVE",
"358 350 CURVE"
);
},
{
closed = 1;
nodes = (
"345 939 LINE",
"298 685 OFFCURVE",
"206 464 OFFCURVE",
"31 220 CURVE",
"102 172 LINE",
"276 416 OFFCURVE",
"378 651 OFFCURVE",
"430 926 CURVE"
);
},
{
closed = 1;
nodes = (
"181 583 OFFCURVE",
"334 468 OFFCURVE",
"477 321 CURVE",
"534 386 LINE",
"375 544 OFFCURVE",
"235 645 OFFCURVE",
"38 746 CURVE",
"0 668 LINE"
);
}
);
vertOrigin = 90;
vertWidth = 1312;
width = 535;
}
);
unicode = 1B17A;
},
{
glyphname = u1B17B;
lastChange = "2020-03-26 16:50:47 +0000";
layers = (
{
layerId = "CFFEBDE4-599A-46B2-9328-D96E42CD9C81";
paths = (
{
closed = 1;
nodes = (
"361 939 LINE",
"280 668 OFFCURVE",
"196 484 OFFCURVE",
"38 283 CURVE",
"105 230 LINE",
"260 428 OFFCURVE",
"358 640 OFFCURVE",
"445 918 CURVE"
);
},
{
closed = 1;
nodes = (
"34 791 LINE",
"228 450 OFFCURVE",
"381 75 OFFCURVE",
"494 -293 CURVE",
"574 -268 LINE",
"466 105 OFFCURVE",
"305 480 OFFCURVE",
"108 835 CURVE"
);
},
{
closed = 1;
nodes = (
"319 238 LINE",
"253 102 OFFCURVE",
"188 -4 OFFCURVE",
"86 -135 CURVE",
"154 -188 LINE",
"251 -64 OFFCURVE",
"309 38 OFFCURVE",
"378 195 CURVE"
);
}
);
vertOrigin = 90;
vertWidth = 1312;
width = 566;
}
);
unicode = 1B17B;
},
{
glyphname = u1B17C;
lastChange = "2020-03-26 17:02:30 +0000";
layers = (
{
layerId = "CFFEBDE4-599A-46B2-9328-D96E42CD9C81";
paths = (
{
closed = 1;
nodes = (
"25 441 LINE",
"152 257 OFFCURVE",
"257 85 OFFCURVE",
"374 -150 CURVE",
"450 -111 LINE",
"327 132 OFFCURVE",
"212 319 OFFCURVE",
"74 521 CURVE",
"86 445 LINE",
"163 586 OFFCURVE",
"234 744 OFFCURVE",
"284 920 CURVE",
"200 939 LINE",
"151 771 OFFCURVE",
"86 632 OFFCURVE",
"25 512 CURVE"
);
},
{
closed = 1;
nodes = (
"265 687 OFFCURVE",
"298 598 OFFCURVE",
"298 492 CURVE SMOOTH",
"298 308 OFFCURVE",
"230 131 OFFCURVE",
"23 -252 CURVE",
"96 -293 LINE",
"306 80 OFFCURVE",
"384 308 OFFCURVE",
"384 492 CURVE SMOOTH",
"384 620 OFFCURVE",
"342 730 OFFCURVE",
"239 879 CURVE",
"204 780 LINE"
);
}
);
vertOrigin = 90;
vertWidth = 1312;
width = 476;
}
);
unicode = 1B17C;
},
{
glyphname = u1B17D;
lastChange = "2020-03-26 17:01:14 +0000";
layers = (
{
background = {
paths = (
{
closed = 1;
nodes = (
"268 383 LINE",
"327 247 OFFCURVE",
"357 138 OFFCURVE",
"357 -4 CURVE SMOOTH",
"357 -91 OFFCURVE",
"347 -177 OFFCURVE",
"327 -277 CURVE",
"410 -293 LINE",
"435 -184 OFFCURVE",
"443 -95 OFFCURVE",
"443 -11 CURVE SMOOTH",
"443 182 OFFCURVE",
"394 322 OFFCURVE",
"284 525 CURVE"
);
},
{
closed = 1;
nodes = (
"238 832 OFFCURVE",
"244 751 OFFCURVE",
"244 639 CURVE SMOOTH",
"244 402 OFFCURVE",
"171 232 OFFCURVE",
"10 40 CURVE",
"72 -10 LINE",
"251 192 OFFCURVE",
"330 383 OFFCURVE",
"330 652 CURVE SMOOTH",
"330 765 OFFCURVE",
"320 855 OFFCURVE",
"308 939 CURVE",
"224 930 LINE"
);
}
);
};
layerId = "CFFEBDE4-599A-46B2-9328-D96E42CD9C81";
paths = (
{
closed = 1;
nodes = (
"258 395 LINE",
"304 278 OFFCURVE",
"332 149 OFFCURVE",
"332 -12 CURVE SMOOTH",
"332 -110 OFFCURVE",
"323 -197 OFFCURVE",
"309 -282 CURVE",
"393 -293 LINE",
"409 -207 OFFCURVE",
"418 -110 OFFCURVE",
"418 0 CURVE SMOOTH",
"418 193 OFFCURVE",
"380 346 OFFCURVE",
"284 550 CURVE"
);
},
{
closed = 1;
nodes = (
"236 852 OFFCURVE",
"241 793 OFFCURVE",
"241 713 CURVE SMOOTH",
"241 420 OFFCURVE",
"149 237 OFFCURVE",
"0 45 CURVE",
"62 -10 LINE",
"229 192 OFFCURVE",
"327 401 OFFCURVE",
"327 732 CURVE SMOOTH",
"327 807 OFFCURVE",
"321 868 OFFCURVE",
"311 939 CURVE",
"227 929 LINE"
);
},
{
closed = 1;
nodes = (
"598 159 OFFCURVE",
"621 176 OFFCURVE",
"621 215 CURVE SMOOTH",
"621 254 OFFCURVE",
"598 271 OFFCURVE",
"570 271 CURVE SMOOTH",
"541 271 OFFCURVE",
"518 254 OFFCURVE",
"518 215 CURVE SMOOTH",
"518 176 OFFCURVE",
"541 159 OFFCURVE",
"570 159 CURVE SMOOTH"
);
}
);
vertOrigin = 90;
vertWidth = 1312;
width = 631;
}
);
unicode = 1B17D;
},
{
glyphname = u1B17E;
lastChange = "2020-03-26 17:00:48 +0000";
layers = (
{
layerId = "CFFEBDE4-599A-46B2-9328-D96E42CD9C81";
paths = (
{
closed = 1;
nodes = (
"354 939 LINE",
"271 765 OFFCURVE",
"174 639 OFFCURVE",
"47 520 CURVE",
"85 375 OFFCURVE",
"98 271 OFFCURVE",
"98 135 CURVE SMOOTH",
"98 -21 OFFCURVE",
"78 -127 OFFCURVE",
"31 -267 CURVE",
"112 -293 LINE",
"166 -145 OFFCURVE",
"184 -23 OFFCURVE",
"184 129 CURVE SMOOTH",
"184 271 OFFCURVE",
"168 388 OFFCURVE",
"130 538 CURVE",
"125 474 LINE",
"248 588 OFFCURVE",
"345 721 OFFCURVE",
"431 903 CURVE"
);
},
{
closed = 1;
nodes = (
"465 243 LINE",
"446 459 OFFCURVE",
"397 602 OFFCURVE",
"310 777 CURVE",
"267 673 LINE",
"328 540 OFFCURVE",
"362 416 OFFCURVE",
"380 234 CURVE"
);
}
);
vertOrigin = 90;
vertWidth = 1312;
width = 485;
}
);
unicode = 1B17E;
},
{
glyphname = u1B17F;
lastChange = "2020-03-26 13:42:15 +0000";
layers = (
{
layerId = "CFFEBDE4-599A-46B2-9328-D96E42CD9C81";
paths = (
{
closed = 1;
nodes = (
"260 932 LINE",
"268 838 OFFCURVE",
"272 762 OFFCURVE",
"272 649 CURVE SMOOTH",
"272 191 OFFCURVE",
"202 -23 OFFCURVE",
"25 -237 CURVE",
"90 -293 LINE",
"281 -62 OFFCURVE",
"358 180 OFFCURVE",
"358 653 CURVE SMOOTH",
"358 770 OFFCURVE",
"353 851 OFFCURVE",
"345 939 CURVE"
);
},
{
closed = 1;
nodes = (
"100 214 OFFCURVE",
"123 231 OFFCURVE",
"123 270 CURVE SMOOTH",
"123 309 OFFCURVE",
"100 326 OFFCURVE",
"72 326 CURVE SMOOTH",
"43 326 OFFCURVE",
"20 309 OFFCURVE",
"20 270 CURVE SMOOTH",
"20 231 OFFCURVE",
"43 214 OFFCURVE",
"72 214 CURVE SMOOTH"
);
},
{
closed = 1;
nodes = (
"497 -28 OFFCURVE",
"520 -11 OFFCURVE",
"520 28 CURVE SMOOTH",
"520 67 OFFCURVE",
"497 84 OFFCURVE",
"469 84 CURVE SMOOTH",
"440 84 OFFCURVE",
"417 67 OFFCURVE",
"417 28 CURVE SMOOTH",
"417 -11 OFFCURVE",
"440 -28 OFFCURVE",
"469 -28 CURVE SMOOTH"
);
}
);
vertOrigin = 90;
vertWidth = 1312;
width = 540;
}
);
unicode = 1B17F;
},
{
glyphname = u1B180;
lastChange = "2020-03-26 16:58:13 +0000";
layers = (
{
layerId = "CFFEBDE4-599A-46B2-9328-D96E42CD9C81";
paths = (
{
closed = 1;
nodes = (
"424 939 LINE",
"330 606 OFFCURVE",
"199 344 OFFCURVE",
"10 112 CURVE",
"77 58 LINE",
"266 286 OFFCURVE",
"414 586 OFFCURVE",
"507 915 CURVE"
);
},
{
closed = 1;
nodes = (
"531 337 LINE",
"435 120 OFFCURVE",
"302 -75 OFFCURVE",
"158 -238 CURVE",
"224 -293 LINE",
"383 -104 OFFCURVE",
"504 66 OFFCURVE",
"610 299 CURVE"
);
},
{
closed = 1;
nodes = (
"419 -7 LINE",
"336 289 OFFCURVE",
"269 507 OFFCURVE",
"141 768 CURVE",
"64 726 LINE",
"187 473 OFFCURVE",
"263 245 OFFCURVE",
"340 -39 CURVE"
);
}
);
vertOrigin = 90;
vertWidth = 1312;
width = 610;
}
);
unicode = 1B180;
},
{
glyphname = u1B181;
lastChange = "2020-03-26 16:56:43 +0000";
layers = (
{
layerId = "CFFEBDE4-599A-46B2-9328-D96E42CD9C81";
paths = (
{
closed = 1;
nodes = (
"66 289 LINE",
"209 99 OFFCURVE",
"295 -80 OFFCURVE",
"361 -293 CURVE",
"441 -269 LINE",
"369 -38 OFFCURVE",
"269 147 OFFCURVE",
"121 362 CURVE",
"122 287 LINE",
"250 498 OFFCURVE",
"332 684 OFFCURVE",
"393 924 CURVE",
"310 939 LINE",
"253 714 OFFCURVE",
"176 533 OFFCURVE",
"66 360 CURVE"
);
},
{
closed = 1;
nodes = (
"276 577 OFFCURVE",
"324 431 OFFCURVE",
"324 326 CURVE SMOOTH",
"324 176 OFFCURVE",
"246 47 OFFCURVE",
"61 -158 CURVE",
"123 -211 LINE",
"310 -14 OFFCURVE",
"408 148 OFFCURVE",
"408 326 CURVE SMOOTH",
"408 481 OFFCURVE",
"330 637 OFFCURVE",
"95 816 CURVE",
"44 749 LINE"
);
}
);
vertOrigin = 90;
vertWidth = 1312;
width = 474;
}
);
unicode = 1B181;
},
{
glyphname = u1B182;
lastChange = "2020-03-26 16:55:53 +0000";
layers = (
{
layerId = "CFFEBDE4-599A-46B2-9328-D96E42CD9C81";
paths = (
{
closed = 1;
nodes = (
"175 387 LINE",
"255 535 OFFCURVE",
"308 682 OFFCURVE",
"368 925 CURVE",
"283 939 LINE",
"231 714 OFFCURVE",
"179 571 OFFCURVE",
"118 456 CURVE"
);
},
{
closed = 1;
nodes = (
"331 644 OFFCURVE",
"356 565 OFFCURVE",
"356 460 CURVE SMOOTH",
"356 281 OFFCURVE",
"300 100 OFFCURVE",
"76 -248 CURVE",
"147 -293 LINE",
"386 74 OFFCURVE",
"442 266 OFFCURVE",
"442 453 CURVE SMOOTH",
"442 590 OFFCURVE",
"406 687 OFFCURVE",
"323 819 CURVE",
"265 770 LINE"
);
},
{
closed = 1;
nodes = (
"0 528 LINE",
"163 294 OFFCURVE",
"294 69 OFFCURVE",
"417 -193 CURVE",
"492 -156 LINE",
"363 120 OFFCURVE",
"231 339 OFFCURVE",
"66 579 CURVE"
);
}
);
vertOrigin = 90;
vertWidth = 1312;
width = 523;
}
);
unicode = 1B182;
},
{
glyphname = u1B183;
lastChange = "2020-03-26 16:54:38 +0000";
layers = (
{
background = {
paths = (
{
closed = 1;
nodes = (
"394 939 LINE",
"300 606 OFFCURVE",
"189 344 OFFCURVE",
"0 112 CURVE",
"64 59 LINE",
"253 287 OFFCURVE",
"383 586 OFFCURVE",
"476 915 CURVE"
);
},
{
closed = 1;
nodes = (
"503 337 LINE",
"407 120 OFFCURVE",
"293 -79 OFFCURVE",
"149 -242 CURVE",
"214 -293 LINE",
"373 -104 OFFCURVE",
"474 66 OFFCURVE",
"580 299 CURVE"
);
},
{
closed = 1;
nodes = (
"399 -17 LINE",
"316 279 OFFCURVE",
"249 497 OFFCURVE",
"121 758 CURVE",
"44 716 LINE",
"167 463 OFFCURVE",
"243 235 OFFCURVE",
"320 -49 CURVE"
);
}
);
};
layerId = "CFFEBDE4-599A-46B2-9328-D96E42CD9C81";
paths = (
{
closed = 1;
nodes = (
"199 398 LINE",
"252 240 OFFCURVE",
"294 105 OFFCURVE",
"327 -53 CURVE",
"406 -23 LINE",
"370 143 OFFCURVE",
"326 293 OFFCURVE",
"264 465 CURVE"
);
},
{
closed = 1;
nodes = (
"401 939 LINE",
"307 633 OFFCURVE",
"189 374 OFFCURVE",
"0 142 CURVE",
"65 88 LINE",
"254 316 OFFCURVE",
"390 614 OFFCURVE",
"483 912 CURVE"
);
},
{
closed = 1;
nodes = (
"523 339 LINE",
"427 122 OFFCURVE",
"295 -76 OFFCURVE",
"151 -239 CURVE",
"214 -293 LINE",
"373 -104 OFFCURVE",
"493 68 OFFCURVE",
"599 301 CURVE"
);
}
);
vertOrigin = 90;
vertWidth = 1312;
width = 599;
}
);
unicode = 1B183;
},
{
glyphname = u1B184;
lastChange = "2020-03-26 16:54:05 +0000";
layers = (
{
layerId = "CFFEBDE4-599A-46B2-9328-D96E42CD9C81";
paths = (
{
closed = 1;
nodes = (
"269 -102 OFFCURVE",
"292 -85 OFFCURVE",
"292 -46 CURVE SMOOTH",
"292 -7 OFFCURVE",
"269 10 OFFCURVE",
"241 10 CURVE SMOOTH",
"212 10 OFFCURVE",
"189 -7 OFFCURVE",
"189 -46 CURVE SMOOTH",
"189 -85 OFFCURVE",
"212 -102 OFFCURVE",
"241 -102 CURVE SMOOTH"
);
},
{
closed = 1;
nodes = (
"291 393 LINE",
"371 245 OFFCURVE",
"405 85 OFFCURVE",
"405 -96 CURVE SMOOTH",
"405 -164 OFFCURVE",
"402 -214 OFFCURVE",
"395 -286 CURVE",
"479 -293 LINE",
"488 -212 OFFCURVE",
"491 -154 OFFCURVE",
"491 -102 CURVE SMOOTH",
"491 104 OFFCURVE",
"455 283 OFFCURVE",
"307 525 CURVE"
);
},
{
closed = 1;
nodes = (
"260 843 OFFCURVE",
"263 785 OFFCURVE",
"263 702 CURVE SMOOTH",
"263 436 OFFCURVE",
"180 277 OFFCURVE",
"0 88 CURVE",
"57 28 LINE",
"247 215 OFFCURVE",
"349 417 OFFCURVE",
"349 715 CURVE SMOOTH",
"349 789 OFFCURVE",
"343 855 OFFCURVE",
"331 939 CURVE",
"249 931 LINE"
);
}
);
vertOrigin = 90;
vertWidth = 1312;
width = 556;
}
);
unicode = 1B184;
},
{
glyphname = u1B185;
lastChange = "2020-03-26 16:53:35 +0000";
layers = (
{
layerId = "CFFEBDE4-599A-46B2-9328-D96E42CD9C81";
paths = (
{
closed = 1;
nodes = (
"263 447 LINE",
"283 301 OFFCURVE",
"289 201 OFFCURVE",
"289 61 CURVE SMOOTH",
"289 -87 OFFCURVE",
"281 -172 OFFCURVE",
"264 -281 CURVE",
"347 -293 LINE",
"368 -176 OFFCURVE",
"375 -88 OFFCURVE",
"375 61 CURVE SMOOTH",
"375 193 OFFCURVE",
"366 323 OFFCURVE",
"347 457 CURVE"
);
},
{
closed = 1;
nodes = (
"260 939 LINE",
"205 678 OFFCURVE",
"122 514 OFFCURVE",
"0 329 CURVE",
"71 282 LINE",
"195 456 OFFCURVE",
"285 655 OFFCURVE",
"344 924 CURVE"
);
},
{
closed = 1;
nodes = (
"269 784 LINE",
"366 631 OFFCURVE",
"440 515 OFFCURVE",
"521 320 CURVE",
"600 357 LINE",
"498 584 OFFCURVE",
"423 707 OFFCURVE",
"313 854 CURVE"
);
}
);
vertOrigin = 90;
vertWidth = 1312;
width = 600;
}
);
unicode = 1B185;
},
{
glyphname = u1B186;
lastChange = "2020-03-26 16:52:46 +0000";
layers = (
{
background = {
paths = (
{
closed = 1;
nodes = (
"307 939 LINE",
"248 765 OFFCURVE",
"178 639 OFFCURVE",
"70 520 CURVE",
"110 371 OFFCURVE",
"121 254 OFFCURVE",
"121 135 CURVE SMOOTH",
"121 -3 OFFCURVE",
"99 -128 OFFCURVE",
"53 -269 CURVE",
"129 -293 LINE",
"175 -143 OFFCURVE",
"201 -24 OFFCURVE",
"201 145 CURVE SMOOTH",
"201 271 OFFCURVE",
"186 388 OFFCURVE",
"148 538 CURVE",
"143 478 LINE",
"247 592 OFFCURVE",
"325 734 OFFCURVE",
"387 916 CURVE"
);
},
{
closed = 1;
nodes = (
"447 216 LINE",
"436 432 OFFCURVE",
"387 602 OFFCURVE",
"303 777 CURVE",
"260 673 LINE",
"318 540 OFFCURVE",
"353 386 OFFCURVE",
"363 204 CURVE"
);
}
);
};
layerId = "CFFEBDE4-599A-46B2-9328-D96E42CD9C81";
paths = (
{
closed = 1;
nodes = (
"109 490 OFFCURVE",
"141 311 OFFCURVE",
"141 132 CURVE SMOOTH",
"141 -30 OFFCURVE",
"126 -143 OFFCURVE",
"93 -275 CURVE",
"175 -293 LINE",
"209 -160 OFFCURVE",
"225 -44 OFFCURVE",
"225 119 CURVE SMOOTH",
"225 332 OFFCURVE",
"194 512 OFFCURVE",
"109 747 CURVE",
"30 721 LINE"
);
},
{
closed = 1;
nodes = (
"421 660 OFFCURVE",
"298 459 OFFCURVE",
"161 306 CURVE",
"196 231 LINE",
"378 421 OFFCURVE",
"497 596 OFFCURVE",
"568 920 CURVE",
"484 939 LINE"
);
},
{
closed = 1;
nodes = (
"354 539 LINE",
"426 398 OFFCURVE",
"468 256 OFFCURVE",
"493 94 CURVE",
"580 108 LINE",
"551 295 OFFCURVE",
"497 444 OFFCURVE",
"407 603 CURVE"
);
}
);
vertOrigin = 90;
vertWidth = 1312;
width = 600;
}
);
unicode = 1B186;
},
{
glyphname = u1B187;
lastChange = "2020-03-26 16:51:32 +0000";
layers = (
{
layerId = "CFFEBDE4-599A-46B2-9328-D96E42CD9C81";
paths = (
{
closed = 1;
nodes = (
"393 -293 LINE",
"411 -184 OFFCURVE",
"421 -86 OFFCURVE",
"421 30 CURVE SMOOTH",
"421 352 OFFCURVE",
"344 584 OFFCURVE",
"171 839 CURVE",
"101 792 LINE",
"273 541 OFFCURVE",
"335 344 OFFCURVE",
"335 30 CURVE SMOOTH",
"335 -82 OFFCURVE",
"327 -176 OFFCURVE",
"309 -285 CURVE"
);
},
{
closed = 1;
nodes = (
"442 939 LINE",
"334 709 OFFCURVE",
"211 536 OFFCURVE",
"20 335 CURVE",
"83 276 LINE",
"294 496 OFFCURVE",
"404 656 OFFCURVE",
"522 906 CURVE"
);
},
{
closed = 1;
nodes = (
"542 607 LINE",
"421 411 OFFCURVE",
"294 245 OFFCURVE",
"93 75 CURVE",
"150 11 LINE",
"347 178 OFFCURVE",
"487 354 OFFCURVE",
"613 559 CURVE"
);
}
);
vertOrigin = 90;
vertWidth = 1312;
width = 633;
}
);
unicode = 1B187;
},
{
glyphname = u1B188;
lastChange = "2020-03-26 17:02:45 +0000";
layers = (
{
background = {
paths = (
{
closed = 1;
nodes = (
"520 1074 LINE",
"525 990 OFFCURVE",
"527 912 OFFCURVE",
"527 839 CURVE SMOOTH",
"527 168 OFFCURVE",
"423 -69 OFFCURVE",
"185 -268 CURVE",
"240 -325 LINE",
"492 -109 OFFCURVE",
"613 157 OFFCURVE",
"613 843 CURVE SMOOTH",
"613 917 OFFCURVE",
"609 1001 OFFCURVE",
"604 1079 CURVE"
);
}
);
};
layerId = "CFFEBDE4-599A-46B2-9328-D96E42CD9C81";
paths = (
{
closed = 1;
nodes = (
"613 939 LINE",
"592 440 OFFCURVE",
"508 76 OFFCURVE",
"328 -208 CURVE",
"376 -217 LINE",
"351 -3 OFFCURVE",
"313 175 OFFCURVE",
"249 356 CURVE",
"168 329 LINE",
"229 147 OFFCURVE",
"268 -19 OFFCURVE",
"297 -230 CURVE",
"397 -253 LINE",
"575 24 OFFCURVE",
"678 384 OFFCURVE",
"699 933 CURVE"
);
},
{
closed = 1;
nodes = (
"110 -101 OFFCURVE",
"133 -84 OFFCURVE",
"133 -45 CURVE SMOOTH",
"133 -6 OFFCURVE",
"110 11 OFFCURVE",
"82 11 CURVE SMOOTH",
"53 11 OFFCURVE",
"30 -6 OFFCURVE",
"30 -45 CURVE SMOOTH",
"30 -84 OFFCURVE",
"53 -101 OFFCURVE",
"82 -101 CURVE SMOOTH"
);
}
);
vertOrigin = 90;
vertWidth = 1312;
width = 743;
}
);
unicode = 1B188;
},
{
glyphname = u1B189;
lastChange = "2020-03-26 17:03:29 +0000";
layers = (
{
layerId = "CFFEBDE4-599A-46B2-9328-D96E42CD9C81";
paths = (
{
closed = 1;
nodes = (
"229 597 LINE",
"308 404 OFFCURVE",
"347 240 OFFCURVE",
"347 17 CURVE SMOOTH",
"347 -98 OFFCURVE",
"342 -193 OFFCURVE",
"330 -286 CURVE",
"413 -293 LINE",
"424 -198 OFFCURVE",
"431 -100 OFFCURVE",
"431 27 CURVE SMOOTH",
"431 233 OFFCURVE",
"384 458 OFFCURVE",
"285 665 CURVE"
);
},
{
closed = 1;
nodes = (
"397 939 LINE",
"303 732 OFFCURVE",
"173 545 OFFCURVE",
"20 396 CURVE",
"79 334 LINE",
"236 485 OFFCURVE",
"372 671 OFFCURVE",
"477 909 CURVE"
);
},
{
closed = 1;
nodes = (
"529 649 LINE",
"414 446 OFFCURVE",
"282 286 OFFCURVE",
"85 115 CURVE",
"140 50 LINE",
"340 218 OFFCURVE",
"474 387 OFFCURVE",
"605 607 CURVE"
);
}
);
vertOrigin = 90;
vertWidth = 1312;
width = 622;
}
);
unicode = 1B189;
},
{
glyphname = u1B18A;
lastChange = "2020-03-26 17:04:19 +0000";
layers = (
{
background = {
paths = (
{
closed = 1;
nodes = (
"325 390 OFFCURVE",
"242 182 OFFCURVE",
"6 -28 CURVE",
"57 -85 LINE",
"322 139 OFFCURVE",
"411 395 OFFCURVE",
"411 797 CURVE SMOOTH",
"411 899 OFFCURVE",
"408 991 OFFCURVE",
"402 1079 CURVE",
"318 1074 LINE",
"323 986 OFFCURVE",
"325 895 OFFCURVE",
"325 809 CURVE SMOOTH"
);
},
{
closed = 1;
nodes = (
"435 201 LINE",
"357 17 OFFCURVE",
"237 -139 OFFCURVE",
"75 -266 CURVE",
"126 -325 LINE",
"301 -183 OFFCURVE",
"419 -32 OFFCURVE",
"507 166 CURVE"
);
}
);
};
layerId = "CFFEBDE4-599A-46B2-9328-D96E42CD9C81";
paths = (
{
closed = 1;
nodes = (
"292 855 OFFCURVE",
"295 785 OFFCURVE",
"295 697 CURVE SMOOTH",
"295 418 OFFCURVE",
"196 259 OFFCURVE",
"10 108 CURVE",
"59 43 LINE",
"258 197 OFFCURVE",
"380 395 OFFCURVE",
"380 697 CURVE SMOOTH",
"380 800 OFFCURVE",
"377 861 OFFCURVE",
"366 939 CURVE",
"283 934 LINE"
);
},
{
closed = 1;
nodes = (
"380 275 LINE",
"293 124 OFFCURVE",
"205 29 OFFCURVE",
"66 -70 CURVE",
"114 -134 LINE",
"258 -32 OFFCURVE",
"353 71 OFFCURVE",
"450 234 CURVE"
);
},
{
closed = 1;
nodes = (
"457 88 LINE",
"368 -42 OFFCURVE",
"262 -147 OFFCURVE",
"145 -228 CURVE",
"192 -293 LINE",
"310 -211 OFFCURVE",
"426 -100 OFFCURVE",
"522 41 CURVE"
);
}
);
vertOrigin = 90;
vertWidth = 1312;
width = 539;
}
);
unicode = 1B18A;
},
{
glyphname = u1B18B;
lastChange = "2020-03-26 17:06:24 +0000";
layers = (
{
layerId = "CFFEBDE4-599A-46B2-9328-D96E42CD9C81";
paths = (
{
closed = 1;
nodes = (
"457 704 LINE",
"407 578 OFFCURVE",
"344 467 OFFCURVE",
"263 377 CURVE",
"305 259 OFFCURVE",
"316 178 OFFCURVE",
"316 89 CURVE SMOOTH",
"316 1 OFFCURVE",
"313 -61 OFFCURVE",
"309 -99 CURVE",
"390 -105 LINE",
"397 -54 OFFCURVE",
"400 7 OFFCURVE",
"400 90 CURVE SMOOTH",
"400 192 OFFCURVE",
"384 286 OFFCURVE",
"344 396 CURVE",
"336 332 LINE",
"417 427 OFFCURVE",
"484 537 OFFCURVE",
"534 673 CURVE"
);
},
{
closed = 1;
nodes = (
"313 939 LINE",
"251 739 OFFCURVE",
"168 587 OFFCURVE",
"40 435 CURVE",
"81 291 OFFCURVE",
"97 178 OFFCURVE",
"97 51 CURVE SMOOTH",
"97 -64 OFFCURVE",
"82 -159 OFFCURVE",
"51 -274 CURVE",
"131 -293 LINE",
"166 -178 OFFCURVE",
"181 -80 OFFCURVE",
"181 51 CURVE SMOOTH",
"181 200 OFFCURVE",
"162 304 OFFCURVE",
"118 452 CURVE",
"117 390 LINE",
"241 551 OFFCURVE",
"330 697 OFFCURVE",
"395 914 CURVE"
);
}
);
vertOrigin = 90;
vertWidth = 1312;
width = 539;
}
);
unicode = 1B18B;
},
{
glyphname = u1B18C;
lastChange = "2020-03-26 17:07:35 +0000";
layers = (
{
layerId = "CFFEBDE4-599A-46B2-9328-D96E42CD9C81";
paths = (
{
closed = 1;
nodes = (
"187 375 OFFCURVE",
"215 235 OFFCURVE",
"215 106 CURVE SMOOTH",
"215 -32 OFFCURVE",
"186 -124 OFFCURVE",
"104 -249 CURVE",
"169 -293 LINE",
"262 -164 OFFCURVE",
"299 -32 OFFCURVE",
"299 118 CURVE SMOOTH",
"299 244 OFFCURVE",
"264 397 OFFCURVE",
"174 576 CURVE",
"101 537 LINE"
);
},
{
closed = 1;
nodes = (
"457 284 OFFCURVE",
"404 429 OFFCURVE",
"404 632 CURVE SMOOTH",
"404 714 OFFCURVE",
"418 810 OFFCURVE",
"453 919 CURVE",
"374 939 LINE",
"341 833 OFFCURVE",
"320 732 OFFCURVE",
"320 635 CURVE SMOOTH",
"320 414 OFFCURVE",
"390 231 OFFCURVE",
"519 87 CURVE",
"580 142 LINE"
);
},
{
closed = 1;
nodes = (
"592 558 OFFCURVE",
"615 575 OFFCURVE",
"615 614 CURVE SMOOTH",
"615 653 OFFCURVE",
"592 670 OFFCURVE",
"564 670 CURVE SMOOTH",
"535 670 OFFCURVE",
"512 653 OFFCURVE",
"512 614 CURVE SMOOTH",
"512 575 OFFCURVE",
"535 558 OFFCURVE",
"564 558 CURVE SMOOTH"
);
},
{
closed = 1;
nodes = (
"90 66 OFFCURVE",
"113 83 OFFCURVE",
"113 122 CURVE SMOOTH",
"113 161 OFFCURVE",
"90 178 OFFCURVE",
"62 178 CURVE SMOOTH",
"33 178 OFFCURVE",
"10 161 OFFCURVE",
"10 122 CURVE SMOOTH",
"10 83 OFFCURVE",
"33 66 OFFCURVE",
"62 66 CURVE SMOOTH"
);
}
);
vertOrigin = 90;
vertWidth = 1312;
width = 625;
}
);
unicode = 1B18C;
},
{
glyphname = u1B18D;
lastChange = "2020-03-26 17:08:11 +0000";
layers = (
{
background = {
paths = (
{
closed = 1;
nodes = (
"364 939 LINE",
"281 765 OFFCURVE",
"184 639 OFFCURVE",
"57 520 CURVE",
"97 371 OFFCURVE",
"108 254 OFFCURVE",
"108 135 CURVE SMOOTH",
"108 -3 OFFCURVE",
"86 -128 OFFCURVE",
"40 -269 CURVE",
"116 -293 LINE",
"162 -143 OFFCURVE",
"188 -24 OFFCURVE",
"188 145 CURVE SMOOTH",
"188 271 OFFCURVE",
"173 388 OFFCURVE",
"135 538 CURVE",
"130 478 LINE",
"253 592 OFFCURVE",
"352 725 OFFCURVE",
"438 907 CURVE"
);
},
{
closed = 1;
nodes = (
"475 243 LINE",
"456 459 OFFCURVE",
"407 602 OFFCURVE",
"320 777 CURVE",
"277 673 LINE",
"338 540 OFFCURVE",
"372 416 OFFCURVE",
"390 234 CURVE"
);
}
);
};
layerId = "CFFEBDE4-599A-46B2-9328-D96E42CD9C81";
paths = (
{
closed = 1;
nodes = (
"399 208 LINE",
"388 280 OFFCURVE",
"371 357 OFFCURVE",
"345 419 CURVE",
"271 389 LINE",
"302 314 OFFCURVE",
"319 246 OFFCURVE",
"343 151 CURVE",
"432 148 LINE",
"493 247 OFFCURVE",
"518 324 OFFCURVE",
"518 423 CURVE SMOOTH",
"518 520 OFFCURVE",
"471 644 OFFCURVE",
"336 811 CURVE",
"298 735 LINE",
"403 579 OFFCURVE",
"432 498 OFFCURVE",
"432 400 CURVE SMOOTH",
"432 332 OFFCURVE",
"411 262 OFFCURVE",
"385 199 CURVE"
);
},
{
closed = 1;
nodes = (
"354 939 LINE",
"271 765 OFFCURVE",
"174 639 OFFCURVE",
"47 520 CURVE",
"85 375 OFFCURVE",
"98 271 OFFCURVE",
"98 135 CURVE SMOOTH",
"98 -21 OFFCURVE",
"78 -127 OFFCURVE",
"31 -267 CURVE",
"112 -293 LINE",
"166 -145 OFFCURVE",
"184 -23 OFFCURVE",
"184 129 CURVE SMOOTH",
"184 271 OFFCURVE",
"168 388 OFFCURVE",
"130 538 CURVE",
"125 474 LINE",
"248 588 OFFCURVE",
"345 721 OFFCURVE",
"431 903 CURVE"
);
}
);
vertOrigin = 90;
vertWidth = 1312;
width = 538;
}
);
unicode = 1B18D;
},
{
glyphname = u1B18E;
lastChange = "2020-03-26 17:09:59 +0000";
layers = (
{
background = {
paths = (
{
closed = 1;
nodes = (
"387 939 LINE",
"320 712 OFFCURVE",
"218 485 OFFCURVE",
"60 284 CURVE",
"124 236 LINE",
"279 434 OFFCURVE",
"389 673 OFFCURVE",
"467 922 CURVE"
);
},
{
closed = 1;
nodes = (
"56 791 LINE",
"260 450 OFFCURVE",
"413 95 OFFCURVE",
"516 -293 CURVE",
"592 -271 LINE",
"494 122 OFFCURVE",
"324 476 OFFCURVE",
"127 831 CURVE"
);
},
{
closed = 1;
nodes = (
"358 274 LINE",
"295 123 OFFCURVE",
"214 -4 OFFCURVE",
"112 -135 CURVE",
"178 -184 LINE",
"275 -60 OFFCURVE",
"351 60 OFFCURVE",
"413 236 CURVE"
);
}
);
};
layerId = "CFFEBDE4-599A-46B2-9328-D96E42CD9C81";
paths = (
{
closed = 1;
nodes = (
"337 19 LINE",
"314 -81 OFFCURVE",
"291 -169 OFFCURVE",
"254 -270 CURVE",
"333 -293 LINE",
"371 -188 OFFCURVE",
"396 -94 OFFCURVE",
"416 0 CURVE"
);
},
{
closed = 1;
nodes = (
"387 939 LINE",
"300 705 OFFCURVE",
"177 478 OFFCURVE",
"10 264 CURVE",
"74 212 LINE",
"238 423 OFFCURVE",
"371 655 OFFCURVE",
"469 911 CURVE"
);
},
{
closed = 1;
nodes = (
"52 784 LINE",
"301 423 OFFCURVE",
"465 54 OFFCURVE",
"606 -293 CURVE",
"685 -261 LINE",
"541 113 OFFCURVE",
"358 476 OFFCURVE",
"123 834 CURVE"
);
},
{
closed = 1;
nodes = (
"334 358 LINE",
"246 175 OFFCURVE",
"184 70 OFFCURVE",
"78 -74 CURVE",
"148 -125 LINE",
"246 12 OFFCURVE",
"310 118 OFFCURVE",
"397 318 CURVE"
);
}
);
vertOrigin = 90;
vertWidth = 1312;
width = 686;
}
);
unicode = 1B18E;
},
{
glyphname = u1B18F;
lastChange = "2020-03-26 17:10:19 +0000";
layers = (
{
layerId = "CFFEBDE4-599A-46B2-9328-D96E42CD9C81";
paths = (
{
closed = 1;
nodes = (
"592 333 OFFCURVE",
"615 350 OFFCURVE",
"615 389 CURVE SMOOTH",
"615 428 OFFCURVE",
"592 445 OFFCURVE",
"564 445 CURVE SMOOTH",
"535 445 OFFCURVE",
"512 428 OFFCURVE",
"512 389 CURVE SMOOTH",
"512 350 OFFCURVE",
"535 333 OFFCURVE",
"564 333 CURVE SMOOTH"
);
},
{
closed = 1;
nodes = (
"120 205 OFFCURVE",
"143 222 OFFCURVE",
"143 261 CURVE SMOOTH",
"143 300 OFFCURVE",
"120 317 OFFCURVE",
"92 317 CURVE SMOOTH",
"63 317 OFFCURVE",
"40 300 OFFCURVE",
"40 261 CURVE SMOOTH",
"40 222 OFFCURVE",
"63 205 OFFCURVE",
"92 205 CURVE SMOOTH"
);
},
{
closed = 1;
nodes = (
"549 -136 LINE",
"451 183 OFFCURVE",
"303 465 OFFCURVE",
"98 728 CURVE",
"32 676 LINE",
"227 428 OFFCURVE",
"377 136 OFFCURVE",
"470 -163 CURVE"
);
},
{
closed = 1;
nodes = (
"417 939 LINE",
"368 525 OFFCURVE",
"231 114 OFFCURVE",
"49 -259 CURVE",
"126 -293 LINE",
"322 111 OFFCURVE",
"449 493 OFFCURVE",
"500 929 CURVE"
);
}
);
vertOrigin = 90;
vertWidth = 1312;
width = 645;
}
);
unicode = 1B18F;
},
{
glyphname = u1B190;
lastChange = "2020-03-26 17:11:40 +0000";
layers = (
{
layerId = "CFFEBDE4-599A-46B2-9328-D96E42CD9C81";
paths = (
{
closed = 1;
nodes = (
"221 -176 OFFCURVE",
"254 -232 OFFCURVE",
"328 -293 CURVE",
"399 -284 LINE",
"465 -173 OFFCURVE",
"496 -88 OFFCURVE",
"496 1 CURVE SMOOTH",
"496 70 OFFCURVE",
"461 127 OFFCURVE",
"383 190 CURVE",
"309 180 LINE",
"239 58 OFFCURVE",
"221 -19 OFFCURVE",
"221 -84 CURVE SMOOTH"
);
},
{
closed = 1;
nodes = (
"323 140 LINE",
"391 79 OFFCURVE",
"412 37 OFFCURVE",
"412 -5 CURVE SMOOTH",
"412 -67 OFFCURVE",
"395 -133 OFFCURVE",
"344 -233 CURVE",
"378 -233 LINE",
"331 -179 OFFCURVE",
"305 -140 OFFCURVE",
"305 -84 CURVE SMOOTH",
"305 -24 OFFCURVE",
"323 42 OFFCURVE",
"376 140 CURVE"
);
},
{
closed = 1;
nodes = (
"125 594 OFFCURVE",
"141 499 OFFCURVE",
"141 386 CURVE SMOOTH",
"141 259 OFFCURVE",
"106 158 OFFCURVE",
"30 50 CURVE",
"98 1 LINE",
"192 131 OFFCURVE",
"225 239 OFFCURVE",
"225 390 CURVE SMOOTH",
"225 517 OFFCURVE",
"207 610 OFFCURVE",
"164 723 CURVE",
"85 694 LINE"
);
},
{
closed = 1;
nodes = (
"461 414 OFFCURVE",
"428 519 OFFCURVE",
"428 647 CURVE SMOOTH",
"428 745 OFFCURVE",
"442 819 OFFCURVE",
"473 917 CURVE",
"395 939 LINE",
"359 830 OFFCURVE",
"344 749 OFFCURVE",
"344 641 CURVE SMOOTH",
"344 499 OFFCURVE",
"391 357 OFFCURVE",
"499 233 CURVE",
"560 289 LINE"
);
}
);
vertOrigin = 90;
vertWidth = 1312;
width = 590;
}
);
unicode = 1B190;
},
{
glyphname = u1B191;
lastChange = "2020-03-26 17:12:38 +0000";
layers = (
{
background = {
paths = (
{
closed = 1;
nodes = (
"445 939 LINE",
"316 747 OFFCURVE",
"188 601 OFFCURVE",
"20 449 CURVE",
"73 386 LINE",
"247 536 OFFCURVE",
"382 689 OFFCURVE",
"518 897 CURVE"
);
},
{
closed = 1;
nodes = (
"431 710 OFFCURVE",
"451 666 OFFCURVE",
"451 603 CURVE SMOOTH",
"451 474 OFFCURVE",
"362 363 OFFCURVE",
"81 134 CURVE",
"136 71 LINE",
"446 308 OFFCURVE",
"537 449 OFFCURVE",
"537 603 CURVE SMOOTH",
"537 693 OFFCURVE",
"509 758 OFFCURVE",
"415 840 CURVE",
"364 773 LINE"
);
},
{
closed = 1;
nodes = (
"332 269 LINE",
"357 143 OFFCURVE",
"362 40 OFFCURVE",
"362 -51 CURVE SMOOTH",
"362 -139 OFFCURVE",
"359 -199 OFFCURVE",
"348 -284 CURVE",
"433 -293 LINE",
"444 -204 OFFCURVE",
"448 -126 OFFCURVE",
"448 -39 CURVE SMOOTH",
"448 68 OFFCURVE",
"437 190 OFFCURVE",
"402 347 CURVE"
);
}
);
};
layerId = "CFFEBDE4-599A-46B2-9328-D96E42CD9C81";
paths = (
{
closed = 1;
nodes = (
"584 294 LINE",
"460 148 OFFCURVE",
"304 8 OFFCURVE",
"162 -88 CURVE",
"209 -156 LINE",
"360 -53 OFFCURVE",
"504 76 OFFCURVE",
"646 234 CURVE"
);
},
{
closed = 1;
nodes = (
"445 939 LINE",
"316 747 OFFCURVE",
"188 601 OFFCURVE",
"20 449 CURVE",
"73 386 LINE",
"247 536 OFFCURVE",
"382 689 OFFCURVE",
"518 897 CURVE"
);
},
{
closed = 1;
nodes = (
"421 711 OFFCURVE",
"451 654 OFFCURVE",
"451 592 CURVE SMOOTH",
"451 474 OFFCURVE",
"365 387 OFFCURVE",
"84 158 CURVE",
"136 91 LINE",
"474 342 OFFCURVE",
"537 449 OFFCURVE",
"537 592 CURVE SMOOTH",
"537 680 OFFCURVE",
"509 744 OFFCURVE",
"415 840 CURVE",
"364 773 LINE"
);
},
{
closed = 1;
nodes = (
"332 293 LINE",
"354 158 OFFCURVE",
"362 40 OFFCURVE",
"362 -51 CURVE SMOOTH",
"362 -139 OFFCURVE",
"360 -199 OFFCURVE",
"349 -284 CURVE",
"433 -293 LINE",
"444 -204 OFFCURVE",
"448 -126 OFFCURVE",
"448 -39 CURVE SMOOTH",
"448 68 OFFCURVE",
"437 190 OFFCURVE",
"402 347 CURVE"
);
}
);
vertOrigin = 90;
vertWidth = 1312;
width = 666;
}
);
unicode = 1B191;
},
{
glyphname = u1B192;
lastChange = "2020-03-26 17:14:38 +0000";
layers = (
{
background = {
paths = (
{
closed = 1;
nodes = (
"444 939 LINE",
"361 765 OFFCURVE",
"264 639 OFFCURVE",
"137 520 CURVE",
"175 375 OFFCURVE",
"188 271 OFFCURVE",
"188 135 CURVE SMOOTH",
"188 -21 OFFCURVE",
"168 -127 OFFCURVE",
"121 -267 CURVE",
"202 -293 LINE",
"256 -145 OFFCURVE",
"274 -23 OFFCURVE",
"274 129 CURVE SMOOTH",
"274 271 OFFCURVE",
"258 388 OFFCURVE",
"220 538 CURVE",
"215 474 LINE",
"338 588 OFFCURVE",
"435 721 OFFCURVE",
"521 903 CURVE"
);
},
{
closed = 1;
nodes = (
"555 243 LINE",
"536 459 OFFCURVE",
"487 602 OFFCURVE",
"400 777 CURVE",
"357 673 LINE",
"418 540 OFFCURVE",
"452 416 OFFCURVE",
"470 234 CURVE"
);
}
);
};
layerId = "CFFEBDE4-599A-46B2-9328-D96E42CD9C81";
paths = (
{
closed = 1;
nodes = (
"444 939 LINE",
"360 763 OFFCURVE",
"258 633 OFFCURVE",
"137 520 CURVE",
"200 378 OFFCURVE",
"228 259 OFFCURVE",
"228 129 CURVE SMOOTH",
"228 -2 OFFCURVE",
"200 -119 OFFCURVE",
"127 -256 CURVE",
"200 -293 LINE",
"285 -143 OFFCURVE",
"314 -15 OFFCURVE",
"314 125 CURVE SMOOTH",
"314 262 OFFCURVE",
"280 398 OFFCURVE",
"220 540 CURVE",
"215 474 LINE",
"335 585 OFFCURVE",
"435 721 OFFCURVE",
"521 903 CURVE"
);
},
{
closed = 1;
nodes = (
"90 51 OFFCURVE",
"113 68 OFFCURVE",
"113 107 CURVE SMOOTH",
"113 146 OFFCURVE",
"90 163 OFFCURVE",
"62 163 CURVE SMOOTH",
"33 163 OFFCURVE",
"10 146 OFFCURVE",
"10 107 CURVE SMOOTH",
"10 68 OFFCURVE",
"33 51 OFFCURVE",
"62 51 CURVE SMOOTH"
);
},
{
closed = 1;
nodes = (
"582 254 LINE",
"543 456 OFFCURVE",
"494 598 OFFCURVE",
"400 778 CURVE",
"357 673 LINE",
"428 538 OFFCURVE",
"466 416 OFFCURVE",
"500 236 CURVE"
);
}
);
vertOrigin = 90;
vertWidth = 1312;
width = 599;
}
);
unicode = 1B192;
},
{
glyphname = u1B193;
lastChange = "2020-03-26 17:15:22 +0000";
layers = (
{
layerId = "CFFEBDE4-599A-46B2-9328-D96E42CD9C81";
paths = (
{
closed = 1;
nodes = (
"678 939 LINE",
"637 440 OFFCURVE",
"535 76 OFFCURVE",
"355 -208 CURVE",
"405 -219 LINE",
"343 -28 OFFCURVE",
"275 136 OFFCURVE",
"186 304 CURVE",
"113 261 LINE",
"199 92 OFFCURVE",
"260 -45 OFFCURVE",
"326 -243 CURVE",
"426 -253 LINE",
"604 24 OFFCURVE",
"721 382 OFFCURVE",
"762 931 CURVE"
);
},
{
closed = 1;
nodes = (
"80 -101 OFFCURVE",
"103 -84 OFFCURVE",
"103 -45 CURVE SMOOTH",
"103 -6 OFFCURVE",
"80 11 OFFCURVE",
"52 11 CURVE SMOOTH",
"23 11 OFFCURVE",
"0 -6 OFFCURVE",
"0 -45 CURVE SMOOTH",
"0 -84 OFFCURVE",
"23 -101 OFFCURVE",
"52 -101 CURVE SMOOTH"
);
},
{
closed = 1;
nodes = (
"408 299 OFFCURVE",
"431 316 OFFCURVE",
"431 355 CURVE SMOOTH",
"431 394 OFFCURVE",
"408 411 OFFCURVE",
"380 411 CURVE SMOOTH",
"351 411 OFFCURVE",
"328 394 OFFCURVE",
"328 355 CURVE SMOOTH",
"328 316 OFFCURVE",
"351 299 OFFCURVE",
"380 299 CURVE SMOOTH"
);
}
);
vertOrigin = 90;
vertWidth = 1312;
width = 802;
}
);
unicode = 1B193;
},
{
glyphname = u1B194;
lastChange = "2020-03-26 17:28:07 +0000";
layers = (
{
background = {
paths = (
{
closed = 1;
nodes = (
"387 939 LINE",
"300 705 OFFCURVE",
"177 478 OFFCURVE",
"10 264 CURVE",
"74 212 LINE",
"238 423 OFFCURVE",
"371 655 OFFCURVE",
"469 911 CURVE"
);
},
{
closed = 1;
nodes = (
"52 784 LINE",
"301 423 OFFCURVE",
"465 54 OFFCURVE",
"606 -293 CURVE",
"685 -261 LINE",
"541 113 OFFCURVE",
"358 476 OFFCURVE",
"123 834 CURVE"
);
},
{
closed = 1;
nodes = (
"334 358 LINE",
"246 175 OFFCURVE",
"184 70 OFFCURVE",
"78 -74 CURVE",
"148 -125 LINE",
"246 12 OFFCURVE",
"310 118 OFFCURVE",
"397 318 CURVE"
);
}
);
};
layerId = "CFFEBDE4-599A-46B2-9328-D96E42CD9C81";
paths = (
{
closed = 1;
nodes = (
"466 73 LINE",
"415 -36 OFFCURVE",
"368 -119 OFFCURVE",
"289 -237 CURVE",
"357 -284 LINE",
"435 -170 OFFCURVE",
"478 -84 OFFCURVE",
"528 33 CURVE"
);
},
{
closed = 1;
nodes = (
"387 939 LINE",
"300 705 OFFCURVE",
"166 461 OFFCURVE",
"10 264 CURVE",
"74 212 LINE",
"227 406 OFFCURVE",
"371 655 OFFCURVE",
"469 911 CURVE"
);
},
{
closed = 1;
nodes = (
"526 661 LINE",
"411 392 OFFCURVE",
"290 181 OFFCURVE",
"130 -15 CURVE",
"196 -67 LINE",
"352 132 OFFCURVE",
"486 345 OFFCURVE",
"604 631 CURVE"
);
},
{
closed = 1;
nodes = (
"52 784 LINE",
"301 423 OFFCURVE",
"465 54 OFFCURVE",
"606 -293 CURVE",
"685 -261 LINE",
"541 113 OFFCURVE",
"358 476 OFFCURVE",
"123 834 CURVE"
);
}
);
vertOrigin = 90;
vertWidth = 1312;
width = 706;
}
);
unicode = 1B194;
},
{
glyphname = u1B195;
lastChange = "2020-03-26 17:26:38 +0000";
layers = (
{
layerId = "CFFEBDE4-599A-46B2-9328-D96E42CD9C81";
paths = (
{
closed = 1;
nodes = (
"265 843 OFFCURVE",
"274 746 OFFCURVE",
"274 608 CURVE SMOOTH",
"274 244 OFFCURVE",
"199 2 OFFCURVE",
"27 -246 CURVE",
"96 -293 LINE",
"278 -38 OFFCURVE",
"360 234 OFFCURVE",
"360 608 CURVE SMOOTH",
"360 748 OFFCURVE",
"349 856 OFFCURVE",
"341 939 CURVE",
"255 932 LINE"
);
},
{
closed = 1;
nodes = (
"643 -150 LINE",
"568 114 OFFCURVE",
"480 288 OFFCURVE",
"332 541 CURVE",
"302 429 LINE",
"408 246 OFFCURVE",
"492 60 OFFCURVE",
"560 -173 CURVE"
);
},
{
closed = 1;
nodes = (
"611 469 OFFCURVE",
"634 486 OFFCURVE",
"634 525 CURVE SMOOTH",
"634 564 OFFCURVE",
"611 581 OFFCURVE",
"583 581 CURVE SMOOTH",
"554 581 OFFCURVE",
"531 564 OFFCURVE",
"531 525 CURVE SMOOTH",
"531 486 OFFCURVE",
"554 469 OFFCURVE",
"583 469 CURVE SMOOTH"
);
},
{
closed = 1;
nodes = (
"100 266 OFFCURVE",
"123 283 OFFCURVE",
"123 322 CURVE SMOOTH",
"123 361 OFFCURVE",
"100 378 OFFCURVE",
"72 378 CURVE SMOOTH",
"43 378 OFFCURVE",
"20 361 OFFCURVE",
"20 322 CURVE SMOOTH",
"20 283 OFFCURVE",
"43 266 OFFCURVE",
"72 266 CURVE SMOOTH"
);
}
);
vertOrigin = 90;
vertWidth = 1312;
width = 664;
}
);
unicode = 1B195;
},
{
glyphname = u1B196;
lastChange = "2020-03-26 17:26:12 +0000";
layers = (
{
layerId = "CFFEBDE4-599A-46B2-9328-D96E42CD9C81";
paths = (
{
closed = 1;
nodes = (
"386 491 OFFCURVE",
"268 109 OFFCURVE",
"92 -257 CURVE",
"168 -293 LINE",
"352 87 OFFCURVE",
"463 457 OFFCURVE",
"515 879 CURVE",
"480 879 LINE",
"526 776 OFFCURVE",
"560 684 OFFCURVE",
"588 581 CURVE",
"670 602 LINE",
"637 727 OFFCURVE",
"599 824 OFFCURVE",
"533 939 CURVE",
"442 925 LINE"
);
},
{
closed = 1;
nodes = (
"266 450 OFFCURVE",
"383 167 OFFCURVE",
"480 -133 CURVE",
"561 -105 LINE",
"454 226 OFFCURVE",
"334 492 OFFCURVE",
"197 732 CURVE",
"113 719 LINE",
"87 551 OFFCURVE",
"68 463 OFFCURVE",
"35 350 CURVE",
"116 327 LINE",
"143 424 OFFCURVE",
"160 509 OFFCURVE",
"179 674 CURVE",
"136 671 LINE"
);
}
);
vertOrigin = 90;
vertWidth = 1312;
width = 677;
}
);
unicode = 1B196;
},
{
glyphname = u1B197;
lastChange = "2020-03-26 17:24:55 +0000";
layers = (
{
layerId = "CFFEBDE4-599A-46B2-9328-D96E42CD9C81";
paths = (
{
closed = 1;
nodes = (
"404 939 LINE",
"287 613 OFFCURVE",
"173 439 OFFCURVE",
"20 258 CURVE",
"87 204 LINE",
"253 401 OFFCURVE",
"366 588 OFFCURVE",
"487 914 CURVE"
);
},
{
closed = 1;
nodes = (
"553 207 LINE",
"444 15 OFFCURVE",
"332 -121 OFFCURVE",
"210 -235 CURVE",
"269 -293 LINE",
"402 -163 OFFCURVE",
"511 -37 OFFCURVE",
"627 164 CURVE"
);
},
{
closed = 1;
nodes = (
"443 -71 LINE",
"384 222 OFFCURVE",
"282 484 OFFCURVE",
"147 783 CURVE",
"68 746 LINE",
"211 443 OFFCURVE",
"304 172 OFFCURVE",
"363 -99 CURVE"
);
},
{
closed = 1;
nodes = (
"456 493 LINE",
"361 314 OFFCURVE",
"252 170 OFFCURVE",
"116 21 CURVE",
"181 -35 LINE",
"317 114 OFFCURVE",
"430 263 OFFCURVE",
"532 452 CURVE"
);
}
);
vertOrigin = 90;
vertWidth = 1312;
width = 647;
}
);
unicode = 1B197;
},
{
glyphname = u1B198;
lastChange = "2020-03-26 17:24:20 +0000";
layers = (
{
background = {
paths = (
{
closed = 1;
nodes = (
"354 939 LINE",
"271 765 OFFCURVE",
"174 639 OFFCURVE",
"47 520 CURVE",
"85 375 OFFCURVE",
"98 271 OFFCURVE",
"98 135 CURVE SMOOTH",
"98 -21 OFFCURVE",
"78 -127 OFFCURVE",
"31 -267 CURVE",
"112 -293 LINE",
"166 -145 OFFCURVE",
"184 -23 OFFCURVE",
"184 129 CURVE SMOOTH",
"184 271 OFFCURVE",
"168 388 OFFCURVE",
"130 538 CURVE",
"125 474 LINE",
"248 588 OFFCURVE",
"345 721 OFFCURVE",
"431 903 CURVE"
);
}
);
};
layerId = "CFFEBDE4-599A-46B2-9328-D96E42CD9C81";
paths = (
{
closed = 1;
nodes = (
"275 274 OFFCURVE",
"306 203 OFFCURVE",
"382 151 CURVE",
"460 161 LINE",
"500 251 OFFCURVE",
"522 327 OFFCURVE",
"522 415 CURVE SMOOTH",
"522 520 OFFCURVE",
"476 628 OFFCURVE",
"342 811 CURVE",
"298 737 LINE",
"399 591 OFFCURVE",
"439 502 OFFCURVE",
"439 404 CURVE SMOOTH",
"439 344 OFFCURVE",
"427 284 OFFCURVE",
"400 202 CURVE",
"428 211 LINE",
"378 263 OFFCURVE",
"359 302 OFFCURVE",
"359 351 CURVE SMOOTH",
"359 410 OFFCURVE",
"385 468 OFFCURVE",
"438 536 CURVE",
"412 609 LINE",
"305 496 OFFCURVE",
"275 427 OFFCURVE",
"275 350 CURVE SMOOTH"
);
},
{
closed = 1;
nodes = (
"354 939 LINE",
"271 765 OFFCURVE",
"174 639 OFFCURVE",
"47 520 CURVE",
"85 375 OFFCURVE",
"98 271 OFFCURVE",
"98 135 CURVE SMOOTH",
"98 -21 OFFCURVE",
"78 -127 OFFCURVE",
"31 -267 CURVE",
"112 -293 LINE",
"166 -145 OFFCURVE",
"184 -23 OFFCURVE",
"184 129 CURVE SMOOTH",
"184 271 OFFCURVE",
"168 388 OFFCURVE",
"130 538 CURVE",
"125 474 LINE",
"248 588 OFFCURVE",
"345 721 OFFCURVE",
"431 903 CURVE"
);
}
);
vertOrigin = 90;
vertWidth = 1312;
width = 538;
}
);
unicode = 1B198;
},
{
glyphname = u1B199;
lastChange = "2020-03-26 17:23:23 +0000";
layers = (
{
layerId = "CFFEBDE4-599A-46B2-9328-D96E42CD9C81";
paths = (
{
closed = 1;
nodes = (
"267 344 LINE",
"212 98 OFFCURVE",
"156 -62 OFFCURVE",
"41 -250 CURVE",
"113 -293 LINE",
"227 -108 OFFCURVE",
"294 62 OFFCURVE",
"351 328 CURVE"
);
},
{
closed = 1;
nodes = (
"257 209 LINE",
"358 46 OFFCURVE",
"418 -76 OFFCURVE",
"476 -241 CURVE",
"559 -214 LINE",
"494 -31 OFFCURVE",
"424 106 OFFCURVE",
"320 261 CURVE"
);
},
{
closed = 1;
nodes = (
"240 939 LINE",
"182 664 OFFCURVE",
"113 489 OFFCURVE",
"10 309 CURVE",
"84 266 LINE",
"198 460 OFFCURVE",
"257 624 OFFCURVE",
"325 925 CURVE"
);
},
{
closed = 1;
nodes = (
"226 780 LINE",
"356 596 OFFCURVE",
"442 456 OFFCURVE",
"504 309 CURVE",
"581 348 LINE",
"507 522 OFFCURVE",
"421 656 OFFCURVE",
"283 828 CURVE"
);
}
);
vertOrigin = 90;
vertWidth = 1312;
width = 591;
}
);
unicode = 1B199;
},
{
glyphname = u1B19A;
lastChange = "2020-03-26 17:22:24 +0000";
layers = (
{
layerId = "CFFEBDE4-599A-46B2-9328-D96E42CD9C81";
paths = (
{
closed = 1;
nodes = (
"550 939 LINE",
"472 651 OFFCURVE",
"348 470 OFFCURVE",
"194 301 CURVE",
"243 240 LINE",
"428 423 OFFCURVE",
"547 612 OFFCURVE",
"633 915 CURVE"
);
},
{
closed = 1;
nodes = (
"120 569 OFFCURVE",
"146 427 OFFCURVE",
"146 228 CURVE SMOOTH",
"146 53 OFFCURVE",
"116 -88 OFFCURVE",
"40 -262 CURVE",
"116 -293 LINE",
"206 -110 OFFCURVE",
"232 39 OFFCURVE",
"232 232 CURVE SMOOTH",
"232 431 OFFCURVE",
"201 599 OFFCURVE",
"130 771 CURVE",
"54 742 LINE"
);
},
{
closed = 1;
nodes = (
"493 -175 LINE",
"556 -65 OFFCURVE",
"607 66 OFFCURVE",
"650 214 CURVE",
"568 237 LINE",
"524 91 OFFCURVE",
"487 -12 OFFCURVE",
"435 -107 CURVE",
"458 -125 LINE",
"418 23 OFFCURVE",
"369 143 OFFCURVE",
"266 293 CURVE",
"208 249 LINE",
"304 87 OFFCURVE",
"346 -17 OFFCURVE",
"393 -176 CURVE"
);
}
);
vertOrigin = 90;
vertWidth = 1312;
width = 660;
}
);
unicode = 1B19A;
},
{
glyphname = u1B19B;
lastChange = "2020-03-26 17:20:52 +0000";
layers = (
{
layerId = "CFFEBDE4-599A-46B2-9328-D96E42CD9C81";
paths = (
{
closed = 1;
nodes = (
"90 4 OFFCURVE",
"113 21 OFFCURVE",
"113 60 CURVE SMOOTH",
"113 99 OFFCURVE",
"90 116 OFFCURVE",
"62 116 CURVE SMOOTH",
"33 116 OFFCURVE",
"10 99 OFFCURVE",
"10 60 CURVE SMOOTH",
"10 21 OFFCURVE",
"33 4 OFFCURVE",
"62 4 CURVE SMOOTH"
);
},
{
closed = 1;
nodes = (
"166 213 OFFCURVE",
"189 230 OFFCURVE",
"189 269 CURVE SMOOTH",
"189 308 OFFCURVE",
"166 325 OFFCURVE",
"138 325 CURVE SMOOTH",
"109 325 OFFCURVE",
"86 308 OFFCURVE",
"86 269 CURVE SMOOTH",
"86 230 OFFCURVE",
"109 213 OFFCURVE",
"138 213 CURVE SMOOTH"
);
},
{
closed = 1;
nodes = (
"584 -125 LINE",
"533 41 OFFCURVE",
"469 195 OFFCURVE",
"390 341 CURVE",
"366 375 LINE",
"298 498 OFFCURVE",
"216 616 OFFCURVE",
"126 731 CURVE",
"60 679 LINE",
"158 554 OFFCURVE",
"246 417 OFFCURVE",
"320 273 CURVE",
"344 235 LINE",
"408 106 OFFCURVE",
"463 -18 OFFCURVE",
"505 -152 CURVE"
);
},
{
closed = 1;
nodes = (
"467 939 LINE",
"398 525 OFFCURVE",
"291 149 OFFCURVE",
"86 -259 CURVE",
"160 -293 LINE",
"370 111 OFFCURVE",
"481 491 OFFCURVE",
"552 927 CURVE"
);
}
);
vertOrigin = 90;
vertWidth = 1312;
width = 619;
}
);
unicode = 1B19B;
},
{
glyphname = u1B19C;
lastChange = "2020-03-26 17:20:05 +0000";
layers = (
{
layerId = "CFFEBDE4-599A-46B2-9328-D96E42CD9C81";
paths = (
{
closed = 1;
nodes = (
"487 371 LINE",
"419 265 OFFCURVE",
"393 180 OFFCURVE",
"393 84 CURVE SMOOTH",
"393 -18 OFFCURVE",
"423 -105 OFFCURVE",
"485 -176 CURVE",
"554 -128 LINE",
"504 -61 OFFCURVE",
"479 0 OFFCURVE",
"479 85 CURVE SMOOTH",
"479 163 OFFCURVE",
"497 240 OFFCURVE",
"558 329 CURVE"
);
},
{
closed = 1;
nodes = (
"144 -293 LINE",
"179 -223 OFFCURVE",
"193 -162 OFFCURVE",
"193 -67 CURVE SMOOTH",
"193 27 OFFCURVE",
"163 114 OFFCURVE",
"100 195 CURVE",
"32 149 LINE",
"88 77 OFFCURVE",
"110 8 OFFCURVE",
"110 -77 CURVE SMOOTH",
"110 -145 OFFCURVE",
"96 -202 OFFCURVE",
"69 -264 CURVE"
);
},
{
closed = 1;
nodes = (
"430 939 LINE",
"395 651 OFFCURVE",
"332 434 OFFCURVE",
"231 209 CURVE",
"271 213 LINE",
"239 349 OFFCURVE",
"183 478 OFFCURVE",
"116 593 CURVE",
"44 550 LINE",
"116 426 OFFCURVE",
"161 326 OFFCURVE",
"198 193 CURVE",
"307 181 LINE",
"411 405 OFFCURVE",
"473 621 OFFCURVE",
"516 930 CURVE"
);
}
);
vertOrigin = 90;
vertWidth = 1312;
width = 590;
}
);
unicode = 1B19C;
},
{
glyphname = u1B19D;
lastChange = "2020-03-26 17:18:32 +0000";
layers = (
{
background = {
paths = (
{
closed = 1;
nodes = (
"557 728 OFFCURVE",
"580 745 OFFCURVE",
"580 784 CURVE SMOOTH",
"580 823 OFFCURVE",
"557 840 OFFCURVE",
"529 840 CURVE SMOOTH",
"500 840 OFFCURVE",
"477 823 OFFCURVE",
"477 784 CURVE SMOOTH",
"477 745 OFFCURVE",
"500 728 OFFCURVE",
"529 728 CURVE SMOOTH"
);
},
{
closed = 1;
nodes = (
"119 608 OFFCURVE",
"142 625 OFFCURVE",
"142 664 CURVE SMOOTH",
"142 703 OFFCURVE",
"119 720 OFFCURVE",
"91 720 CURVE SMOOTH",
"62 720 OFFCURVE",
"39 703 OFFCURVE",
"39 664 CURVE SMOOTH",
"39 625 OFFCURVE",
"62 608 OFFCURVE",
"91 608 CURVE SMOOTH"
);
},
{
closed = 1;
nodes = (
"427 539 LINE",
"377 297 OFFCURVE",
"268 35 OFFCURVE",
"140 -168 CURVE",
"211 -212 LINE",
"343 -12 OFFCURVE",
"443 241 OFFCURVE",
"498 504 CURVE"
);
},
{
closed = 1;
nodes = (
"178 380 LINE",
"309 172 OFFCURVE",
"390 -35 OFFCURVE",
"463 -293 CURVE",
"546 -271 LINE",
"463 18 OFFCURVE",
"370 240 OFFCURVE",
"232 454 CURVE"
);
},
{
closed = 1;
nodes = (
"285 939 LINE",
"245 615 OFFCURVE",
"160 421 OFFCURVE",
"33 220 CURVE",
"103 178 LINE",
"247 397 OFFCURVE",
"320 581 OFFCURVE",
"370 931 CURVE"
);
},
{
closed = 1;
nodes = (
"277 720 LINE",
"403 552 OFFCURVE",
"483 432 OFFCURVE",
"552 277 CURVE",
"633 318 LINE",
"559 494 OFFCURVE",
"453 643 OFFCURVE",
"328 780 CURVE"
);
}
);
};
layerId = "CFFEBDE4-599A-46B2-9328-D96E42CD9C81";
paths = (
{
closed = 1;
nodes = (
"432 549 LINE",
"361 268 OFFCURVE",
"258 9 OFFCURVE",
"90 -248 CURVE",
"161 -293 LINE",
"333 -26 OFFCURVE",
"426 218 OFFCURVE",
"503 505 CURVE"
);
},
{
closed = 1;
nodes = (
"162 396 LINE",
"276 222 OFFCURVE",
"367 38 OFFCURVE",
"440 -163 CURVE",
"517 -131 LINE",
"434 101 OFFCURVE",
"333 293 OFFCURVE",
"212 464 CURVE"
);
},
{
closed = 1;
nodes = (
"268 939 LINE",
"207 639 OFFCURVE",
"140 455 OFFCURVE",
"10 219 CURVE",
"85 178 LINE",
"215 410 OFFCURVE",
"282 597 OFFCURVE",
"353 923 CURVE"
);
},
{
closed = 1;
nodes = (
"261 762 LINE",
"382 608 OFFCURVE",
"490 453 OFFCURVE",
"577 259 CURVE",
"651 297 LINE",
"559 494 OFFCURVE",
"456 653 OFFCURVE",
"308 830 CURVE"
);
}
);
vertOrigin = 90;
vertWidth = 1312;
width = 643;
}
);
unicode = 1B19D;
},
{
glyphname = u1B19E;
lastChange = "2020-03-26 17:17:13 +0000";
layers = (
{
background = {
paths = (
{
closed = 1;
nodes = (
"234 597 LINE",
"310 421 OFFCURVE",
"357 202 OFFCURVE",
"357 17 CURVE SMOOTH",
"357 -98 OFFCURVE",
"350 -191 OFFCURVE",
"335 -284 CURVE",
"414 -293 LINE",
"428 -198 OFFCURVE",
"437 -100 OFFCURVE",
"437 27 CURVE SMOOTH",
"437 233 OFFCURVE",
"385 458 OFFCURVE",
"286 665 CURVE"
);
},
{
closed = 1;
nodes = (
"402 939 LINE",
"308 732 OFFCURVE",
"178 545 OFFCURVE",
"25 396 CURVE",
"82 344 LINE",
"239 495 OFFCURVE",
"371 674 OFFCURVE",
"476 912 CURVE"
);
},
{
closed = 1;
nodes = (
"534 649 LINE",
"419 446 OFFCURVE",
"287 286 OFFCURVE",
"90 115 CURVE",
"141 58 LINE",
"341 226 OFFCURVE",
"476 387 OFFCURVE",
"607 607 CURVE"
);
}
);
};
layerId = "CFFEBDE4-599A-46B2-9328-D96E42CD9C81";
paths = (
{
closed = 1;
nodes = (
"379 939 LINE",
"264 703 OFFCURVE",
"147 556 OFFCURVE",
"0 403 CURVE",
"60 342 LINE",
"233 519 OFFCURVE",
"336 667 OFFCURVE",
"458 903 CURVE"
);
},
{
closed = 1;
nodes = (
"542 647 LINE",
"399 428 OFFCURVE",
"268 282 OFFCURVE",
"75 113 CURVE",
"131 48 LINE",
"306 195 OFFCURVE",
"467 372 OFFCURVE",
"615 602 CURVE"
);
},
{
closed = 1;
nodes = (
"342 -293 LINE",
"456 -185 OFFCURVE",
"533 -81 OFFCURVE",
"621 79 CURVE",
"543 121 LINE",
"457 -46 OFFCURVE",
"381 -141 OFFCURVE",
"314 -220 CURVE",
"339 -227 LINE",
"363 -111 OFFCURVE",
"372 12 OFFCURVE",
"372 144 CURVE SMOOTH",
"372 311 OFFCURVE",
"348 465 OFFCURVE",
"288 682 CURVE",
"226 595 LINE",
"269 428 OFFCURVE",
"288 286 OFFCURVE",
"286 96 CURVE SMOOTH",
"285 -22 OFFCURVE",
"278 -128 OFFCURVE",
"255 -252 CURVE"
);
}
);
vertOrigin = 90;
vertWidth = 1312;
width = 641;
}
);
unicode = 1B19E;
},
{
glyphname = u1B19F;
lastChange = "2020-03-26 17:28:53 +0000";
layers = (
{
layerId = "CFFEBDE4-599A-46B2-9328-D96E42CD9C81";
paths = (
{
closed = 1;
nodes = (
"10 306 LINE",
"35 215 OFFCURVE",
"61 105 OFFCURVE",
"73 -3 CURVE",
"153 9 LINE",
"142 121 OFFCURVE",
"115 234 OFFCURVE",
"88 327 CURVE"
);
},
{
closed = 1;
nodes = (
"95 461 LINE",
"222 277 OFFCURVE",
"337 85 OFFCURVE",
"454 -150 CURVE",
"530 -111 LINE",
"407 132 OFFCURVE",
"282 339 OFFCURVE",
"144 541 CURVE",
"154 465 LINE",
"238 606 OFFCURVE",
"302 756 OFFCURVE",
"352 920 CURVE",
"270 939 LINE",
"221 783 OFFCURVE",
"163 652 OFFCURVE",
"95 532 CURVE"
);
},
{
closed = 1;
nodes = (
"335 687 OFFCURVE",
"368 598 OFFCURVE",
"368 492 CURVE SMOOTH",
"368 308 OFFCURVE",
"300 131 OFFCURVE",
"93 -252 CURVE",
"166 -293 LINE",
"376 80 OFFCURVE",
"454 308 OFFCURVE",
"454 492 CURVE SMOOTH",
"454 620 OFFCURVE",
"412 730 OFFCURVE",
"309 879 CURVE",
"274 780 LINE"
);
}
);
vertOrigin = 90;
vertWidth = 1312;
width = 535;
}
);
unicode = 1B19F;
},
{
glyphname = u1B1A0;
lastChange = "2020-03-26 17:33:40 +0000";
layers = (
{
background = {
paths = (
{
closed = 1;
nodes = (
"386 491 OFFCURVE",
"268 109 OFFCURVE",
"92 -257 CURVE",
"168 -293 LINE",
"352 87 OFFCURVE",
"463 457 OFFCURVE",
"515 879 CURVE",
"480 879 LINE",
"526 776 OFFCURVE",
"560 684 OFFCURVE",
"588 581 CURVE",
"670 602 LINE",
"637 727 OFFCURVE",
"599 824 OFFCURVE",
"533 939 CURVE",
"442 925 LINE"
);
},
{
closed = 1;
nodes = (
"266 450 OFFCURVE",
"383 167 OFFCURVE",
"480 -133 CURVE",
"561 -105 LINE",
"454 226 OFFCURVE",
"334 492 OFFCURVE",
"197 732 CURVE",
"113 719 LINE",
"87 551 OFFCURVE",
"68 463 OFFCURVE",
"35 350 CURVE",
"116 327 LINE",
"143 424 OFFCURVE",
"160 509 OFFCURVE",
"179 674 CURVE",
"136 671 LINE"
);
}
);
};
layerId = "CFFEBDE4-599A-46B2-9328-D96E42CD9C81";
paths = (
{
closed = 1;
nodes = (
"367 230 LINE",
"446 443 OFFCURVE",
"488 609 OFFCURVE",
"515 879 CURVE",
"481 879 LINE",
"522 779 OFFCURVE",
"556 698 OFFCURVE",
"588 581 CURVE",
"670 602 LINE",
"637 732 OFFCURVE",
"592 834 OFFCURVE",
"533 939 CURVE",
"442 925 LINE",
"409 670 OFFCURVE",
"383 516 OFFCURVE",
"328 348 CURVE"
);
},
{
closed = 1;
nodes = (
"409 265 OFFCURVE",
"319 541 OFFCURVE",
"197 732 CURVE",
"113 719 LINE",
"87 553 OFFCURVE",
"66 456 OFFCURVE",
"35 350 CURVE",
"116 327 LINE",
"146 432 OFFCURVE",
"163 530 OFFCURVE",
"179 674 CURVE",
"143 671 LINE",
"255 475 OFFCURVE",
"323 246 OFFCURVE",
"323 -6 CURVE SMOOTH",
"323 -88 OFFCURVE",
"320 -163 OFFCURVE",
"307 -287 CURVE",
"391 -293 LINE",
"404 -176 OFFCURVE",
"409 -100 OFFCURVE",
"409 0 CURVE SMOOTH"
);
}
);
vertOrigin = 90;
vertWidth = 1312;
width = 683;
}
);
unicode = 1B1A0;
},
{
glyphname = u1B1A1;
lastChange = "2020-03-26 17:34:11 +0000";
layers = (
{
layerId = "CFFEBDE4-599A-46B2-9328-D96E42CD9C81";
paths = (
{
closed = 1;
nodes = (
"169 271 LINE",
"219 86 OFFCURVE",
"243 -78 OFFCURVE",
"263 -276 CURVE",
"354 -293 LINE",
"439 -150 OFFCURVE",
"500 -2 OFFCURVE",
"554 202 CURVE",
"469 225 LINE",
"422 42 OFFCURVE",
"376 -78 OFFCURVE",
"310 -222 CURVE",
"341 -224 LINE",
"327 -42 OFFCURVE",
"303 113 OFFCURVE",
"233 350 CURVE"
);
},
{
closed = 1;
nodes = (
"347 939 LINE",
"281 586 OFFCURVE",
"184 316 OFFCURVE",
"20 49 CURVE",
"93 6 LINE",
"259 262 OFFCURVE",
"364 570 OFFCURVE",
"432 925 CURVE"
);
},
{
closed = 1;
nodes = (
"108 474 OFFCURVE",
"131 491 OFFCURVE",
"131 530 CURVE SMOOTH",
"131 569 OFFCURVE",
"108 586 OFFCURVE",
"80 586 CURVE SMOOTH",
"51 586 OFFCURVE",
"28 569 OFFCURVE",
"28 530 CURVE SMOOTH",
"28 491 OFFCURVE",
"51 474 OFFCURVE",
"80 474 CURVE SMOOTH"
);
}
);
vertOrigin = 90;
vertWidth = 1312;
width = 552;
}
);
unicode = 1B1A1;
},
{
glyphname = u1B1A2;
lastChange = "2020-03-26 17:34:56 +0000";
layers = (
{
layerId = "CFFEBDE4-599A-46B2-9328-D96E42CD9C81";
paths = (
{
closed = 1;
nodes = (
"333 -199 LINE",
"264 -8 OFFCURVE",
"190 151 OFFCURVE",
"82 343 CURVE",
"10 296 LINE",
"113 114 OFFCURVE",
"189 -46 OFFCURVE",
"264 -243 CURVE",
"364 -253 LINE",
"521 22 OFFCURVE",
"609 237 OFFCURVE",
"704 587 CURVE",
"621 608 LINE",
"529 266 OFFCURVE",
"441 53 OFFCURVE",
"301 -199 CURVE"
);
},
{
closed = 1;
nodes = (
"421 939 LINE",
"365 587 OFFCURVE",
"290 338 OFFCURVE",
"185 87 CURVE",
"239 19 LINE",
"377 319 OFFCURVE",
"447 574 OFFCURVE",
"507 929 CURVE"
);
},
{
closed = 1;
nodes = (
"94 659 LINE",
"236 461 OFFCURVE",
"340 278 OFFCURVE",
"446 43 CURVE",
"507 105 LINE",
"403 338 OFFCURVE",
"301 511 OFFCURVE",
"162 714 CURVE"
);
}
);
vertOrigin = 90;
vertWidth = 1312;
width = 712;
}
);
unicode = 1B1A2;
},
{
glyphname = u1B1A3;
lastChange = "2020-03-26 17:36:18 +0000";
layers = (
{
layerId = "CFFEBDE4-599A-46B2-9328-D96E42CD9C81";
paths = (
{
closed = 1;
nodes = (
"228 -293 LINE",
"370 -132 OFFCURVE",
"433 23 OFFCURVE",
"433 215 CURVE SMOOTH",
"433 394 OFFCURVE",
"378 517 OFFCURVE",
"243 695 CURVE",
"173 644 LINE",
"304 483 OFFCURVE",
"347 359 OFFCURVE",
"347 203 CURVE SMOOTH",
"347 53 OFFCURVE",
"290 -86 OFFCURVE",
"164 -242 CURVE"
);
},
{
closed = 1;
nodes = (
"336 939 LINE",
"244 785 OFFCURVE",
"132 654 OFFCURVE",
"0 538 CURVE",
"54 472 LINE",
"187 585 OFFCURVE",
"308 730 OFFCURVE",
"411 896 CURVE"
);
},
{
closed = 1;
nodes = (
"470 704 LINE",
"367 544 OFFCURVE",
"224 409 OFFCURVE",
"89 312 CURVE",
"140 243 LINE",
"293 357 OFFCURVE",
"423 475 OFFCURVE",
"542 658 CURVE"
);
},
{
closed = 1;
nodes = (
"102 18 LINE",
"252 -51 OFFCURVE",
"406 -161 OFFCURVE",
"506 -249 CURVE",
"555 -178 LINE",
"439 -77 OFFCURVE",
"290 21 OFFCURVE",
"145 95 CURVE"
);
}
);
vertOrigin = 90;
vertWidth = 1312;
width = 593;
}
);
unicode = 1B1A3;
},
{
glyphname = u1B1A4;
lastChange = "2020-03-26 17:36:57 +0000";
layers = (
{
layerId = "CFFEBDE4-599A-46B2-9328-D96E42CD9C81";
paths = (
{
closed = 1;
nodes = (
"215 344 OFFCURVE",
"380 219 OFFCURVE",
"504 111 CURVE",
"501 172 LINE",
"424 20 OFFCURVE",
"337 -104 OFFCURVE",
"226 -240 CURVE",
"289 -293 LINE",
"406 -151 OFFCURVE",
"504 -11 OFFCURVE",
"585 151 CURVE",
"443 277 OFFCURVE",
"270 409 OFFCURVE",
"109 516 CURVE",
"113 470 LINE",
"206 603 OFFCURVE",
"277 740 OFFCURVE",
"346 905 CURVE",
"267 939 LINE",
"199 775 OFFCURVE",
"132 645 OFFCURVE",
"20 476 CURVE"
);
},
{
closed = 1;
nodes = (
"448 642 LINE",
"338 434 OFFCURVE",
"215 252 OFFCURVE",
"64 74 CURVE",
"130 22 LINE",
"296 220 OFFCURVE",
"416 390 OFFCURVE",
"523 601 CURVE"
);
}
);
vertOrigin = 90;
vertWidth = 1312;
width = 603;
}
);
unicode = 1B1A4;
},
{
glyphname = u1B1A5;
lastChange = "2020-03-26 17:38:25 +0000";
layers = (
{
background = {
paths = (
{
closed = 1;
nodes = (
"403 215 LINE",
"392 287 OFFCURVE",
"371 357 OFFCURVE",
"345 419 CURVE",
"271 389 LINE",
"302 314 OFFCURVE",
"319 246 OFFCURVE",
"336 169 CURVE",
"443 169 LINE",
"486 244 OFFCURVE",
"518 324 OFFCURVE",
"518 423 CURVE SMOOTH",
"518 520 OFFCURVE",
"471 652 OFFCURVE",
"336 801 CURVE",
"298 735 LINE",
"403 597 OFFCURVE",
"432 481 OFFCURVE",
"432 400 CURVE SMOOTH",
"432 332 OFFCURVE",
"415 269 OFFCURVE",
"389 206 CURVE"
);
},
{
closed = 1;
nodes = (
"363 939 LINE",
"285 772 OFFCURVE",
"180 633 OFFCURVE",
"57 520 CURVE",
"97 371 OFFCURVE",
"108 254 OFFCURVE",
"108 135 CURVE SMOOTH",
"108 -3 OFFCURVE",
"86 -128 OFFCURVE",
"40 -269 CURVE",
"116 -293 LINE",
"162 -143 OFFCURVE",
"188 -24 OFFCURVE",
"188 145 CURVE SMOOTH",
"188 271 OFFCURVE",
"173 388 OFFCURVE",
"135 538 CURVE",
"130 478 LINE",
"246 592 OFFCURVE",
"363 732 OFFCURVE",
"438 907 CURVE"
);
}
);
};
layerId = "CFFEBDE4-599A-46B2-9328-D96E42CD9C81";
paths = (
{
closed = 1;
nodes = (
"495 628 LINE",
"389 480 OFFCURVE",
"295 394 OFFCURVE",
"137 279 CURVE",
"179 208 LINE",
"338 317 OFFCURVE",
"452 423 OFFCURVE",
"562 578 CURVE"
);
},
{
closed = 1;
nodes = (
"247 673 LINE",
"342 433 OFFCURVE",
"378 216 OFFCURVE",
"391 6 CURVE",
"474 12 LINE",
"464 246 OFFCURVE",
"416 474 OFFCURVE",
"310 738 CURVE"
);
},
{
closed = 1;
nodes = (
"360 939 LINE",
"280 765 OFFCURVE",
"178 637 OFFCURVE",
"56 520 CURVE",
"90 397 OFFCURVE",
"108 270 OFFCURVE",
"108 135 CURVE SMOOTH",
"108 -15 OFFCURVE",
"86 -128 OFFCURVE",
"40 -269 CURVE",
"120 -293 LINE",
"172 -147 OFFCURVE",
"194 -24 OFFCURVE",
"194 125 CURVE SMOOTH",
"194 279 OFFCURVE",
"176 396 OFFCURVE",
"134 538 CURVE",
"136 478 LINE",
"248 595 OFFCURVE",
"347 701 OFFCURVE",
"439 907 CURVE"
);
}
);
vertOrigin = 90;
vertWidth = 1312;
width = 557;
}
);
unicode = 1B1A5;
},
{
glyphname = u1B1A6;
lastChange = "2020-03-26 17:39:50 +0000";
layers = (
{
layerId = "CFFEBDE4-599A-46B2-9328-D96E42CD9C81";
paths = (
{
closed = 1;
nodes = (
"401 939 LINE",
"324 634 OFFCURVE",
"200 344 OFFCURVE",
"37 59 CURVE",
"111 18 LINE",
"290 334 OFFCURVE",
"400 598 OFFCURVE",
"486 921 CURVE"
);
},
{
closed = 1;
nodes = (
"80 751 LINE",
"271 536 OFFCURVE",
"426 323 OFFCURVE",
"579 73 CURVE",
"650 116 LINE",
"484 395 OFFCURVE",
"341 586 OFFCURVE",
"141 808 CURVE"
);
},
{
closed = 1;
nodes = (
"532 635 LINE",
"438 320 OFFCURVE",
"309 37 OFFCURVE",
"136 -251 CURVE",
"209 -293 LINE",
"370 -17 OFFCURVE",
"507 267 OFFCURVE",
"616 611 CURVE"
);
},
{
closed = 1;
nodes = (
"20 461 LINE",
"216 241 OFFCURVE",
"357 24 OFFCURVE",
"485 -208 CURVE",
"554 -169 LINE",
"414 90 OFFCURVE",
"269 298 OFFCURVE",
"80 520 CURVE"
);
}
);
vertOrigin = 90;
vertWidth = 1312;
width = 669;
}
);
unicode = 1B1A6;
},
{
glyphname = u1B1A7;
lastChange = "2020-03-26 17:40:22 +0000";
layers = (
{
background = {
paths = (
{
closed = 1;
nodes = (
"368 939 LINE",
"270 622 OFFCURVE",
"170 452 OFFCURVE",
"24 258 CURVE",
"90 208 LINE",
"249 418 OFFCURVE",
"346 601 OFFCURVE",
"448 918 CURVE"
);
},
{
closed = 1;
nodes = (
"517 202 LINE",
"408 10 OFFCURVE",
"336 -113 OFFCURVE",
"214 -240 CURVE",
"273 -293 LINE",
"406 -150 OFFCURVE",
"475 -37 OFFCURVE",
"591 164 CURVE"
);
},
{
closed = 1;
nodes = (
"421 -61 LINE",
"362 260 OFFCURVE",
"275 475 OFFCURVE",
"148 784 CURVE",
"69 746 LINE",
"205 432 OFFCURVE",
"285 209 OFFCURVE",
"344 -90 CURVE"
);
},
{
closed = 1;
nodes = (
"422 489 LINE",
"336 317 OFFCURVE",
"240 162 OFFCURVE",
"121 13 CURVE",
"185 -35 LINE",
"304 114 OFFCURVE",
"403 270 OFFCURVE",
"496 452 CURVE"
);
}
);
};
layerId = "CFFEBDE4-599A-46B2-9328-D96E42CD9C81";
paths = (
{
closed = 1;
nodes = (
"408 939 LINE",
"296 649 OFFCURVE",
"200 478 OFFCURVE",
"20 256 CURVE",
"88 202 LINE",
"271 434 OFFCURVE",
"372 622 OFFCURVE",
"491 912 CURVE"
);
},
{
closed = 1;
nodes = (
"556 207 LINE",
"447 15 OFFCURVE",
"331 -117 OFFCURVE",
"212 -232 CURVE",
"273 -293 LINE",
"403 -162 OFFCURVE",
"515 -37 OFFCURVE",
"631 164 CURVE"
);
},
{
closed = 1;
nodes = (
"206 451 LINE",
"276 272 OFFCURVE",
"330 87 OFFCURVE",
"377 -108 CURVE",
"454 -76 LINE",
"405 142 OFFCURVE",
"341 341 OFFCURVE",
"269 526 CURVE"
);
},
{
closed = 1;
nodes = (
"465 490 LINE",
"366 309 OFFCURVE",
"264 171 OFFCURVE",
"123 20 CURVE",
"186 -38 LINE",
"327 113 OFFCURVE",
"434 263 OFFCURVE",
"540 446 CURVE"
);
}
);
vertOrigin = 90;
vertWidth = 1312;
width = 651;
}
);
unicode = 1B1A7;
},
{
glyphname = u1B1A8;
lastChange = "2020-03-26 17:41:03 +0000";
layers = (
{
layerId = "CFFEBDE4-599A-46B2-9328-D96E42CD9C81";
paths = (
{
closed = 1;
nodes = (
"230 -134 OFFCURVE",
"253 -117 OFFCURVE",
"253 -78 CURVE SMOOTH",
"253 -39 OFFCURVE",
"230 -22 OFFCURVE",
"202 -22 CURVE SMOOTH",
"173 -22 OFFCURVE",
"150 -39 OFFCURVE",
"150 -78 CURVE SMOOTH",
"150 -117 OFFCURVE",
"173 -134 OFFCURVE",
"202 -134 CURVE SMOOTH"
);
},
{
closed = 1;
nodes = (
"612 169 OFFCURVE",
"635 186 OFFCURVE",
"635 225 CURVE SMOOTH",
"635 264 OFFCURVE",
"612 281 OFFCURVE",
"584 281 CURVE SMOOTH",
"555 281 OFFCURVE",
"532 264 OFFCURVE",
"532 225 CURVE SMOOTH",
"532 186 OFFCURVE",
"555 169 OFFCURVE",
"584 169 CURVE SMOOTH"
);
},
{
closed = 1;
nodes = (
"229 597 LINE",
"308 404 OFFCURVE",
"347 240 OFFCURVE",
"347 17 CURVE SMOOTH",
"347 -98 OFFCURVE",
"342 -193 OFFCURVE",
"330 -286 CURVE",
"413 -293 LINE",
"424 -198 OFFCURVE",
"431 -100 OFFCURVE",
"431 27 CURVE SMOOTH",
"431 233 OFFCURVE",
"384 458 OFFCURVE",
"285 665 CURVE"
);
},
{
closed = 1;
nodes = (
"397 939 LINE",
"303 732 OFFCURVE",
"173 545 OFFCURVE",
"20 396 CURVE",
"79 334 LINE",
"236 485 OFFCURVE",
"372 671 OFFCURVE",
"477 909 CURVE"
);
},
{
closed = 1;
nodes = (
"554 630 LINE",
"429 434 OFFCURVE",
"288 282 OFFCURVE",
"82 120 CURVE",
"134 53 LINE",
"343 211 OFFCURVE",
"485 371 OFFCURVE",
"628 583 CURVE"
);
}
);
vertOrigin = 90;
vertWidth = 1312;
width = 645;
}
);
unicode = 1B1A8;
},
{
glyphname = u1B1A9;
lastChange = "2020-03-26 17:42:09 +0000";
layers = (
{
layerId = "CFFEBDE4-599A-46B2-9328-D96E42CD9C81";
paths = (
{
closed = 1;
nodes = (
"404 159 LINE",
"385 257 OFFCURVE",
"356 345 OFFCURVE",
"315 431 CURVE",
"248 384 LINE",
"287 293 OFFCURVE",
"311 217 OFFCURVE",
"333 115 CURVE"
);
},
{
closed = 1;
nodes = (
"537 365 LINE",
"390 229 OFFCURVE",
"249 138 OFFCURVE",
"67 46 CURVE",
"109 -29 LINE",
"296 66 OFFCURVE",
"438 159 OFFCURVE",
"596 302 CURVE"
);
},
{
closed = 1;
nodes = (
"495 199 OFFCURVE",
"523 145 OFFCURVE",
"523 93 CURVE SMOOTH",
"523 -10 OFFCURVE",
"437 -78 OFFCURVE",
"140 -220 CURVE",
"181 -293 LINE",
"521 -134 OFFCURVE",
"609 -45 OFFCURVE",
"609 97 CURVE SMOOTH",
"609 177 OFFCURVE",
"565 242 OFFCURVE",
"493 304 CURVE",
"438 253 LINE"
);
},
{
closed = 1;
nodes = (
"461 939 LINE",
"313 790 OFFCURVE",
"192 705 OFFCURVE",
"10 602 CURVE",
"52 528 LINE",
"232 625 OFFCURVE",
"376 726 OFFCURVE",
"524 881 CURVE"
);
},
{
closed = 1;
nodes = (
"431 751 OFFCURVE",
"450 714 OFFCURVE",
"450 657 CURVE SMOOTH",
"450 555 OFFCURVE",
"355 468 OFFCURVE",
"47 314 CURVE",
"90 239 LINE",
"460 423 OFFCURVE",
"536 529 OFFCURVE",
"536 657 CURVE SMOOTH",
"536 733 OFFCURVE",
"501 798 OFFCURVE",
"451 849 CURVE",
"383 803 LINE"
);
}
);
vertOrigin = 90;
vertWidth = 1312;
width = 645;
}
);
unicode = 1B1A9;
},
{
glyphname = u1B1AA;
lastChange = "2020-03-26 17:43:21 +0000";
layers = (
{
layerId = "CFFEBDE4-599A-46B2-9328-D96E42CD9C81";
paths = (
{
closed = 1;
nodes = (
"16 -205 OFFCURVE",
"45 -253 OFFCURVE",
"113 -293 CURVE",
"184 -284 LINE",
"247 -197 OFFCURVE",
"270 -140 OFFCURVE",
"270 -79 CURVE SMOOTH",
"270 -19 OFFCURVE",
"236 22 OFFCURVE",
"168 60 CURVE",
"94 50 LINE",
"36 -32 OFFCURVE",
"16 -99 OFFCURVE",
"16 -148 CURVE SMOOTH"
);
},
{
closed = 1;
nodes = (
"121 13 LINE",
"168 -23 OFFCURVE",
"185 -61 OFFCURVE",
"185 -90 CURVE SMOOTH",
"185 -133 OFFCURVE",
"172 -173 OFFCURVE",
"129 -246 CURVE",
"157 -246 LINE",
"115 -209 OFFCURVE",
"100 -183 OFFCURVE",
"100 -144 CURVE SMOOTH",
"100 -100 OFFCURVE",
"115 -52 OFFCURVE",
"156 16 CURVE"
);
},
{
closed = 1;
nodes = (
"431 939 LINE",
"290 741 OFFCURVE",
"170 613 OFFCURVE",
"10 479 CURVE",
"63 414 LINE",
"231 550 OFFCURVE",
"360 688 OFFCURVE",
"506 897 CURVE"
);
},
{
closed = 1;
nodes = (
"421 710 OFFCURVE",
"441 666 OFFCURVE",
"441 603 CURVE SMOOTH",
"441 488 OFFCURVE",
"349 395 OFFCURVE",
"98 196 CURVE",
"151 131 LINE",
"424 334 OFFCURVE",
"527 463 OFFCURVE",
"527 603 CURVE SMOOTH",
"527 693 OFFCURVE",
"499 758 OFFCURVE",
"405 840 CURVE",
"354 773 LINE"
);
},
{
closed = 1;
nodes = (
"342 329 LINE",
"367 203 OFFCURVE",
"372 100 OFFCURVE",
"372 9 CURVE SMOOTH",
"372 -79 OFFCURVE",
"369 -139 OFFCURVE",
"358 -224 CURVE",
"443 -233 LINE",
"454 -144 OFFCURVE",
"458 -66 OFFCURVE",
"458 21 CURVE SMOOTH",
"458 128 OFFCURVE",
"447 250 OFFCURVE",
"412 407 CURVE"
);
}
);
vertOrigin = 90;
vertWidth = 1312;
width = 577;
}
);
unicode = 1B1AA;
},
{
glyphname = u1B1AB;
lastChange = "2020-03-26 18:01:25 +0000";
layers = (
{
layerId = "CFFEBDE4-599A-46B2-9328-D96E42CD9C81";
paths = (
{
closed = 1;
nodes = (
"250 939 LINE",
"250 396 OFFCURVE",
"238 232 OFFCURVE",
"190 28 CURVE",
"274 9 LINE",
"323 221 OFFCURVE",
"336 389 OFFCURVE",
"336 937 CURVE"
);
},
{
closed = 1;
nodes = (
"281 540 LINE",
"342 456 OFFCURVE",
"398 355 OFFCURVE",
"438 264 CURVE",
"515 308 LINE",
"463 422 OFFCURVE",
"414 505 OFFCURVE",
"333 614 CURVE"
);
},
{
closed = 1;
nodes = (
"325 678 OFFCURVE",
"178 535 OFFCURVE",
"30 431 CURVE",
"59 236 OFFCURVE",
"73 99 OFFCURVE",
"73 -90 CURVE SMOOTH",
"73 -166 OFFCURVE",
"67 -226 OFFCURVE",
"58 -284 CURVE",
"143 -293 LINE",
"151 -232 OFFCURVE",
"157 -160 OFFCURVE",
"157 -88 CURVE SMOOTH",
"157 128 OFFCURVE",
"144 249 OFFCURVE",
"110 445 CURVE",
"83 361 LINE",
"224 464 OFFCURVE",
"372 606 OFFCURVE",
"524 778 CURVE",
"486 794 LINE",
"531 642 OFFCURVE",
"549 499 OFFCURVE",
"549 354 CURVE SMOOTH",
"549 264 OFFCURVE",
"546 210 OFFCURVE",
"543 161 CURVE",
"624 155 LINE",
"630 222 OFFCURVE",
"633 286 OFFCURVE",
"633 345 CURVE SMOOTH",
"633 524 OFFCURVE",
"611 669 OFFCURVE",
"569 835 CURVE",
"477 856 LINE"
);
}
);
vertOrigin = 90;
vertWidth = 1312;
width = 686;
}
);
unicode = 1B1AB;
},
{
glyphname = u1B1AC;
lastChange = "2020-03-26 18:00:36 +0000";
layers = (
{
layerId = "CFFEBDE4-599A-46B2-9328-D96E42CD9C81";
paths = (
{
closed = 1;
nodes = (
"142 323 LINE",
"124 201 OFFCURVE",
"92 81 OFFCURVE",
"51 -24 CURVE",
"128 -53 LINE",
"170 53 OFFCURVE",
"207 185 OFFCURVE",
"225 305 CURVE"
);
},
{
closed = 1;
nodes = (
"0 140 LINE",
"78 118 OFFCURVE",
"180 87 OFFCURVE",
"251 51 CURVE",
"282 128 LINE",
"212 165 OFFCURVE",
"106 197 OFFCURVE",
"19 218 CURVE"
);
},
{
closed = 1;
nodes = (
"155 461 LINE",
"282 277 OFFCURVE",
"378 99 OFFCURVE",
"494 -150 CURVE",
"570 -111 LINE",
"448 146 OFFCURVE",
"342 339 OFFCURVE",
"204 541 CURVE",
"214 465 LINE",
"298 606 OFFCURVE",
"362 756 OFFCURVE",
"412 920 CURVE",
"330 939 LINE",
"281 783 OFFCURVE",
"223 652 OFFCURVE",
"155 532 CURVE"
);
},
{
closed = 1;
nodes = (
"395 687 OFFCURVE",
"428 598 OFFCURVE",
"428 492 CURVE SMOOTH",
"428 308 OFFCURVE",
"359 142 OFFCURVE",
"133 -252 CURVE",
"206 -293 LINE",
"435 91 OFFCURVE",
"514 308 OFFCURVE",
"514 492 CURVE SMOOTH",
"514 620 OFFCURVE",
"472 730 OFFCURVE",
"369 879 CURVE",
"334 780 LINE"
);
}
);
vertOrigin = 90;
vertWidth = 1312;
width = 617;
}
);
unicode = 1B1AC;
},
{
glyphname = u1B1AD;
lastChange = "2020-03-26 17:53:25 +0000";
layers = (
{
layerId = "CFFEBDE4-599A-46B2-9328-D96E42CD9C81";
paths = (
{
closed = 1;
nodes = (
"353 479 LINE",
"291 363 OFFCURVE",
"215 266 OFFCURVE",
"128 182 CURVE",
"189 124 LINE",
"280 210 OFFCURVE",
"356 309 OFFCURVE",
"426 437 CURVE"
);
},
{
closed = 1;
nodes = (
"441 280 LINE",
"361 153 OFFCURVE",
"281 66 OFFCURVE",
"183 -18 CURVE",
"238 -82 LINE",
"334 -2 OFFCURVE",
"423 93 OFFCURVE",
"511 235 CURVE"
);
},
{
closed = 1;
nodes = (
"535 96 LINE",
"445 -43 OFFCURVE",
"353 -138 OFFCURVE",
"228 -229 CURVE",
"280 -293 LINE",
"408 -198 OFFCURVE",
"511 -100 OFFCURVE",
"604 48 CURVE"
);
},
{
closed = 1;
nodes = (
"320 939 LINE",
"233 678 OFFCURVE",
"154 526 OFFCURVE",
"10 329 CURVE",
"78 277 LINE",
"219 463 OFFCURVE",
"313 647 OFFCURVE",
"403 916 CURVE"
);
},
{
closed = 1;
nodes = (
"303 784 LINE",
"405 648 OFFCURVE",
"505 492 OFFCURVE",
"586 317 CURVE",
"663 357 LINE",
"561 564 OFFCURVE",
"469 714 OFFCURVE",
"343 854 CURVE"
);
}
);
vertOrigin = 90;
vertWidth = 1312;
width = 680;
}
);
unicode = 1B1AD;
},
{
glyphname = u1B1AE;
lastChange = "2020-03-26 17:52:00 +0000";
layers = (
{
layerId = "CFFEBDE4-599A-46B2-9328-D96E42CD9C81";
paths = (
{
closed = 1;
nodes = (
"407 403 LINE",
"347 257 OFFCURVE",
"285 146 OFFCURVE",
"192 33 CURVE",
"257 -21 LINE",
"357 107 OFFCURVE",
"424 219 OFFCURVE",
"483 369 CURVE"
);
},
{
closed = 1;
nodes = (
"531 194 LINE",
"456 30 OFFCURVE",
"378 -84 OFFCURVE",
"250 -240 CURVE",
"320 -293 LINE",
"444 -144 OFFCURVE",
"527 -18 OFFCURVE",
"608 159 CURVE"
);
},
{
closed = 1;
nodes = (
"211 264 LINE",
"306 438 OFFCURVE",
"381 619 OFFCURVE",
"451 922 CURVE",
"368 939 LINE",
"300 662 OFFCURVE",
"237 486 OFFCURVE",
"160 332 CURVE",
"191 330 LINE",
"157 451 OFFCURVE",
"126 536 OFFCURVE",
"75 637 CURVE",
"0 599 LINE",
"54 486 OFFCURVE",
"96 388 OFFCURVE",
"128 274 CURVE"
);
},
{
closed = 1;
nodes = (
"340 763 LINE",
"424 666 OFFCURVE",
"520 536 OFFCURVE",
"612 358 CURVE",
"686 403 LINE",
"592 586 OFFCURVE",
"484 726 OFFCURVE",
"393 826 CURVE"
);
}
);
vertOrigin = 90;
vertWidth = 1312;
width = 645;
}
);
unicode = 1B1AE;
},
{
glyphname = u1B1AF;
lastChange = "2020-03-26 17:50:10 +0000";
layers = (
{
layerId = "CFFEBDE4-599A-46B2-9328-D96E42CD9C81";
paths = (
{
closed = 1;
nodes = (
"80 126 OFFCURVE",
"103 143 OFFCURVE",
"103 182 CURVE SMOOTH",
"103 221 OFFCURVE",
"80 238 OFFCURVE",
"52 238 CURVE SMOOTH",
"23 238 OFFCURVE",
"0 221 OFFCURVE",
"0 182 CURVE SMOOTH",
"0 143 OFFCURVE",
"23 126 OFFCURVE",
"52 126 CURVE SMOOTH"
);
},
{
closed = 1;
nodes = (
"342 715 OFFCURVE",
"365 732 OFFCURVE",
"365 771 CURVE SMOOTH",
"365 810 OFFCURVE",
"342 827 OFFCURVE",
"314 827 CURVE SMOOTH",
"285 827 OFFCURVE",
"262 810 OFFCURVE",
"262 771 CURVE SMOOTH",
"262 732 OFFCURVE",
"285 715 OFFCURVE",
"314 715 CURVE SMOOTH"
);
},
{
closed = 1;
nodes = (
"167 528 OFFCURVE",
"201 375 OFFCURVE",
"201 177 CURVE SMOOTH",
"201 10 OFFCURVE",
"177 -132 OFFCURVE",
"137 -268 CURVE",
"215 -293 LINE",
"256 -156 OFFCURVE",
"285 -4 OFFCURVE",
"285 178 CURVE SMOOTH",
"285 396 OFFCURVE",
"244 559 OFFCURVE",
"149 747 CURVE",
"78 712 LINE"
);
},
{
closed = 1;
nodes = (
"461 660 OFFCURVE",
"338 459 OFFCURVE",
"201 306 CURVE",
"236 231 LINE",
"418 421 OFFCURVE",
"537 596 OFFCURVE",
"608 920 CURVE",
"524 939 LINE"
);
},
{
closed = 1;
nodes = (
"394 539 LINE",
"466 398 OFFCURVE",
"508 256 OFFCURVE",
"533 94 CURVE",
"620 108 LINE",
"591 295 OFFCURVE",
"537 444 OFFCURVE",
"447 603 CURVE"
);
}
);
vertOrigin = 90;
vertWidth = 1312;
width = 660;
}
);
unicode = 1B1AF;
},
{
glyphname = u1B1B0;
lastChange = "2020-03-26 17:48:41 +0000";
layers = (
{
layerId = "CFFEBDE4-599A-46B2-9328-D96E42CD9C81";
paths = (
{
closed = 1;
nodes = (
"559 599 OFFCURVE",
"582 616 OFFCURVE",
"582 655 CURVE SMOOTH",
"582 694 OFFCURVE",
"559 711 OFFCURVE",
"531 711 CURVE SMOOTH",
"502 711 OFFCURVE",
"479 694 OFFCURVE",
"479 655 CURVE SMOOTH",
"479 616 OFFCURVE",
"502 599 OFFCURVE",
"531 599 CURVE SMOOTH"
);
},
{
closed = 1;
nodes = (
"40 407 OFFCURVE",
"63 424 OFFCURVE",
"63 463 CURVE SMOOTH",
"63 502 OFFCURVE",
"40 519 OFFCURVE",
"12 519 CURVE SMOOTH",
"-17 519 OFFCURVE",
"-40 502 OFFCURVE",
"-40 463 CURVE SMOOTH",
"-40 424 OFFCURVE",
"-17 407 OFFCURVE",
"12 407 CURVE SMOOTH"
);
},
{
closed = 1;
nodes = (
"277 338 LINE",
"294 235 OFFCURVE",
"301 146 OFFCURVE",
"301 48 CURVE SMOOTH",
"301 -75 OFFCURVE",
"296 -171 OFFCURVE",
"276 -280 CURVE",
"359 -293 LINE",
"380 -176 OFFCURVE",
"387 -76 OFFCURVE",
"387 41 CURVE SMOOTH",
"387 148 OFFCURVE",
"377 245 OFFCURVE",
"358 350 CURVE"
);
},
{
closed = 1;
nodes = (
"345 939 LINE",
"298 685 OFFCURVE",
"206 464 OFFCURVE",
"31 220 CURVE",
"102 172 LINE",
"276 416 OFFCURVE",
"378 651 OFFCURVE",
"430 926 CURVE"
);
},
{
closed = 1;
nodes = (
"181 583 OFFCURVE",
"334 468 OFFCURVE",
"477 321 CURVE",
"534 386 LINE",
"375 544 OFFCURVE",
"235 645 OFFCURVE",
"38 746 CURVE",
"0 668 LINE"
);
}
);
vertOrigin = 90;
vertWidth = 1312;
width = 602;
}
);
unicode = 1B1B0;
},
{
glyphname = u1B1B1;
lastChange = "2020-03-26 17:48:14 +0000";
layers = (
{
layerId = "CFFEBDE4-599A-46B2-9328-D96E42CD9C81";
paths = (
{
closed = 1;
nodes = (
"53 114 LINE",
"94 -23 OFFCURVE",
"118 -153 OFFCURVE",
"132 -293 CURVE",
"216 -283 LINE",
"202 -132 OFFCURVE",
"176 0 OFFCURVE",
"133 139 CURVE"
);
},
{
closed = 1;
nodes = (
"530 536 LINE",
"464 362 OFFCURVE",
"401 244 OFFCURVE",
"288 71 CURVE",
"334 73 LINE",
"292 327 OFFCURVE",
"234 569 OFFCURVE",
"131 810 CURVE",
"52 776 LINE",
"154 543 OFFCURVE",
"212 324 OFFCURVE",
"260 48 CURVE",
"353 30 LINE",
"465 190 OFFCURVE",
"529 310 OFFCURVE",
"611 505 CURVE"
);
},
{
closed = 1;
nodes = (
"329 448 LINE",
"417 303 OFFCURVE",
"465 176 OFFCURVE",
"512 36 CURVE",
"591 63 LINE",
"537 238 OFFCURVE",
"489 350 OFFCURVE",
"399 494 CURVE"
);
},
{
closed = 1;
nodes = (
"371 939 LINE",
"292 714 OFFCURVE",
"166 503 OFFCURVE",
"18 297 CURVE",
"87 247 LINE",
"242 455 OFFCURVE",
"360 663 OFFCURVE",
"454 913 CURVE"
);
}
);
vertOrigin = 90;
vertWidth = 1312;
width = 631;
}
);
unicode = 1B1B1;
},
{
glyphname = u1B1B2;
lastChange = "2020-03-26 17:47:31 +0000";
layers = (
{
layerId = "CFFEBDE4-599A-46B2-9328-D96E42CD9C81";
paths = (
{
closed = 1;
nodes = (
"18 -146 OFFCURVE",
"45 -185 OFFCURVE",
"113 -225 CURVE",
"184 -216 LINE",
"241 -138 OFFCURVE",
"267 -72 OFFCURVE",
"267 -1 CURVE SMOOTH",
"267 49 OFFCURVE",
"236 90 OFFCURVE",
"168 128 CURVE",
"94 118 LINE",
"43 36 OFFCURVE",
"18 -28 OFFCURVE",
"18 -80 CURVE SMOOTH"
);
},
{
closed = 1;
nodes = (
"121 81 LINE",
"168 45 OFFCURVE",
"185 14 OFFCURVE",
"185 -15 CURVE SMOOTH",
"185 -58 OFFCURVE",
"168 -102 OFFCURVE",
"129 -178 CURVE",
"157 -178 LINE",
"115 -141 OFFCURVE",
"100 -115 OFFCURVE",
"100 -76 CURVE SMOOTH",
"100 -32 OFFCURVE",
"119 16 OFFCURVE",
"156 84 CURVE"
);
},
{
closed = 1;
nodes = (
"304 335 LINE",
"334 222 OFFCURVE",
"346 134 OFFCURVE",
"346 31 CURVE SMOOTH",
"346 -75 OFFCURVE",
"336 -172 OFFCURVE",
"304 -272 CURVE",
"383 -293 LINE",
"417 -183 OFFCURVE",
"430 -76 OFFCURVE",
"430 41 CURVE SMOOTH",
"430 124 OFFCURVE",
"417 243 OFFCURVE",
"379 354 CURVE"
);
},
{
closed = 1;
nodes = (
"380 939 LINE",
"333 685 OFFCURVE",
"249 494 OFFCURVE",
"74 250 CURVE",
"145 202 LINE",
"319 446 OFFCURVE",
"413 649 OFFCURVE",
"465 924 CURVE"
);
},
{
closed = 1;
nodes = (
"216 581 OFFCURVE",
"369 466 OFFCURVE",
"512 319 CURVE",
"571 386 LINE",
"412 544 OFFCURVE",
"272 643 OFFCURVE",
"75 744 CURVE",
"35 666 LINE"
);
}
);
vertOrigin = 90;
vertWidth = 1312;
width = 580;
}
);
unicode = 1B1B2;
},
{
glyphname = u1B1B3;
lastChange = "2020-03-26 17:46:56 +0000";
layers = (
{
layerId = "CFFEBDE4-599A-46B2-9328-D96E42CD9C81";
paths = (
{
closed = 1;
nodes = (
"617 142 OFFCURVE",
"640 159 OFFCURVE",
"640 198 CURVE SMOOTH",
"640 237 OFFCURVE",
"617 254 OFFCURVE",
"589 254 CURVE SMOOTH",
"560 254 OFFCURVE",
"537 237 OFFCURVE",
"537 198 CURVE SMOOTH",
"537 159 OFFCURVE",
"560 142 OFFCURVE",
"589 142 CURVE SMOOTH"
);
},
{
closed = 1;
nodes = (
"207 -125 OFFCURVE",
"230 -108 OFFCURVE",
"230 -69 CURVE SMOOTH",
"230 -30 OFFCURVE",
"207 -13 OFFCURVE",
"179 -13 CURVE SMOOTH",
"150 -13 OFFCURVE",
"127 -30 OFFCURVE",
"127 -69 CURVE SMOOTH",
"127 -108 OFFCURVE",
"150 -125 OFFCURVE",
"179 -125 CURVE SMOOTH"
);
},
{
closed = 1;
nodes = (
"425 939 LINE",
"296 747 OFFCURVE",
"168 611 OFFCURVE",
"0 459 CURVE",
"54 396 LINE",
"228 546 OFFCURVE",
"362 687 OFFCURVE",
"498 895 CURVE"
);
},
{
closed = 1;
nodes = (
"407 714 OFFCURVE",
"431 666 OFFCURVE",
"431 603 CURVE SMOOTH",
"431 474 OFFCURVE",
"342 368 OFFCURVE",
"61 139 CURVE",
"114 74 LINE",
"424 311 OFFCURVE",
"517 449 OFFCURVE",
"517 603 CURVE SMOOTH",
"517 693 OFFCURVE",
"477 765 OFFCURVE",
"403 844 CURVE",
"354 773 LINE"
);
},
{
closed = 1;
nodes = (
"316 302 LINE",
"334 172 OFFCURVE",
"342 83 OFFCURVE",
"342 -51 CURVE SMOOTH",
"342 -139 OFFCURVE",
"339 -201 OFFCURVE",
"329 -284 CURVE",
"413 -293 LINE",
"424 -204 OFFCURVE",
"428 -126 OFFCURVE",
"428 -39 CURVE SMOOTH",
"428 68 OFFCURVE",
"417 190 OFFCURVE",
"382 347 CURVE"
);
}
);
vertOrigin = 90;
vertWidth = 1312;
width = 650;
}
);
unicode = 1B1B3;
},
{
glyphname = u1B1B4;
lastChange = "2020-03-26 17:46:32 +0000";
layers = (
{
background = {
paths = (
{
closed = 1;
nodes = (
"376 633 LINE",
"321 413 OFFCURVE",
"253 243 OFFCURVE",
"165 60 CURVE",
"214 -27 LINE",
"307 161 OFFCURVE",
"369 306 OFFCURVE",
"425 503 CURVE"
);
},
{
closed = 1;
nodes = (
"252 778 LINE",
"342 620 OFFCURVE",
"423 468 OFFCURVE",
"508 256 CURVE",
"519 408 LINE",
"454 189 OFFCURVE",
"373 -8 OFFCURVE",
"296 -168 CURVE",
"325 -186 LINE",
"267 -20 OFFCURVE",
"190 133 OFFCURVE",
"105 303 CURVE",
"96 201 LINE",
"195 430 OFFCURVE",
"265 604 OFFCURVE",
"343 919 CURVE",
"257 939 LINE",
"183 638 OFFCURVE",
"107 442 OFFCURVE",
"30 260 CURVE",
"118 79 OFFCURVE",
"200 -76 OFFCURVE",
"251 -243 CURVE",
"339 -253 LINE",
"438 -62 OFFCURVE",
"518 111 OFFCURVE",
"584 331 CURVE",
"504 514 OFFCURVE",
"418 678 OFFCURVE",
"316 854 CURVE"
);
}
);
};
layerId = "CFFEBDE4-599A-46B2-9328-D96E42CD9C81";
paths = (
{
closed = 1;
nodes = (
"339 345 OFFCURVE",
"260 199 OFFCURVE",
"155 55 CURVE",
"214 -10 LINE",
"329 152 OFFCURVE",
"400 277 OFFCURVE",
"477 452 CURVE",
"455 461 LINE",
"488 372 OFFCURVE",
"514 289 OFFCURVE",
"544 172 CURVE",
"566 271 LINE",
"469 66 OFFCURVE",
"385 -56 OFFCURVE",
"285 -187 CURVE",
"321 -202 LINE",
"266 -31 OFFCURVE",
"200 118 OFFCURVE",
"105 300 CURVE",
"95 199 LINE",
"226 439 OFFCURVE",
"316 647 OFFCURVE",
"392 919 CURVE",
"308 939 LINE",
"234 675 OFFCURVE",
"150 479 OFFCURVE",
"30 261 CURVE",
"124 73 OFFCURVE",
"191 -68 OFFCURVE",
"252 -243 CURVE",
"339 -253 LINE",
"443 -123 OFFCURVE",
"538 15 OFFCURVE",
"624 195 CURVE",
"599 312 OFFCURVE",
"569 408 OFFCURVE",
"514 541 CURVE",
"422 541 LINE"
);
}
);
vertOrigin = 90;
vertWidth = 1312;
width = 654;
}
);
unicode = 1B1B4;
},
{
glyphname = u1B1B5;
lastChange = "2020-03-26 17:44:17 +0000";
layers = (
{
layerId = "CFFEBDE4-599A-46B2-9328-D96E42CD9C81";
paths = (
{
closed = 1;
nodes = (
"496 154 OFFCURVE",
"519 171 OFFCURVE",
"519 210 CURVE SMOOTH",
"519 249 OFFCURVE",
"496 266 OFFCURVE",
"468 266 CURVE SMOOTH",
"439 266 OFFCURVE",
"416 249 OFFCURVE",
"416 210 CURVE SMOOTH",
"416 171 OFFCURVE",
"439 154 OFFCURVE",
"468 154 CURVE SMOOTH"
);
},
{
closed = 1;
nodes = (
"482 455 OFFCURVE",
"505 472 OFFCURVE",
"505 511 CURVE SMOOTH",
"505 550 OFFCURVE",
"482 567 OFFCURVE",
"454 567 CURVE SMOOTH",
"425 567 OFFCURVE",
"402 550 OFFCURVE",
"402 511 CURVE SMOOTH",
"402 472 OFFCURVE",
"425 455 OFFCURVE",
"454 455 CURVE SMOOTH"
);
},
{
closed = 1;
nodes = (
"146 -293 LINE",
"263 -97 OFFCURVE",
"335 106 OFFCURVE",
"335 312 CURVE SMOOTH",
"335 536 OFFCURVE",
"245 708 OFFCURVE",
"102 881 CURVE",
"38 824 LINE",
"179 657 OFFCURVE",
"249 504 OFFCURVE",
"249 309 CURVE SMOOTH",
"249 130 OFFCURVE",
"194 -54 OFFCURVE",
"73 -251 CURVE"
);
},
{
closed = 1;
nodes = (
"321 939 LINE",
"239 770 OFFCURVE",
"150 641 OFFCURVE",
"0 519 CURVE",
"58 454 LINE",
"221 594 OFFCURVE",
"317 723 OFFCURVE",
"398 904 CURVE"
);
},
{
closed = 1;
nodes = (
"16 90 LINE",
"168 24 OFFCURVE",
"315 -77 OFFCURVE",
"416 -166 CURVE",
"466 -96 LINE",
"349 4 OFFCURVE",
"216 95 OFFCURVE",
"55 168 CURVE"
);
}
);
vertOrigin = 90;
vertWidth = 1312;
width = 529;
}
);
unicode = 1B1B5;
},
{
glyphname = u1B1B6;
lastChange = "2020-03-27 16:48:57 +0000";
layers = (
{
background = {
paths = (
{
closed = 1;
nodes = (
"312 -199 LINE",
"257 -8 OFFCURVE",
"189 171 OFFCURVE",
"81 363 CURVE",
"11 316 LINE",
"114 134 OFFCURVE",
"184 -46 OFFCURVE",
"245 -243 CURVE",
"326 -253 LINE",
"496 28 OFFCURVE",
"591 312 OFFCURVE",
"653 605 CURVE",
"571 618 LINE",
"512 333 OFFCURVE",
"411 53 OFFCURVE",
"271 -199 CURVE"
);
},
{
closed = 1;
nodes = (
"381 939 LINE",
"336 587 OFFCURVE",
"289 387 OFFCURVE",
"172 67 CURVE",
"229 -1 LINE",
"356 347 OFFCURVE",
"415 574 OFFCURVE",
"464 929 CURVE"
);
},
{
closed = 1;
nodes = (
"82 665 LINE",
"224 448 OFFCURVE",
"328 245 OFFCURVE",
"407 19 CURVE",
"464 88 LINE",
"388 317 OFFCURVE",
"293 491 OFFCURVE",
"154 713 CURVE"
);
}
);
};
layerId = "CFFEBDE4-599A-46B2-9328-D96E42CD9C81";
paths = (
{
closed = 1;
nodes = (
"350 -64 LINE",
"516 165 OFFCURVE",
"611 348 OFFCURVE",
"713 667 CURVE",
"630 690 LINE",
"544 414 OFFCURVE",
"447 205 OFFCURVE",
"325 41 CURVE"
);
},
{
closed = 1;
nodes = (
"409 939 LINE",
"361 665 OFFCURVE",
"284 458 OFFCURVE",
"189 290 CURVE",
"247 232 LINE",
"369 435 OFFCURVE",
"441 644 OFFCURVE",
"494 929 CURVE"
);
},
{
closed = 1;
nodes = (
"109 742 LINE",
"284 538 OFFCURVE",
"383 390 OFFCURVE",
"461 231 CURVE",
"521 305 LINE",
"447 451 OFFCURVE",
"341 605 OFFCURVE",
"172 799 CURVE"
);
},
{
closed = 1;
nodes = (
"289 -139 OFFCURVE",
"271 -182 OFFCURVE",
"216 -182 CURVE SMOOTH",
"167 -182 OFFCURVE",
"145 -154 OFFCURVE",
"145 -115 CURVE SMOOTH",
"145 -86 OFFCURVE",
"150 -60 OFFCURVE",
"168 -30 CURVE",
"99 3 LINE",
"71 -40 OFFCURVE",
"59 -80 OFFCURVE",
"59 -123 CURVE SMOOTH",
"59 -208 OFFCURVE",
"110 -266 OFFCURVE",
"208 -266 CURVE SMOOTH",
"320 -266 OFFCURVE",
"373 -191 OFFCURVE",
"373 -69 CURVE SMOOTH",
"373 36 OFFCURVE",
"260 257 OFFCURVE",
"75 480 CURVE",
"10 426 LINE",
"193 199 OFFCURVE",
"289 29 OFFCURVE",
"289 -78 CURVE SMOOTH"
);
}
);
vertOrigin = 90;
vertWidth = 1312;
width = 723;
}
);
unicode = 1B1B6;
},
{
glyphname = u1B1B7;
lastChange = "2020-03-27 10:48:31 +0000";
layers = (
{
layerId = "CFFEBDE4-599A-46B2-9328-D96E42CD9C81";
paths = (
{
closed = 1;
nodes = (
"463 939 LINE",
"343 742 OFFCURVE",
"226 607 OFFCURVE",
"95 480 CURVE",
"132 484 LINE",
"125 565 OFFCURVE",
"112 653 OFFCURVE",
"80 765 CURVE",
"0 743 LINE",
"31 622 OFFCURVE",
"49 533 OFFCURVE",
"62 444 CURVE",
"143 420 LINE",
"302 568 OFFCURVE",
"412 690 OFFCURVE",
"536 898 CURVE"
);
},
{
closed = 1;
nodes = (
"132 167 LINE",
"332 329 OFFCURVE",
"444 434 OFFCURVE",
"582 623 CURVE",
"514 669 LINE",
"396 506 OFFCURVE",
"273 382 OFFCURVE",
"84 234 CURVE"
);
},
{
closed = 1;
nodes = (
"453 -289 LINE",
"453 -154 OFFCURVE",
"444 0 OFFCURVE",
"402 166 CURVE",
"335 131 LINE",
"361 -42 OFFCURVE",
"367 -170 OFFCURVE",
"367 -293 CURVE"
);
},
{
closed = 1;
nodes = (
"501 296 OFFCURVE",
"406 188 OFFCURVE",
"135 0 CURVE",
"183 -69 LINE",
"490 149 OFFCURVE",
"587 254 OFFCURVE",
"587 405 CURVE SMOOTH",
"587 483 OFFCURVE",
"563 536 OFFCURVE",
"500 607 CURVE",
"454 539 LINE",
"489 495 OFFCURVE",
"501 444 OFFCURVE",
"501 399 CURVE"
);
}
);
vertOrigin = 90;
vertWidth = 1312;
width = 628;
}
);
unicode = 1B1B7;
},
{
glyphname = u1B1B8;
lastChange = "2020-03-27 10:50:06 +0000";
layers = (
{
background = {
paths = (
{
closed = 1;
nodes = (
"476 -293 LINE",
"494 -184 OFFCURVE",
"504 -86 OFFCURVE",
"504 30 CURVE SMOOTH",
"504 352 OFFCURVE",
"427 584 OFFCURVE",
"254 839 CURVE",
"184 792 LINE",
"356 541 OFFCURVE",
"418 344 OFFCURVE",
"418 30 CURVE SMOOTH",
"418 -82 OFFCURVE",
"410 -176 OFFCURVE",
"392 -285 CURVE"
);
},
{
closed = 1;
nodes = (
"525 939 LINE",
"417 709 OFFCURVE",
"294 536 OFFCURVE",
"103 335 CURVE",
"166 276 LINE",
"377 496 OFFCURVE",
"487 656 OFFCURVE",
"605 906 CURVE"
);
},
{
closed = 1;
nodes = (
"625 607 LINE",
"504 411 OFFCURVE",
"377 245 OFFCURVE",
"176 75 CURVE",
"233 11 LINE",
"430 178 OFFCURVE",
"570 354 OFFCURVE",
"696 559 CURVE"
);
}
);
};
layerId = "CFFEBDE4-599A-46B2-9328-D96E42CD9C81";
paths = (
{
closed = 1;
nodes = (
"80 191 OFFCURVE",
"103 208 OFFCURVE",
"103 247 CURVE SMOOTH",
"103 286 OFFCURVE",
"80 303 OFFCURVE",
"52 303 CURVE SMOOTH",
"23 303 OFFCURVE",
"0 286 OFFCURVE",
"0 247 CURVE SMOOTH",
"0 208 OFFCURVE",
"23 191 OFFCURVE",
"52 191 CURVE SMOOTH"
);
},
{
closed = 1;
nodes = (
"158 -73 OFFCURVE",
"181 -56 OFFCURVE",
"181 -17 CURVE SMOOTH",
"181 22 OFFCURVE",
"158 39 OFFCURVE",
"130 39 CURVE SMOOTH",
"103 39 OFFCURVE",
"78 22 OFFCURVE",
"78 -17 CURVE SMOOTH",
"78 -56 OFFCURVE",
"101 -73 OFFCURVE",
"130 -73 CURVE SMOOTH"
);
},
{
closed = 1;
nodes = (
"476 -293 LINE",
"494 -184 OFFCURVE",
"504 -86 OFFCURVE",
"504 30 CURVE SMOOTH",
"504 352 OFFCURVE",
"427 584 OFFCURVE",
"254 839 CURVE",
"184 792 LINE",
"356 541 OFFCURVE",
"418 344 OFFCURVE",
"418 30 CURVE SMOOTH",
"418 -82 OFFCURVE",
"410 -176 OFFCURVE",
"392 -285 CURVE"
);
},
{
closed = 1;
nodes = (
"525 939 LINE",
"417 709 OFFCURVE",
"284 530 OFFCURVE",
"141 379 CURVE",
"201 327 LINE",
"364 497 OFFCURVE",
"487 656 OFFCURVE",
"605 906 CURVE"
);
},
{
closed = 1;
nodes = (
"625 607 LINE",
"504 411 OFFCURVE",
"386 258 OFFCURVE",
"217 111 CURVE",
"273 47 LINE",
"442 198 OFFCURVE",
"572 358 OFFCURVE",
"698 563 CURVE"
);
}
);
vertOrigin = 90;
vertWidth = 1312;
width = 706;
}
);
unicode = 1B1B8;
},
{
glyphname = u1B1B9;
lastChange = "2020-03-27 10:52:54 +0000";
layers = (
{
layerId = "CFFEBDE4-599A-46B2-9328-D96E42CD9C81";
paths = (
{
closed = 1;
nodes = (
"422 939 LINE",
"328 674 OFFCURVE",
"223 517 OFFCURVE",
"65 337 CURVE",
"132 282 LINE",
"289 461 OFFCURVE",
"409 649 OFFCURVE",
"504 914 CURVE"
);
},
{
closed = 1;
nodes = (
"530 505 LINE",
"461 362 OFFCURVE",
"331 197 OFFCURVE",
"235 97 CURVE",
"297 41 LINE",
"392 140 OFFCURVE",
"521 298 OFFCURVE",
"605 467 CURVE"
);
},
{
closed = 1;
nodes = (
"439 232 LINE",
"383 439 OFFCURVE",
"306 621 OFFCURVE",
"181 828 CURVE",
"108 787 LINE",
"233 577 OFFCURVE",
"311 386 OFFCURVE",
"367 195 CURVE"
);
},
{
closed = 1;
nodes = (
"127 39 LINE",
"181 -51 OFFCURVE",
"216 -124 OFFCURVE",
"252 -225 CURVE",
"333 -194 LINE",
"287 -76 OFFCURVE",
"242 4 OFFCURVE",
"168 105 CURVE"
);
},
{
closed = 1;
nodes = (
"100 177 LINE",
"86 28 OFFCURVE",
"57 -119 OFFCURVE",
"4 -269 CURVE",
"87 -293 LINE",
"140 -129 OFFCURVE",
"173 29 OFFCURVE",
"186 168 CURVE"
);
}
);
vertOrigin = 90;
vertWidth = 1312;
width = 612;
}
);
unicode = 1B1B9;
},
{
glyphname = u1B1BA;
lastChange = "2020-03-27 10:53:51 +0000";
layers = (
{
background = {
paths = (
{
closed = 1;
nodes = (
"250 356 OFFCURVE",
"358 239 OFFCURVE",
"430 131 CURVE",
"430 189 LINE",
"353 12 OFFCURVE",
"283 -110 OFFCURVE",
"196 -251 CURVE",
"265 -293 LINE",
"358 -146 OFFCURVE",
"430 -19 OFFCURVE",
"511 168 CURVE",
"421 294 OFFCURVE",
"314 416 OFFCURVE",
"207 528 CURVE",
"207 491 LINE",
"275 620 OFFCURVE",
"334 759 OFFCURVE",
"383 917 CURVE",
"301 939 LINE",
"253 782 OFFCURVE",
"207 661 OFFCURVE",
"120 496 CURVE"
);
},
{
closed = 1;
nodes = (
"427 614 LINE",
"336 416 OFFCURVE",
"244 265 OFFCURVE",
"134 102 CURVE",
"196 54 LINE",
"321 237 OFFCURVE",
"409 380 OFFCURVE",
"497 581 CURVE"
);
}
);
};
layerId = "CFFEBDE4-599A-46B2-9328-D96E42CD9C81";
paths = (
{
closed = 1;
nodes = (
"198 579 OFFCURVE",
"285 714 OFFCURVE",
"368 908 CURVE",
"290 939 LINE",
"211 761 OFFCURVE",
"132 627 OFFCURVE",
"10 454 CURVE",
"74 332 OFFCURVE",
"130 216 OFFCURVE",
"167 114 CURVE",
"251 105 LINE",
"330 205 OFFCURVE",
"425 356 OFFCURVE",
"490 481 CURVE",
"448 478 LINE",
"506 367 OFFCURVE",
"552 253 OFFCURVE",
"592 133 CURVE",
"589 209 LINE",
"511 41 OFFCURVE",
"418 -98 OFFCURVE",
"299 -241 CURVE",
"364 -293 LINE",
"483 -153 OFFCURVE",
"578 -19 OFFCURVE",
"668 179 CURVE",
"623 309 OFFCURVE",
"571 429 OFFCURVE",
"513 542 CURVE",
"425 543 LINE",
"357 404 OFFCURVE",
"276 277 OFFCURVE",
"189 166 CURVE",
"235 171 LINE",
"204 260 OFFCURVE",
"150 373 OFFCURVE",
"87 492 CURVE",
"84 418 LINE"
);
}
);
vertOrigin = 90;
vertWidth = 1312;
width = 678;
}
);
unicode = 1B1BA;
},
{
glyphname = u1B1BB;
lastChange = "2020-03-27 10:56:41 +0000";
layers = (
{
layerId = "CFFEBDE4-599A-46B2-9328-D96E42CD9C81";
paths = (
{
closed = 1;
nodes = (
"265 873 LINE",
"320 742 OFFCURVE",
"361 626 OFFCURVE",
"393 492 CURVE",
"418 601 LINE",
"327 448 OFFCURVE",
"249 351 OFFCURVE",
"165 258 CURVE",
"204 173 LINE",
"303 280 OFFCURVE",
"389 390 OFFCURVE",
"473 522 CURVE",
"435 681 OFFCURVE",
"393 800 OFFCURVE",
"330 933 CURVE",
"249 939 LINE",
"180 805 OFFCURVE",
"111 704 OFFCURVE",
"26 597 CURVE",
"114 359 OFFCURVE",
"144 139 OFFCURVE",
"144 -52 CURVE SMOOTH",
"144 -137 OFFCURVE",
"139 -206 OFFCURVE",
"129 -283 CURVE",
"213 -293 LINE",
"225 -213 OFFCURVE",
"230 -149 OFFCURVE",
"230 -53 CURVE SMOOTH",
"230 162 OFFCURVE",
"195 371 OFFCURVE",
"115 611 CURVE",
"86 539 LINE",
"171 644 OFFCURVE",
"240 740 OFFCURVE",
"309 875 CURVE"
);
},
{
closed = 1;
nodes = (
"338 760 LINE",
"262 629 OFFCURVE",
"195 537 OFFCURVE",
"105 432 CURVE",
"149 362 LINE",
"244 469 OFFCURVE",
"321 576 OFFCURVE",
"388 688 CURVE"
);
}
);
vertOrigin = 90;
vertWidth = 1312;
width = 503;
}
);
unicode = 1B1BB;
},
{
glyphname = u1B1BC;
lastChange = "2020-03-27 11:34:57 +0000";
layers = (
{
layerId = "CFFEBDE4-599A-46B2-9328-D96E42CD9C81";
paths = (
{
closed = 1;
nodes = (
"375 -273 LINE",
"463 -201 OFFCURVE",
"554 -105 OFFCURVE",
"633 -6 CURVE",
"608 95 OFFCURVE",
"583 179 OFFCURVE",
"548 267 CURVE",
"473 277 LINE",
"390 170 OFFCURVE",
"310 81 OFFCURVE",
"215 -9 CURVE",
"255 -102 OFFCURVE",
"287 -185 OFFCURVE",
"310 -261 CURVE"
);
},
{
closed = 1;
nodes = (
"386 -218 LINE",
"365 -146 OFFCURVE",
"332 -62 OFFCURVE",
"298 17 CURVE",
"269 -77 LINE",
"367 22 OFFCURVE",
"445 105 OFFCURVE",
"528 213 CURVE",
"478 212 LINE",
"507 133 OFFCURVE",
"529 60 OFFCURVE",
"548 -22 CURVE",
"582 71 LINE",
"494 -48 OFFCURVE",
"424 -120 OFFCURVE",
"340 -192 CURVE"
);
},
{
closed = 1;
nodes = (
"429 939 LINE",
"300 714 OFFCURVE",
"166 528 OFFCURVE",
"0 355 CURVE",
"63 297 LINE",
"232 472 OFFCURVE",
"375 675 OFFCURVE",
"505 898 CURVE"
);
},
{
closed = 1;
nodes = (
"463 559 LINE",
"367 410 OFFCURVE",
"282 308 OFFCURVE",
"143 172 CURVE",
"202 113 LINE",
"335 241 OFFCURVE",
"428 345 OFFCURVE",
"533 514 CURVE"
);
},
{
closed = 1;
nodes = (
"359 308 LINE",
"321 450 OFFCURVE",
"244 627 OFFCURVE",
"132 816 CURVE",
"58 772 LINE",
"177 574 OFFCURVE",
"251 405 OFFCURVE",
"293 245 CURVE"
);
}
);
vertOrigin = 90;
vertWidth = 1312;
width = 643;
}
);
unicode = 1B1BC;
},
{
glyphname = u1B1BD;
lastChange = "2020-03-27 11:37:07 +0000";
layers = (
{
layerId = "CFFEBDE4-599A-46B2-9328-D96E42CD9C81";
paths = (
{
closed = 1;
nodes = (
"142 558 OFFCURVE",
"221 440 OFFCURVE",
"221 281 CURVE SMOOTH",
"221 132 OFFCURVE",
"178 15 OFFCURVE",
"62 -123 CURVE",
"125 -175 LINE",
"253 -27 OFFCURVE",
"303 106 OFFCURVE",
"303 283 CURVE SMOOTH",
"303 448 OFFCURVE",
"232 591 OFFCURVE",
"65 738 CURVE",
"10 676 LINE"
);
},
{
closed = 1;
nodes = (
"319 939 LINE",
"268 720 OFFCURVE",
"174 565 OFFCURVE",
"24 384 CURVE",
"89 333 LINE",
"237 518 OFFCURVE",
"346 688 OFFCURVE",
"401 922 CURVE"
);
},
{
closed = 1;
nodes = (
"307 -68 OFFCURVE",
"240 106 OFFCURVE",
"111 243 CURVE",
"50 188 LINE",
"174 53 OFFCURVE",
"231 -95 OFFCURVE",
"239 -293 CURVE",
"321 -286 LINE"
);
},
{
closed = 1;
nodes = (
"283 747 LINE",
"373 599 OFFCURVE",
"463 478 OFFCURVE",
"582 339 CURVE",
"641 400 LINE",
"523 522 OFFCURVE",
"441 631 OFFCURVE",
"344 788 CURVE"
);
},
{
closed = 1;
nodes = (
"491 484 OFFCURVE",
"527 577 OFFCURVE",
"627 697 CURVE",
"560 747 LINE",
"448 607 OFFCURVE",
"409 492 OFFCURVE",
"409 345 CURVE SMOOTH",
"409 194 OFFCURVE",
"471 68 OFFCURVE",
"586 -38 CURVE",
"642 21 LINE",
"532 127 OFFCURVE",
"491 224 OFFCURVE",
"491 356 CURVE SMOOTH"
);
}
);
vertOrigin = 90;
vertWidth = 1312;
width = 654;
}
);
unicode = 1B1BD;
},
{
glyphname = u1B1BE;
lastChange = "2020-03-27 11:38:30 +0000";
layers = (
{
layerId = "CFFEBDE4-599A-46B2-9328-D96E42CD9C81";
paths = (
{
closed = 1;
nodes = (
"355 828 OFFCURVE",
"362 722 OFFCURVE",
"362 611 CURVE SMOOTH",
"362 415 OFFCURVE",
"320 267 OFFCURVE",
"212 107 CURVE",
"280 61 LINE",
"402 240 OFFCURVE",
"448 406 OFFCURVE",
"448 624 CURVE SMOOTH",
"448 737 OFFCURVE",
"440 838 OFFCURVE",
"426 939 CURVE",
"343 931 LINE"
);
},
{
closed = 1;
nodes = (
"185 554 LINE",
"172 408 OFFCURVE",
"134 347 OFFCURVE",
"64 275 CURVE",
"121 221 LINE",
"205 298 OFFCURVE",
"248 389 OFFCURVE",
"264 546 CURVE"
);
},
{
closed = 1;
nodes = (
"450 161 OFFCURVE",
"478 257 OFFCURVE",
"540 352 CURVE",
"612 314 LINE",
"551 217 OFFCURVE",
"532 139 OFFCURVE",
"532 58 CURVE SMOOTH",
"532 -25 OFFCURVE",
"551 -72 OFFCURVE",
"589 -137 CURVE",
"521 -175 LINE",
"472 -108 OFFCURVE",
"450 -38 OFFCURVE",
"450 58 CURVE SMOOTH"
);
},
{
closed = 1;
nodes = (
"117 39 LINE",
"174 -57 OFFCURVE",
"204 -119 OFFCURVE",
"242 -225 CURVE",
"323 -194 LINE",
"272 -75 OFFCURVE",
"228 0 OFFCURVE",
"158 93 CURVE"
);
},
{
closed = 1;
nodes = (
"92 177 LINE",
"78 28 OFFCURVE",
"49 -119 OFFCURVE",
"-4 -269 CURVE",
"77 -293 LINE",
"130 -129 OFFCURVE",
"163 29 OFFCURVE",
"176 168 CURVE"
);
}
);
vertOrigin = 90;
vertWidth = 1312;
width = 634;
}
);
unicode = 1B1BE;
},
{
glyphname = u1B1BF;
lastChange = "2020-03-27 11:39:02 +0000";
layers = (
{
layerId = "CFFEBDE4-599A-46B2-9328-D96E42CD9C81";
paths = (
{
closed = 1;
nodes = (
"550 939 LINE",
"485 645 OFFCURVE",
"391 392 OFFCURVE",
"272 184 CURVE",
"316 188 LINE",
"273 323 OFFCURVE",
"220 445 OFFCURVE",
"151 558 CURVE",
"77 516 LINE",
"151 390 OFFCURVE",
"198 284 OFFCURVE",
"242 154 CURVE",
"333 139 LINE",
"471 361 OFFCURVE",
"571 626 OFFCURVE",
"634 922 CURVE"
);
},
{
closed = 1;
nodes = (
"526 271 LINE",
"449 67 OFFCURVE",
"344 -92 OFFCURVE",
"219 -240 CURVE",
"284 -293 LINE",
"406 -147 OFFCURVE",
"524 26 OFFCURVE",
"606 240 CURVE"
);
},
{
closed = 1;
nodes = (
"80 153 OFFCURVE",
"103 170 OFFCURVE",
"103 209 CURVE SMOOTH",
"103 248 OFFCURVE",
"80 265 OFFCURVE",
"52 265 CURVE SMOOTH",
"23 265 OFFCURVE",
"0 248 OFFCURVE",
"0 209 CURVE SMOOTH",
"0 170 OFFCURVE",
"23 153 OFFCURVE",
"52 153 CURVE SMOOTH"
);
},
{
closed = 1;
nodes = (
"328 595 OFFCURVE",
"351 612 OFFCURVE",
"351 651 CURVE SMOOTH",
"351 690 OFFCURVE",
"328 707 OFFCURVE",
"300 707 CURVE SMOOTH",
"271 707 OFFCURVE",
"248 690 OFFCURVE",
"248 651 CURVE SMOOTH",
"248 612 OFFCURVE",
"271 595 OFFCURVE",
"300 595 CURVE SMOOTH"
);
}
);
vertOrigin = 90;
vertWidth = 1312;
width = 653;
}
);
unicode = 1B1BF;
},
{
glyphname = u1B1C0;
lastChange = "2020-03-27 11:42:19 +0000";
layers = (
{
layerId = "CFFEBDE4-599A-46B2-9328-D96E42CD9C81";
paths = (
{
closed = 1;
nodes = (
"379 -293 LINE",
"393 -170 OFFCURVE",
"396 -98 OFFCURVE",
"396 14 CURVE SMOOTH",
"396 293 OFFCURVE",
"319 591 OFFCURVE",
"178 888 CURVE",
"104 855 LINE",
"247 542 OFFCURVE",
"312 275 OFFCURVE",
"312 16 CURVE SMOOTH",
"312 -92 OFFCURVE",
"307 -174 OFFCURVE",
"295 -282 CURVE"
);
},
{
closed = 1;
nodes = (
"384 939 LINE",
"289 762 OFFCURVE",
"160 598 OFFCURVE",
"20 459 CURVE",
"57 321 OFFCURVE",
"76 223 OFFCURVE",
"91 94 CURVE",
"163 67 LINE",
"312 198 OFFCURVE",
"442 330 OFFCURVE",
"562 489 CURVE",
"542 638 OFFCURVE",
"508 786 OFFCURVE",
"469 925 CURVE"
);
},
{
closed = 1;
nodes = (
"388 890 LINE",
"428 753 OFFCURVE",
"459 612 OFFCURVE",
"476 485 CURVE",
"508 561 LINE",
"400 407 OFFCURVE",
"267 270 OFFCURVE",
"134 155 CURVE",
"173 134 LINE",
"158 250 OFFCURVE",
"136 361 OFFCURVE",
"106 469 CURVE",
"73 392 LINE",
"216 535 OFFCURVE",
"351 712 OFFCURVE",
"437 858 CURVE"
);
}
);
vertOrigin = 90;
vertWidth = 1312;
width = 577;
}
);
unicode = 1B1C0;
},
{
glyphname = u1B1C1;
lastChange = "2020-03-27 11:43:28 +0000";
layers = (
{
layerId = "CFFEBDE4-599A-46B2-9328-D96E42CD9C81";
paths = (
{
closed = 1;
nodes = (
"729 511 OFFCURVE",
"752 528 OFFCURVE",
"752 567 CURVE SMOOTH",
"752 606 OFFCURVE",
"729 623 OFFCURVE",
"701 623 CURVE SMOOTH",
"672 623 OFFCURVE",
"649 606 OFFCURVE",
"649 567 CURVE SMOOTH",
"649 528 OFFCURVE",
"672 511 OFFCURVE",
"701 511 CURVE SMOOTH"
);
},
{
closed = 1;
nodes = (
"80 126 OFFCURVE",
"103 143 OFFCURVE",
"103 182 CURVE SMOOTH",
"103 221 OFFCURVE",
"80 238 OFFCURVE",
"52 238 CURVE SMOOTH",
"23 238 OFFCURVE",
"0 221 OFFCURVE",
"0 182 CURVE SMOOTH",
"0 143 OFFCURVE",
"23 126 OFFCURVE",
"52 126 CURVE SMOOTH"
);
},
{
closed = 1;
nodes = (
"177 505 OFFCURVE",
"221 347 OFFCURVE",
"221 148 CURVE SMOOTH",
"221 -3 OFFCURVE",
"194 -128 OFFCURVE",
"138 -261 CURVE",
"215 -293 LINE",
"276 -152 OFFCURVE",
"307 -27 OFFCURVE",
"307 150 CURVE SMOOTH",
"307 371 OFFCURVE",
"259 536 OFFCURVE",
"153 745 CURVE",
"77 711 LINE"
);
},
{
closed = 1;
nodes = (
"471 650 OFFCURVE",
"363 469 OFFCURVE",
"241 316 CURVE",
"274 226 LINE",
"431 416 OFFCURVE",
"548 590 OFFCURVE",
"609 924 CURVE",
"524 939 LINE"
);
},
{
closed = 1;
nodes = (
"414 539 LINE",
"486 398 OFFCURVE",
"528 256 OFFCURVE",
"553 94 CURVE",
"637 106 LINE",
"614 295 OFFCURVE",
"559 445 OFFCURVE",
"465 603 CURVE"
);
}
);
vertOrigin = 90;
vertWidth = 1312;
width = 762;
}
);
unicode = 1B1C1;
},
{
glyphname = u1B1C2;
lastChange = "2020-03-27 12:41:16 +0000";
layers = (
{
background = {
paths = (
{
closed = 1;
nodes = (
"399 939 LINE",
"298 703 OFFCURVE",
"180 556 OFFCURVE",
"20 403 CURVE",
"79 345 LINE",
"265 522 OFFCURVE",
"371 673 OFFCURVE",
"479 909 CURVE"
);
},
{
closed = 1;
nodes = (
"562 647 LINE",
"419 428 OFFCURVE",
"288 282 OFFCURVE",
"95 113 CURVE",
"152 54 LINE",
"327 201 OFFCURVE",
"486 376 OFFCURVE",
"634 606 CURVE"
);
},
{
closed = 1;
nodes = (
"362 -293 LINE",
"476 -185 OFFCURVE",
"553 -81 OFFCURVE",
"641 79 CURVE",
"563 117 LINE",
"477 -50 OFFCURVE",
"401 -143 OFFCURVE",
"334 -222 CURVE",
"359 -227 LINE",
"380 -130 OFFCURVE",
"390 -50 OFFCURVE",
"390 84 CURVE SMOOTH",
"390 284 OFFCURVE",
"359 466 OFFCURVE",
"306 682 CURVE",
"242 585 LINE",
"286 403 OFFCURVE",
"306 255 OFFCURVE",
"306 70 CURVE SMOOTH",
"306 -72 OFFCURVE",
"297 -148 OFFCURVE",
"273 -266 CURVE"
);
}
);
};
layerId = "CFFEBDE4-599A-46B2-9328-D96E42CD9C81";
paths = (
{
closed = 1;
nodes = (
"431 201 LINE",
"517 45 OFFCURVE",
"577 -102 OFFCURVE",
"626 -249 CURVE",
"705 -221 LINE",
"649 -55 OFFCURVE",
"588 88 OFFCURVE",
"502 241 CURVE"
);
},
{
closed = 1;
nodes = (
"379 939 LINE",
"278 703 OFFCURVE",
"160 556 OFFCURVE",
"0 403 CURVE",
"58 340 LINE",
"244 517 OFFCURVE",
"352 673 OFFCURVE",
"460 909 CURVE"
);
},
{
closed = 1;
nodes = (
"541 650 LINE",
"412 440 OFFCURVE",
"241 256 OFFCURVE",
"74 115 CURVE",
"130 51 LINE",
"279 170 OFFCURVE",
"481 386 OFFCURVE",
"615 607 CURVE"
);
},
{
closed = 1;
nodes = (
"342 -293 LINE",
"480 -181 OFFCURVE",
"612 -24 OFFCURVE",
"726 169 CURVE",
"653 213 LINE",
"541 25 OFFCURVE",
"428 -107 OFFCURVE",
"311 -224 CURVE",
"339 -227 LINE",
"361 -134 OFFCURVE",
"370 -17 OFFCURVE",
"370 94 CURVE SMOOTH",
"370 284 OFFCURVE",
"338 476 OFFCURVE",
"286 682 CURVE",
"228 585 LINE",
"268 417 OFFCURVE",
"286 265 OFFCURVE",
"286 94 CURVE SMOOTH",
"286 -39 OFFCURVE",
"274 -161 OFFCURVE",
"253 -256 CURVE"
);
}
);
vertOrigin = 90;
vertWidth = 1312;
width = 736;
}
);
unicode = 1B1C2;
},
{
glyphname = u1B1C3;
lastChange = "2020-03-27 12:39:55 +0000";
layers = (
{
layerId = "CFFEBDE4-599A-46B2-9328-D96E42CD9C81";
paths = (
{
closed = 1;
nodes = (
"451 870 LINE",
"497 702 OFFCURVE",
"512 557 OFFCURVE",
"512 357 CURVE SMOOTH",
"512 256 OFFCURVE",
"509 167 OFFCURVE",
"502 71 CURVE",
"588 66 LINE",
"596 168 OFFCURVE",
"598 259 OFFCURVE",
"598 368 CURVE SMOOTH",
"598 579 OFFCURVE",
"576 749 OFFCURVE",
"525 930 CURVE",
"439 939 LINE",
"295 757 OFFCURVE",
"175 640 OFFCURVE",
"40 528 CURVE",
"62 354 OFFCURVE",
"71 220 OFFCURVE",
"71 87 CURVE SMOOTH",
"71 -73 OFFCURVE",
"57 -185 OFFCURVE",
"40 -282 CURVE",
"124 -293 LINE",
"145 -185 OFFCURVE",
"157 -68 OFFCURVE",
"157 110 CURVE SMOOTH",
"157 237 OFFCURVE",
"144 384 OFFCURVE",
"125 535 CURVE",
"103 466 LINE",
"233 577 OFFCURVE",
"358 699 OFFCURVE",
"500 877 CURVE"
);
},
{
closed = 1;
nodes = (
"161 428 LINE",
"254 355 OFFCURVE",
"355 259 OFFCURVE",
"438 164 CURVE",
"498 223 LINE",
"404 330 OFFCURVE",
"308 420 OFFCURVE",
"212 494 CURVE"
);
},
{
closed = 1;
nodes = (
"366 659 LINE",
"330 440 OFFCURVE",
"263 203 OFFCURVE",
"178 -5 CURVE",
"258 -32 LINE",
"347 189 OFFCURVE",
"407 404 OFFCURVE",
"449 645 CURVE"
);
}
);
vertOrigin = 90;
vertWidth = 1312;
width = 630;
}
);
unicode = 1B1C3;
},
{
glyphname = u1B1C4;
lastChange = "2020-03-27 12:36:32 +0000";
layers = (
{
background = {
paths = (
{
closed = 1;
nodes = (
"76 289 LINE",
"197 99 OFFCURVE",
"270 -70 OFFCURVE",
"331 -293 CURVE",
"414 -270 LINE",
"347 -29 OFFCURVE",
"269 145 OFFCURVE",
"143 360 CURVE",
"145 289 LINE",
"245 500 OFFCURVE",
"306 679 OFFCURVE",
"354 919 CURVE",
"270 939 LINE",
"226 714 OFFCURVE",
"158 533 OFFCURVE",
"76 360 CURVE"
);
},
{
closed = 1;
nodes = (
"282 578 OFFCURVE",
"314 420 OFFCURVE",
"314 343 CURVE SMOOTH",
"314 212 OFFCURVE",
"249 80 OFFCURVE",
"84 -136 CURVE",
"144 -188 LINE",
"311 20 OFFCURVE",
"398 200 OFFCURVE",
"398 343 CURVE SMOOTH",
"398 470 OFFCURVE",
"340 637 OFFCURVE",
"105 816 CURVE",
"50 750 LINE"
);
}
);
};
layerId = "CFFEBDE4-599A-46B2-9328-D96E42CD9C81";
paths = (
{
closed = 1;
nodes = (
"393 252 OFFCURVE",
"420 197 OFFCURVE",
"515 144 CURVE",
"596 165 LINE",
"641 265 OFFCURVE",
"668 342 OFFCURVE",
"668 433 CURVE SMOOTH",
"668 514 OFFCURVE",
"632 564 OFFCURVE",
"540 625 CURVE",
"462 610 LINE",
"413 494 OFFCURVE",
"393 416 OFFCURVE",
"393 338 CURVE SMOOTH"
);
},
{
closed = 1;
nodes = (
"492 567 LINE",
"560 511 OFFCURVE",
"586 483 OFFCURVE",
"586 418 CURVE SMOOTH",
"586 361 OFFCURVE",
"564 291 OFFCURVE",
"525 192 CURVE",
"554 209 LINE",
"501 247 OFFCURVE",
"475 281 OFFCURVE",
"475 347 CURVE SMOOTH",
"475 403 OFFCURVE",
"494 469 OFFCURVE",
"528 564 CURVE"
);
},
{
closed = 1;
nodes = (
"46 289 LINE",
"196 99 OFFCURVE",
"278 -76 OFFCURVE",
"341 -293 CURVE",
"422 -270 LINE",
"353 -35 OFFCURVE",
"257 142 OFFCURVE",
"102 357 CURVE",
"105 296 LINE",
"233 507 OFFCURVE",
"325 683 OFFCURVE",
"373 923 CURVE",
"290 939 LINE",
"246 714 OFFCURVE",
"164 540 OFFCURVE",
"46 360 CURVE"
);
},
{
closed = 1;
nodes = (
"221 564 OFFCURVE",
"271 442 OFFCURVE",
"271 338 CURVE SMOOTH",
"271 195 OFFCURVE",
"201 69 OFFCURVE",
"36 -158 CURVE",
"103 -207 LINE",
"272 23 OFFCURVE",
"353 165 OFFCURVE",
"353 338 CURVE SMOOTH",
"353 485 OFFCURVE",
"280 617 OFFCURVE",
"75 816 CURVE",
"19 756 LINE"
);
}
);
vertOrigin = 90;
vertWidth = 1312;
width = 683;
}
);
unicode = 1B1C4;
},
{
glyphname = u1B1C5;
lastChange = "2020-03-27 12:33:32 +0000";
layers = (
{
layerId = "CFFEBDE4-599A-46B2-9328-D96E42CD9C81";
paths = (
{
closed = 1;
nodes = (
"194 -61 OFFCURVE",
"217 -44 OFFCURVE",
"217 -5 CURVE SMOOTH",
"217 34 OFFCURVE",
"194 51 OFFCURVE",
"166 51 CURVE SMOOTH",
"137 51 OFFCURVE",
"114 34 OFFCURVE",
"114 -5 CURVE SMOOTH",
"114 -44 OFFCURVE",
"137 -61 OFFCURVE",
"166 -61 CURVE SMOOTH"
);
},
{
closed = 1;
nodes = (
"467 356 OFFCURVE",
"490 373 OFFCURVE",
"490 412 CURVE SMOOTH",
"490 451 OFFCURVE",
"467 468 OFFCURVE",
"439 468 CURVE SMOOTH",
"410 468 OFFCURVE",
"387 451 OFFCURVE",
"387 412 CURVE SMOOTH",
"387 373 OFFCURVE",
"410 356 OFFCURVE",
"439 356 CURVE SMOOTH"
);
},
{
closed = 1;
nodes = (
"414 939 LINE",
"290 574 OFFCURVE",
"190 374 OFFCURVE",
"20 142 CURVE",
"87 89 LINE",
"258 313 OFFCURVE",
"375 551 OFFCURVE",
"497 916 CURVE"
);
},
{
closed = 1;
nodes = (
"523 307 LINE",
"423 99 OFFCURVE",
"312 -76 OFFCURVE",
"168 -239 CURVE",
"235 -293 LINE",
"394 -104 OFFCURVE",
"491 45 OFFCURVE",
"601 269 CURVE"
);
},
{
closed = 1;
nodes = (
"419 -17 LINE",
"336 279 OFFCURVE",
"257 481 OFFCURVE",
"129 728 CURVE",
"52 686 LINE",
"175 447 OFFCURVE",
"263 235 OFFCURVE",
"340 -49 CURVE"
);
}
);
vertOrigin = 90;
vertWidth = 1312;
width = 620;
}
);
unicode = 1B1C5;
},
{
glyphname = u1B1C6;
lastChange = "2020-03-27 12:33:09 +0000";
layers = (
{
layerId = "CFFEBDE4-599A-46B2-9328-D96E42CD9C81";
paths = (
{
closed = 1;
nodes = (
"192 -46 OFFCURVE",
"215 -29 OFFCURVE",
"215 10 CURVE SMOOTH",
"215 49 OFFCURVE",
"192 66 OFFCURVE",
"164 66 CURVE SMOOTH",
"135 66 OFFCURVE",
"112 49 OFFCURVE",
"112 10 CURVE SMOOTH",
"112 -29 OFFCURVE",
"135 -46 OFFCURVE",
"164 -46 CURVE SMOOTH"
);
},
{
closed = 1;
nodes = (
"460 366 OFFCURVE",
"483 383 OFFCURVE",
"483 422 CURVE SMOOTH",
"483 461 OFFCURVE",
"460 478 OFFCURVE",
"432 478 CURVE SMOOTH",
"403 478 OFFCURVE",
"380 461 OFFCURVE",
"380 422 CURVE SMOOTH",
"380 383 OFFCURVE",
"403 366 OFFCURVE",
"432 366 CURVE SMOOTH"
);
},
{
closed = 1;
nodes = (
"187 388 LINE",
"256 230 OFFCURVE",
"300 91 OFFCURVE",
"335 -53 CURVE",
"415 -22 LINE",
"377 130 OFFCURVE",
"331 284 OFFCURVE",
"253 456 CURVE"
);
},
{
closed = 1;
nodes = (
"378 939 LINE",
"284 633 OFFCURVE",
"166 376 OFFCURVE",
"16 162 CURVE",
"84 109 LINE",
"233 312 OFFCURVE",
"367 609 OFFCURVE",
"461 917 CURVE"
);
},
{
closed = 1;
nodes = (
"524 319 LINE",
"428 102 OFFCURVE",
"311 -78 OFFCURVE",
"167 -241 CURVE",
"236 -293 LINE",
"395 -104 OFFCURVE",
"495 48 OFFCURVE",
"601 281 CURVE"
);
}
);
vertOrigin = 90;
vertWidth = 1312;
width = 619;
}
);
unicode = 1B1C6;
},
{
glyphname = u1B1C7;
lastChange = "2020-03-27 12:32:47 +0000";
layers = (
{
background = {
paths = (
{
closed = 1;
nodes = (
"647 142 OFFCURVE",
"670 159 OFFCURVE",
"670 198 CURVE SMOOTH",
"670 237 OFFCURVE",
"647 254 OFFCURVE",
"619 254 CURVE SMOOTH",
"590 254 OFFCURVE",
"567 237 OFFCURVE",
"567 198 CURVE SMOOTH",
"567 159 OFFCURVE",
"590 142 OFFCURVE",
"619 142 CURVE SMOOTH"
);
},
{
closed = 1;
nodes = (
"237 -125 OFFCURVE",
"260 -108 OFFCURVE",
"260 -69 CURVE SMOOTH",
"260 -30 OFFCURVE",
"237 -13 OFFCURVE",
"209 -13 CURVE SMOOTH",
"180 -13 OFFCURVE",
"157 -30 OFFCURVE",
"157 -69 CURVE SMOOTH",
"157 -108 OFFCURVE",
"180 -125 OFFCURVE",
"209 -125 CURVE SMOOTH"
);
},
{
closed = 1;
nodes = (
"455 939 LINE",
"326 747 OFFCURVE",
"198 611 OFFCURVE",
"30 459 CURVE",
"84 396 LINE",
"258 546 OFFCURVE",
"392 687 OFFCURVE",
"528 895 CURVE"
);
},
{
closed = 1;
nodes = (
"437 714 OFFCURVE",
"461 666 OFFCURVE",
"461 603 CURVE SMOOTH",
"461 474 OFFCURVE",
"372 368 OFFCURVE",
"91 139 CURVE",
"144 74 LINE",
"454 311 OFFCURVE",
"547 449 OFFCURVE",
"547 603 CURVE SMOOTH",
"547 693 OFFCURVE",
"507 765 OFFCURVE",
"433 844 CURVE",
"384 773 LINE"
);
},
{
closed = 1;
nodes = (
"346 302 LINE",
"364 172 OFFCURVE",
"372 83 OFFCURVE",
"372 -51 CURVE SMOOTH",
"372 -139 OFFCURVE",
"369 -201 OFFCURVE",
"359 -284 CURVE",
"443 -293 LINE",
"454 -204 OFFCURVE",
"458 -126 OFFCURVE",
"458 -39 CURVE SMOOTH",
"458 68 OFFCURVE",
"447 190 OFFCURVE",
"412 347 CURVE"
);
}
);
};
layerId = "CFFEBDE4-599A-46B2-9328-D96E42CD9C81";
paths = (
{
closed = 1;
nodes = (
"508 939 LINE",
"371 753 OFFCURVE",
"209 608 OFFCURVE",
"0 459 CURVE",
"50 390 LINE",
"276 548 OFFCURVE",
"420 685 OFFCURVE",
"578 889 CURVE"
);
},
{
closed = 1;
nodes = (
"494 726 OFFCURVE",
"512 687 OFFCURVE",
"512 631 CURVE SMOOTH",
"512 514 OFFCURVE",
"435 405 OFFCURVE",
"81 170 CURVE",
"129 99 LINE",
"508 351 OFFCURVE",
"598 472 OFFCURVE",
"598 634 CURVE SMOOTH",
"598 706 OFFCURVE",
"573 763 OFFCURVE",
"502 830 CURVE",
"440 783 LINE"
);
},
{
closed = 1;
nodes = (
"130 815 LINE",
"292 504 OFFCURVE",
"372 271 OFFCURVE",
"372 -60 CURVE SMOOTH",
"372 -140 OFFCURVE",
"369 -207 OFFCURVE",
"359 -284 CURVE",
"443 -293 LINE",
"453 -210 OFFCURVE",
"458 -136 OFFCURVE",
"458 -53 CURVE SMOOTH",
"458 265 OFFCURVE",
"377 536 OFFCURVE",
"207 853 CURVE"
);
},
{
closed = 1;
nodes = (
"217 -115 OFFCURVE",
"240 -98 OFFCURVE",
"240 -59 CURVE SMOOTH",
"240 -20 OFFCURVE",
"217 -3 OFFCURVE",
"189 -3 CURVE SMOOTH",
"160 -3 OFFCURVE",
"137 -20 OFFCURVE",
"137 -59 CURVE SMOOTH",
"137 -98 OFFCURVE",
"160 -115 OFFCURVE",
"189 -115 CURVE SMOOTH"
);
},
{
closed = 1;
nodes = (
"647 142 OFFCURVE",
"670 159 OFFCURVE",
"670 198 CURVE SMOOTH",
"670 237 OFFCURVE",
"647 254 OFFCURVE",
"619 254 CURVE SMOOTH",
"590 254 OFFCURVE",
"567 237 OFFCURVE",
"567 198 CURVE SMOOTH",
"567 159 OFFCURVE",
"590 142 OFFCURVE",
"619 142 CURVE SMOOTH"
);
}
);
vertOrigin = 90;
vertWidth = 1312;
width = 713;
}
);
unicode = 1B1C7;
},
{
glyphname = u1B1C8;
lastChange = "2020-03-27 12:30:45 +0000";
layers = (
{
layerId = "CFFEBDE4-599A-46B2-9328-D96E42CD9C81";
paths = (
{
closed = 1;
nodes = (
"450 633 LINE",
"368 402 OFFCURVE",
"292 243 OFFCURVE",
"188 60 CURVE",
"242 -17 LINE",
"351 171 OFFCURVE",
"417 307 OFFCURVE",
"500 515 CURVE"
);
},
{
closed = 1;
nodes = (
"319 782 LINE",
"425 613 OFFCURVE",
"503 462 OFFCURVE",
"588 250 CURVE",
"589 398 LINE",
"508 172 OFFCURVE",
"416 -8 OFFCURVE",
"319 -168 CURVE",
"354 -186 LINE",
"296 -27 OFFCURVE",
"218 133 OFFCURVE",
"123 303 CURVE",
"117 201 LINE",
"244 455 OFFCURVE",
"318 631 OFFCURVE",
"401 919 CURVE",
"317 939 LINE",
"238 665 OFFCURVE",
"155 467 OFFCURVE",
"50 260 CURVE",
"148 79 OFFCURVE",
"223 -83 OFFCURVE",
"281 -243 CURVE",
"369 -253 LINE",
"484 -60 OFFCURVE",
"566 97 OFFCURVE",
"654 321 CURVE",
"576 504 OFFCURVE",
"494 667 OFFCURVE",
"376 854 CURVE"
);
}
);
vertOrigin = 90;
vertWidth = 1312;
width = 654;
}
);
unicode = 1B1C8;
},
{
glyphname = u1B1C9;
lastChange = "2020-03-27 12:28:29 +0000";
layers = (
{
layerId = "CFFEBDE4-599A-46B2-9328-D96E42CD9C81";
paths = (
{
closed = 1;
nodes = (
"233 101 LINE",
"166 -32 OFFCURVE",
"88 -136 OFFCURVE",
"-4 -237 CURVE",
"59 -293 LINE",
"167 -175 OFFCURVE",
"237 -79 OFFCURVE",
"308 63 CURVE"
);
},
{
closed = 1;
nodes = (
"13 13 LINE",
"105 -80 OFFCURVE",
"172 -165 OFFCURVE",
"231 -272 CURVE",
"303 -229 LINE",
"234 -105 OFFCURVE",
"157 -17 OFFCURVE",
"75 70 CURVE"
);
},
{
closed = 1;
nodes = (
"431 939 LINE",
"290 741 OFFCURVE",
"170 613 OFFCURVE",
"10 479 CURVE",
"63 414 LINE",
"231 550 OFFCURVE",
"360 688 OFFCURVE",
"506 897 CURVE"
);
},
{
closed = 1;
nodes = (
"421 710 OFFCURVE",
"441 666 OFFCURVE",
"441 603 CURVE SMOOTH",
"441 488 OFFCURVE",
"349 395 OFFCURVE",
"98 196 CURVE",
"151 131 LINE",
"424 334 OFFCURVE",
"527 463 OFFCURVE",
"527 603 CURVE SMOOTH",
"527 693 OFFCURVE",
"499 758 OFFCURVE",
"405 840 CURVE",
"354 773 LINE"
);
},
{
closed = 1;
nodes = (
"345 329 LINE",
"374 213 OFFCURVE",
"385 122 OFFCURVE",
"385 9 CURVE SMOOTH",
"385 -79 OFFCURVE",
"382 -139 OFFCURVE",
"371 -224 CURVE",
"456 -233 LINE",
"467 -144 OFFCURVE",
"471 -66 OFFCURVE",
"471 21 CURVE SMOOTH",
"471 143 OFFCURVE",
"455 258 OFFCURVE",
"412 407 CURVE"
);
}
);
vertOrigin = 90;
vertWidth = 1312;
width = 557;
}
);
unicode = 1B1C9;
},
{
glyphname = u1B1CA;
lastChange = "2020-03-27 11:46:47 +0000";
layers = (
{
layerId = "CFFEBDE4-599A-46B2-9328-D96E42CD9C81";
paths = (
{
closed = 1;
nodes = (
"411 83 LINE",
"495 180 OFFCURVE",
"556 264 OFFCURVE",
"615 388 CURVE",
"584 386 LINE",
"608 276 OFFCURVE",
"613 185 OFFCURVE",
"609 68 CURVE",
"695 68 LINE",
"699 204 OFFCURVE",
"683 318 OFFCURVE",
"651 443 CURVE",
"560 453 LINE",
"496 328 OFFCURVE",
"450 256 OFFCURVE",
"374 162 CURVE"
);
},
{
closed = 1;
nodes = (
"229 607 LINE",
"309 392 OFFCURVE",
"342 202 OFFCURVE",
"342 17 CURVE SMOOTH",
"342 -98 OFFCURVE",
"334 -191 OFFCURVE",
"319 -284 CURVE",
"403 -293 LINE",
"417 -198 OFFCURVE",
"426 -100 OFFCURVE",
"426 27 CURVE SMOOTH",
"426 233 OFFCURVE",
"390 432 OFFCURVE",
"287 678 CURVE"
);
},
{
closed = 1;
nodes = (
"387 939 LINE",
"293 732 OFFCURVE",
"174 565 OFFCURVE",
"10 396 CURVE",
"71 335 LINE",
"237 506 OFFCURVE",
"362 671 OFFCURVE",
"467 909 CURVE"
);
},
{
closed = 1;
nodes = (
"509 709 LINE",
"394 496 OFFCURVE",
"270 339 OFFCURVE",
"84 168 CURVE",
"142 105 LINE",
"331 273 OFFCURVE",
"460 440 OFFCURVE",
"586 667 CURVE"
);
}
);
vertOrigin = 90;
vertWidth = 1312;
width = 727;
}
);
unicode = 1B1CA;
},
{
glyphname = u1B1CB;
lastChange = "2020-03-27 11:45:32 +0000";
layers = (
{
layerId = "CFFEBDE4-599A-46B2-9328-D96E42CD9C81";
paths = (
{
closed = 1;
nodes = (
"160 103 OFFCURVE",
"183 120 OFFCURVE",
"183 159 CURVE SMOOTH",
"183 198 OFFCURVE",
"160 215 OFFCURVE",
"132 215 CURVE SMOOTH",
"103 215 OFFCURVE",
"80 198 OFFCURVE",
"80 159 CURVE SMOOTH",
"80 120 OFFCURVE",
"103 103 OFFCURVE",
"132 103 CURVE SMOOTH"
);
},
{
closed = 1;
nodes = (
"80 -98 OFFCURVE",
"103 -81 OFFCURVE",
"103 -42 CURVE SMOOTH",
"103 -3 OFFCURVE",
"80 14 OFFCURVE",
"52 14 CURVE SMOOTH",
"23 14 OFFCURVE",
"0 -3 OFFCURVE",
"0 -42 CURVE SMOOTH",
"0 -81 OFFCURVE",
"23 -98 OFFCURVE",
"52 -98 CURVE SMOOTH"
);
},
{
closed = 1;
nodes = (
"112 461 LINE",
"239 277 OFFCURVE",
"335 99 OFFCURVE",
"451 -150 CURVE",
"527 -111 LINE",
"405 146 OFFCURVE",
"299 339 OFFCURVE",
"161 541 CURVE",
"171 465 LINE",
"255 606 OFFCURVE",
"319 756 OFFCURVE",
"369 920 CURVE",
"287 939 LINE",
"238 783 OFFCURVE",
"180 652 OFFCURVE",
"112 532 CURVE"
);
},
{
closed = 1;
nodes = (
"352 687 OFFCURVE",
"385 598 OFFCURVE",
"385 492 CURVE SMOOTH",
"385 308 OFFCURVE",
"316 142 OFFCURVE",
"90 -252 CURVE",
"163 -293 LINE",
"392 91 OFFCURVE",
"471 308 OFFCURVE",
"471 492 CURVE SMOOTH",
"471 620 OFFCURVE",
"429 730 OFFCURVE",
"326 879 CURVE",
"291 780 LINE"
);
}
);
vertOrigin = 90;
vertWidth = 1312;
width = 545;
}
);
unicode = 1B1CB;
},
{
glyphname = u1B1CC;
lastChange = "2020-03-27 11:44:55 +0000";
layers = (
{
layerId = "CFFEBDE4-599A-46B2-9328-D96E42CD9C81";
paths = (
{
closed = 1;
nodes = (
"474 670 LINE",
"357 524 OFFCURVE",
"249 433 OFFCURVE",
"107 335 CURVE",
"153 267 LINE",
"299 369 OFFCURVE",
"422 467 OFFCURVE",
"541 620 CURVE"
);
},
{
closed = 1;
nodes = (
"275 -34 OFFCURVE",
"310 -110 OFFCURVE",
"405 -167 CURVE",
"479 -155 LINE",
"539 -53 OFFCURVE",
"557 20 OFFCURVE",
"557 98 CURVE SMOOTH",
"557 185 OFFCURVE",
"518 240 OFFCURVE",
"426 300 CURVE",
"342 288 LINE",
"289 174 OFFCURVE",
"275 109 OFFCURVE",
"275 36 CURVE SMOOTH"
);
},
{
closed = 1;
nodes = (
"373 238 LINE",
"450 183 OFFCURVE",
"473 147 OFFCURVE",
"473 94 CURVE SMOOTH",
"473 39 OFFCURVE",
"460 -13 OFFCURVE",
"420 -103 CURVE",
"445 -97 LINE",
"389 -55 OFFCURVE",
"359 -19 OFFCURVE",
"359 46 CURVE SMOOTH",
"359 102 OFFCURVE",
"370 150 OFFCURVE",
"409 240 CURVE"
);
},
{
closed = 1;
nodes = (
"368 939 LINE",
"269 771 OFFCURVE",
"169 653 OFFCURVE",
"40 536 CURVE",
"80 359 OFFCURVE",
"95 221 OFFCURVE",
"95 45 CURVE SMOOTH",
"95 -86 OFFCURVE",
"88 -175 OFFCURVE",
"68 -283 CURVE",
"149 -293 LINE",
"170 -176 OFFCURVE",
"179 -74 OFFCURVE",
"179 49 CURVE SMOOTH",
"179 222 OFFCURVE",
"163 374 OFFCURVE",
"120 547 CURVE",
"121 498 LINE",
"244 608 OFFCURVE",
"340 725 OFFCURVE",
"445 900 CURVE"
);
}
);
vertOrigin = 90;
vertWidth = 1312;
width = 566;
}
);
unicode = 1B1CC;
},
{
glyphname = u1B1CD;
lastChange = "2020-03-27 13:44:38 +0000";
layers = (
{
layerId = "CFFEBDE4-599A-46B2-9328-D96E42CD9C81";
paths = (
{
closed = 1;
nodes = (
"439 939 LINE",
"348 716 OFFCURVE",
"241 546 OFFCURVE",
"101 368 CURVE",
"170 316 LINE",
"323 511 OFFCURVE",
"419 679 OFFCURVE",
"519 908 CURVE"
);
},
{
closed = 1;
nodes = (
"571 365 LINE",
"492 206 OFFCURVE",
"409 87 OFFCURVE",
"298 -32 CURVE",
"362 -88 LINE",
"482 42 OFFCURVE",
"570 170 OFFCURVE",
"649 329 CURVE"
);
},
{
closed = 1;
nodes = (
"281 534 LINE",
"344 383 OFFCURVE",
"384 241 OFFCURVE",
"426 77 CURVE",
"500 119 LINE",
"460 293 OFFCURVE",
"414 437 OFFCURVE",
"338 619 CURVE"
);
},
{
closed = 1;
nodes = (
"224 155 LINE",
"163 -14 OFFCURVE",
"108 -116 OFFCURVE",
"11 -242 CURVE",
"78 -293 LINE",
"179 -162 OFFCURVE",
"244 -34 OFFCURVE",
"305 125 CURVE"
);
},
{
closed = 1;
nodes = (
"-3 22 LINE",
"108 -60 OFFCURVE",
"194 -140 OFFCURVE",
"276 -247 CURVE",
"341 -190 LINE",
"257 -83 OFFCURVE",
"160 8 OFFCURVE",
"50 90 CURVE"
);
}
);
vertOrigin = 90;
vertWidth = 1312;
width = 623;
}
);
unicode = 1B1CD;
},
{
glyphname = u1B1CE;
lastChange = "2020-03-27 12:45:05 +0000";
layers = (
{
layerId = "CFFEBDE4-599A-46B2-9328-D96E42CD9C81";
paths = (
{
closed = 1;
nodes = (
"457 258 OFFCURVE",
"374 342 OFFCURVE",
"247 452 CURVE",
"259 403 LINE",
"338 555 OFFCURVE",
"395 697 OFFCURVE",
"462 917 CURVE",
"379 939 LINE",
"322 749 OFFCURVE",
"259 594 OFFCURVE",
"166 407 CURVE",
"315 282 OFFCURVE",
"405 190 OFFCURVE",
"517 58 CURVE",
"604 72 LINE",
"686 205 OFFCURVE",
"757 363 OFFCURVE",
"823 549 CURVE",
"741 577 LINE",
"675 390 OFFCURVE",
"607 242 OFFCURVE",
"534 123 CURVE",
"571 129 LINE"
);
},
{
closed = 1;
nodes = (
"229 -88 LINE",
"303 13 OFFCURVE",
"364 109 OFFCURVE",
"417 237 CURVE",
"342 278 LINE",
"290 153 OFFCURVE",
"237 70 OFFCURVE",
"164 -34 CURVE"
);
},
{
closed = 1;
nodes = (
"406 -237 LINE",
"294 -101 OFFCURVE",
"174 23 OFFCURVE",
"44 138 CURVE",
"-13 73 LINE",
"105 -29 OFFCURVE",
"231 -165 OFFCURVE",
"341 -293 CURVE"
);
}
);
vertOrigin = 90;
vertWidth = 1312;
width = 833;
}
);
unicode = 1B1CE;
},
{
glyphname = u1B1CF;
lastChange = "2020-03-27 12:46:19 +0000";
layers = (
{
layerId = "CFFEBDE4-599A-46B2-9328-D96E42CD9C81";
paths = (
{
closed = 1;
nodes = (
"174 292 LINE",
"155 400 OFFCURVE",
"123 503 OFFCURVE",
"77 609 CURVE",
"0 576 LINE",
"49 453 OFFCURVE",
"76 372 OFFCURVE",
"104 256 CURVE",
"198 230 LINE",
"355 441 OFFCURVE",
"451 662 OFFCURVE",
"521 919 CURVE",
"437 939 LINE",
"371 686 OFFCURVE",
"284 495 OFFCURVE",
"146 293 CURVE"
);
},
{
closed = 1;
nodes = (
"339 -293 LINE",
"381 -148 OFFCURVE",
"399 -6 OFFCURVE",
"399 153 CURVE SMOOTH",
"399 382 OFFCURVE",
"338 622 OFFCURVE",
"213 846 CURVE",
"137 806 LINE",
"263 579 OFFCURVE",
"313 374 OFFCURVE",
"313 153 CURVE SMOOTH",
"313 5 OFFCURVE",
"296 -120 OFFCURVE",
"256 -272 CURVE"
);
},
{
closed = 1;
nodes = (
"540 378 OFFCURVE",
"563 395 OFFCURVE",
"563 434 CURVE SMOOTH",
"563 473 OFFCURVE",
"540 490 OFFCURVE",
"512 490 CURVE SMOOTH",
"483 490 OFFCURVE",
"460 473 OFFCURVE",
"460 434 CURVE SMOOTH",
"460 395 OFFCURVE",
"483 378 OFFCURVE",
"512 378 CURVE SMOOTH"
);
},
{
closed = 1;
nodes = (
"566 133 OFFCURVE",
"589 150 OFFCURVE",
"589 189 CURVE SMOOTH",
"589 228 OFFCURVE",
"566 245 OFFCURVE",
"538 245 CURVE SMOOTH",
"509 245 OFFCURVE",
"486 228 OFFCURVE",
"486 189 CURVE SMOOTH",
"486 150 OFFCURVE",
"509 133 OFFCURVE",
"538 133 CURVE SMOOTH"
);
}
);
vertOrigin = 90;
vertWidth = 1312;
width = 619;
}
);
unicode = 1B1CF;
},
{
glyphname = u1B1D0;
lastChange = "2020-03-27 12:50:58 +0000";
layers = (
{
layerId = "CFFEBDE4-599A-46B2-9328-D96E42CD9C81";
paths = (
{
closed = 1;
nodes = (
"163 129 OFFCURVE",
"132 53 OFFCURVE",
"132 -28 CURVE SMOOTH",
"132 -160 OFFCURVE",
"199 -260 OFFCURVE",
"388 -293 CURVE",
"404 -211 LINE",
"256 -185 OFFCURVE",
"216 -120 OFFCURVE",
"216 -30 CURVE SMOOTH",
"216 36 OFFCURVE",
"234 81 OFFCURVE",
"287 123 CURVE",
"274 222 LINE",
"155 248 OFFCURVE",
"114 305 OFFCURVE",
"114 400 CURVE SMOOTH",
"114 458 OFFCURVE",
"130 506 OFFCURVE",
"188 553 CURVE",
"132 612 LINE",
"60 549 OFFCURVE",
"30 484 OFFCURVE",
"30 395 CURVE SMOOTH",
"30 264 OFFCURVE",
"100 175 OFFCURVE",
"238 142 CURVE",
"236 182 LINE"
);
},
{
closed = 1;
nodes = (
"529 939 LINE",
"438 716 OFFCURVE",
"331 546 OFFCURVE",
"191 368 CURVE",
"260 316 LINE",
"413 511 OFFCURVE",
"509 679 OFFCURVE",
"609 908 CURVE"
);
},
{
closed = 1;
nodes = (
"661 365 LINE",
"582 206 OFFCURVE",
"474 61 OFFCURVE",
"363 -58 CURVE",
"427 -114 LINE",
"547 16 OFFCURVE",
"660 170 OFFCURVE",
"739 329 CURVE"
);
},
{
closed = 1;
nodes = (
"371 534 LINE",
"434 383 OFFCURVE",
"474 241 OFFCURVE",
"516 77 CURVE",
"590 119 LINE",
"550 293 OFFCURVE",
"504 437 OFFCURVE",
"428 619 CURVE"
);
}
);
vertOrigin = 90;
vertWidth = 1312;
width = 702;
}
);
unicode = 1B1D0;
},
{
glyphname = u1B1D1;
lastChange = "2020-03-27 12:53:43 +0000";
layers = (
{
layerId = "CFFEBDE4-599A-46B2-9328-D96E42CD9C81";
paths = (
{
closed = 1;
nodes = (
"239 348 LINE",
"348 223 OFFCURVE",
"440 94 OFFCURVE",
"515 -55 CURVE",
"587 -15 LINE",
"508 136 OFFCURVE",
"414 273 OFFCURVE",
"293 412 CURVE",
"289 351 LINE",
"374 446 OFFCURVE",
"443 533 OFFCURVE",
"516 660 CURVE",
"444 699 LINE",
"379 584 OFFCURVE",
"315 501 OFFCURVE",
"239 419 CURVE"
);
},
{
closed = 1;
nodes = (
"458 501 OFFCURVE",
"469 443 OFFCURVE",
"469 386 CURVE SMOOTH",
"469 238 OFFCURVE",
"431 134 OFFCURVE",
"238 -147 CURVE",
"305 -194 LINE",
"493 73 OFFCURVE",
"551 220 OFFCURVE",
"551 386 CURVE SMOOTH",
"551 461 OFFCURVE",
"530 548 OFFCURVE",
"453 660 CURVE",
"415 582 LINE"
);
},
{
closed = 1;
nodes = (
"354 939 LINE",
"271 765 OFFCURVE",
"174 639 OFFCURVE",
"47 520 CURVE",
"85 375 OFFCURVE",
"98 271 OFFCURVE",
"98 135 CURVE SMOOTH",
"98 -21 OFFCURVE",
"78 -127 OFFCURVE",
"31 -267 CURVE",
"112 -293 LINE",
"166 -145 OFFCURVE",
"184 -23 OFFCURVE",
"184 129 CURVE SMOOTH",
"184 271 OFFCURVE",
"168 388 OFFCURVE",
"130 538 CURVE",
"125 474 LINE",
"248 588 OFFCURVE",
"345 721 OFFCURVE",
"431 903 CURVE"
);
}
);
vertOrigin = 90;
vertWidth = 1312;
width = 567;
}
);
unicode = 1B1D1;
},
{
glyphname = u1B1D2;
lastChange = "2020-03-27 12:54:56 +0000";
layers = (
{
background = {
paths = (
{
closed = 1;
nodes = (
"425 939 LINE",
"296 747 OFFCURVE",
"168 601 OFFCURVE",
"0 449 CURVE",
"53 386 LINE",
"227 536 OFFCURVE",
"362 689 OFFCURVE",
"498 897 CURVE"
);
},
{
closed = 1;
nodes = (
"411 710 OFFCURVE",
"431 666 OFFCURVE",
"431 603 CURVE SMOOTH",
"431 474 OFFCURVE",
"342 363 OFFCURVE",
"61 134 CURVE",
"116 71 LINE",
"426 308 OFFCURVE",
"517 449 OFFCURVE",
"517 603 CURVE SMOOTH",
"517 693 OFFCURVE",
"489 758 OFFCURVE",
"395 840 CURVE",
"344 773 LINE"
);
},
{
closed = 1;
nodes = (
"312 269 LINE",
"337 143 OFFCURVE",
"342 40 OFFCURVE",
"342 -51 CURVE SMOOTH",
"342 -139 OFFCURVE",
"339 -199 OFFCURVE",
"328 -284 CURVE",
"413 -293 LINE",
"424 -204 OFFCURVE",
"428 -126 OFFCURVE",
"428 -39 CURVE SMOOTH",
"428 68 OFFCURVE",
"417 190 OFFCURVE",
"382 347 CURVE"
);
}
);
};
layerId = "CFFEBDE4-599A-46B2-9328-D96E42CD9C81";
paths = (
{
closed = 1;
nodes = (
"502 -40 OFFCURVE",
"544 -116 OFFCURVE",
"647 -180 CURVE",
"695 -113 LINE",
"609 -56 OFFCURVE",
"586 -4 OFFCURVE",
"586 81 CURVE SMOOTH",
"586 146 OFFCURVE",
"610 205 OFFCURVE",
"667 264 CURVE",
"605 317 LINE",
"533 241 OFFCURVE",
"502 160 OFFCURVE",
"502 71 CURVE SMOOTH"
);
},
{
closed = 1;
nodes = (
"732 26 OFFCURVE",
"755 43 OFFCURVE",
"755 82 CURVE SMOOTH",
"755 121 OFFCURVE",
"732 138 OFFCURVE",
"704 138 CURVE SMOOTH",
"675 138 OFFCURVE",
"652 121 OFFCURVE",
"652 82 CURVE SMOOTH",
"652 43 OFFCURVE",
"675 26 OFFCURVE",
"704 26 CURVE SMOOTH"
);
},
{
closed = 1;
nodes = (
"508 939 LINE",
"371 753 OFFCURVE",
"209 608 OFFCURVE",
"0 459 CURVE",
"50 390 LINE",
"276 548 OFFCURVE",
"420 685 OFFCURVE",
"578 889 CURVE"
);
},
{
closed = 1;
nodes = (
"494 726 OFFCURVE",
"512 687 OFFCURVE",
"512 631 CURVE SMOOTH",
"512 514 OFFCURVE",
"435 405 OFFCURVE",
"81 170 CURVE",
"129 99 LINE",
"508 351 OFFCURVE",
"598 472 OFFCURVE",
"598 634 CURVE SMOOTH",
"598 706 OFFCURVE",
"573 763 OFFCURVE",
"502 830 CURVE",
"440 783 LINE"
);
},
{
closed = 1;
nodes = (
"130 815 LINE",
"292 504 OFFCURVE",
"348 271 OFFCURVE",
"348 -60 CURVE SMOOTH",
"348 -140 OFFCURVE",
"345 -207 OFFCURVE",
"335 -284 CURVE",
"419 -293 LINE",
"429 -210 OFFCURVE",
"434 -136 OFFCURVE",
"434 -53 CURVE SMOOTH",
"434 265 OFFCURVE",
"377 536 OFFCURVE",
"207 853 CURVE"
);
}
);
vertOrigin = 90;
vertWidth = 1312;
width = 755;
}
);
unicode = 1B1D2;
},
{
glyphname = u1B1D3;
lastChange = "2020-03-27 12:56:51 +0000";
layers = (
{
background = {
paths = (
{
closed = 1;
nodes = (
"457 258 OFFCURVE",
"374 342 OFFCURVE",
"247 452 CURVE",
"259 403 LINE",
"338 555 OFFCURVE",
"395 697 OFFCURVE",
"462 917 CURVE",
"379 939 LINE",
"322 749 OFFCURVE",
"259 594 OFFCURVE",
"166 407 CURVE",
"315 282 OFFCURVE",
"405 190 OFFCURVE",
"517 58 CURVE",
"604 72 LINE",
"686 205 OFFCURVE",
"757 363 OFFCURVE",
"823 549 CURVE",
"741 577 LINE",
"675 390 OFFCURVE",
"607 242 OFFCURVE",
"534 123 CURVE",
"571 129 LINE"
);
},
{
closed = 1;
nodes = (
"229 -88 LINE",
"303 13 OFFCURVE",
"364 109 OFFCURVE",
"417 237 CURVE",
"342 278 LINE",
"290 153 OFFCURVE",
"237 70 OFFCURVE",
"164 -34 CURVE"
);
},
{
closed = 1;
nodes = (
"406 -237 LINE",
"294 -101 OFFCURVE",
"174 23 OFFCURVE",
"44 138 CURVE",
"-13 73 LINE",
"105 -29 OFFCURVE",
"231 -165 OFFCURVE",
"341 -293 CURVE"
);
}
);
};
layerId = "CFFEBDE4-599A-46B2-9328-D96E42CD9C81";
paths = (
{
closed = 1;
nodes = (
"249 -96 LINE",
"454 187 OFFCURVE",
"553 398 OFFCURVE",
"653 664 CURVE",
"572 693 LINE",
"476 430 OFFCURVE",
"384 248 OFFCURVE",
"178 -49 CURVE"
);
},
{
closed = 1;
nodes = (
"484 222 OFFCURVE",
"376 340 OFFCURVE",
"247 451 CURVE",
"258 403 LINE",
"336 555 OFFCURVE",
"395 697 OFFCURVE",
"462 917 CURVE",
"379 939 LINE",
"322 749 OFFCURVE",
"259 594 OFFCURVE",
"166 407 CURVE",
"315 282 OFFCURVE",
"433 152 OFFCURVE",
"545 20 CURVE",
"637 34 LINE",
"720 170 OFFCURVE",
"787 311 OFFCURVE",
"863 506 CURVE",
"782 536 LINE",
"712 353 OFFCURVE",
"652 224 OFFCURVE",
"568 84 CURVE",
"595 95 LINE"
);
},
{
closed = 1;
nodes = (
"406 -237 LINE",
"305 -111 OFFCURVE",
"167 28 OFFCURVE",
"44 138 CURVE",
"-13 73 LINE",
"105 -29 OFFCURVE",
"244 -178 OFFCURVE",
"341 -293 CURVE"
);
}
);
vertOrigin = 90;
vertWidth = 1312;
width = 861;
}
);
unicode = 1B1D3;
},
